<?xml version="1.0" encoding="UTF-8" ?>
<!DOCTYPE svg PUBLIC "-//W3C//DTD SVG 1.1//EN" "http://www.w3.org/Graphics/SVG/1.1/DTD/svg11.dtd">
<svg width="1154pt" height="1154pt" viewBox="0 0 1154 1154" version="1.1" xmlns="http://www.w3.org/2000/svg">
<g id="#bef202ff">
<path fill="#bef202" opacity="1.00" d=" M 567.45 0.00 L 586.45 0.00 C 667.82 1.44 748.94 19.87 822.53 54.74 C 930.82 105.48 1022.41 190.94 1080.67 295.37 C 1119.78 364.88 1143.97 442.68 1151.41 522.08 C 1152.93 537.45 1153.55 552.88 1154.00 568.31 L 1154.00 586.56 C 1152.56 668.11 1133.98 749.37 1099.02 823.11 C 1068.41 887.96 1025.54 946.96 973.44 996.24 C 920.18 1046.63 857.29 1086.81 789.09 1113.76 C 731.06 1136.73 669.26 1150.07 606.94 1153.22 C 604.24 1153.30 601.54 1153.41 598.91 1154.00 L 567.48 1154.00 C 485.93 1152.55 404.63 1134.02 330.92 1099.00 C 230.37 1051.72 144.23 974.58 85.89 880.03 C 44.32 812.90 16.83 737.11 5.78 658.92 C 2.21 633.96 0.43 608.77 0.00 583.57 L 0.00 568.37 C 0.54 545.85 2.00 523.35 4.97 501.02 C 13.96 432.60 35.37 365.81 68.03 305.01 C 101.44 242.54 146.53 186.36 200.15 140.07 C 257.31 90.72 324.21 52.61 395.97 29.01 C 451.21 10.64 509.28 1.15 567.45 0.00 M 446.00 259.00 C 445.99 271.17 446.00 283.33 446.00 295.50 C 433.37 295.46 420.73 295.58 408.10 295.43 C 407.86 308.62 408.07 321.81 408.00 335.00 C 395.08 335.01 382.16 334.98 369.24 335.01 C 369.25 347.17 369.25 359.33 369.24 371.49 C 357.17 371.50 345.10 371.52 333.03 371.48 C 332.96 396.32 333.02 421.16 333.00 446.00 C 345.59 446.01 358.17 445.98 370.75 446.01 C 370.74 458.34 370.75 470.67 370.75 482.99 C 509.17 483.01 647.58 483.00 786.00 483.00 C 786.00 470.66 785.99 458.33 786.00 446.00 C 797.67 445.99 809.33 446.00 821.00 446.00 C 820.97 421.16 821.06 396.31 820.95 371.47 C 808.97 371.46 796.99 371.63 785.01 371.38 C 785.00 358.77 784.97 346.16 785.03 333.55 C 772.35 333.43 759.68 333.54 747.00 333.50 C 746.92 320.80 747.16 308.11 746.88 295.42 C 734.26 295.60 721.63 295.46 709.00 295.50 C 708.99 283.33 709.00 271.17 709.00 259.00 C 621.33 259.00 533.67 259.00 446.00 259.00 M 369.24 521.51 C 369.25 533.76 369.25 546.00 369.24 558.24 C 357.75 558.26 346.25 558.24 334.76 558.25 C 334.69 608.37 334.85 658.50 334.67 708.62 C 346.77 709.05 358.90 708.41 371.00 708.95 C 371.03 733.48 370.95 758.00 371.04 782.52 C 383.52 782.47 396.00 782.51 408.49 782.50 C 408.52 794.50 408.49 806.49 408.50 818.49 C 420.97 818.47 433.45 818.56 445.92 818.45 C 446.11 830.96 445.94 843.48 446.00 856.00 C 458.21 856.01 470.42 855.99 482.63 856.01 C 483.15 857.59 483.60 859.26 483.53 860.97 C 483.43 872.29 483.57 883.61 483.46 894.93 C 496.30 895.08 509.15 894.96 522.00 895.00 C 522.00 882.66 521.99 870.33 522.00 858.00 C 534.17 857.99 546.33 858.00 558.49 858.00 C 558.49 758.08 558.52 658.16 558.48 558.24 C 546.32 558.26 534.16 558.25 522.00 558.24 C 521.99 546.00 522.00 533.75 522.00 521.51 C 471.08 521.50 420.16 521.49 369.24 521.51 M 632.24 558.02 C 620.17 558.50 608.09 558.13 596.01 558.24 C 595.99 658.16 596.00 758.08 596.00 858.00 C 608.08 858.01 620.16 857.99 632.24 858.00 C 632.25 870.33 632.25 882.66 632.24 894.99 C 645.16 895.01 658.08 895.00 671.00 895.00 C 670.86 882.00 671.29 868.98 670.77 855.99 C 683.36 855.98 695.94 856.06 708.53 855.95 C 708.47 843.47 708.51 830.98 708.51 818.50 C 720.99 818.50 733.48 818.48 745.97 818.52 C 746.06 806.50 745.93 794.49 746.03 782.48 C 758.52 782.52 771.01 782.49 783.49 782.50 C 783.52 757.91 783.47 733.33 783.52 708.75 C 795.51 708.76 807.49 708.74 819.48 708.76 C 819.54 658.60 819.46 608.44 819.52 558.28 C 808.01 558.20 796.51 558.28 785.01 558.24 C 784.99 546.00 785.00 533.75 785.00 521.51 C 734.13 521.43 683.25 521.63 632.39 521.41 C 632.06 533.60 632.34 545.81 632.24 558.02 Z" />
</g>
<g id="#000000ff">
<path fill="#000000" opacity="1.00" d=" M 446.00 259.00 C 533.67 259.00 621.33 259.00 709.00 259.00 C 709.00 271.17 708.99 283.33 709.00 295.50 C 721.63 295.46 734.26 295.60 746.88 295.42 C 747.16 308.11 746.92 320.80 747.00 333.50 C 759.68 333.54 772.35 333.43 785.03 333.55 C 784.97 346.16 785.00 358.77 785.01 371.38 C 796.99 371.63 808.97 371.46 820.95 371.47 C 821.06 396.31 820.97 421.16 821.00 446.00 C 809.33 446.00 797.67 445.99 786.00 446.00 C 785.99 458.33 786.00 470.66 786.00 483.00 C 647.58 483.00 509.17 483.01 370.75 482.99 C 370.75 470.67 370.74 458.34 370.75 446.01 C 358.17 445.98 345.59 446.01 333.00 446.00 C 333.02 421.16 332.96 396.32 333.03 371.48 C 345.10 371.52 357.17 371.50 369.24 371.49 C 369.25 359.33 369.25 347.17 369.24 335.01 C 382.16 334.98 395.08 335.01 408.00 335.00 C 408.07 321.81 407.86 308.62 408.10 295.43 C 420.73 295.58 433.37 295.46 446.00 295.50 C 446.00 283.33 445.99 271.17 446.00 259.00 Z" />
<path fill="#000000" opacity="1.00" d=" M 369.24 521.51 C 420.16 521.49 471.08 521.50 522.00 521.51 C 522.00 533.75 521.99 546.00 522.00 558.24 C 534.16 558.25 546.32 558.26 558.48 558.24 C 558.52 658.16 558.49 758.08 558.49 858.00 C 546.33 858.00 534.17 857.99 522.00 858.00 C 521.99 870.33 522.00 882.66 522.00 895.00 C 509.15 894.96 496.30 895.08 483.46 894.93 C 483.57 883.61 483.43 872.29 483.53 860.97 C 483.60 859.26 483.15 857.59 482.63 856.01 C 470.42 855.99 458.21 856.01 446.00 856.00 C 445.94 843.48 446.11 830.96 445.92 818.45 C 433.45 818.56 420.97 818.47 408.50 818.49 C 408.49 806.49 408.52 794.50 408.49 782.50 C 396.00 782.51 383.52 782.47 371.04 782.52 C 370.95 758.00 371.03 733.48 371.00 708.95 C 358.90 708.41 346.77 709.05 334.67 708.62 C 334.85 658.50 334.69 608.37 334.76 558.25 C 346.25 558.24 357.75 558.26 369.24 558.24 C 369.25 546.00 369.25 533.76 369.24 521.51 Z" />
<path fill="#000000" opacity="1.00" d=" M 632.24 558.02 C 632.34 545.81 632.06 533.60 632.39 521.41 C 683.25 521.63 734.13 521.43 785.00 521.51 C 785.00 533.75 784.99 546.00 785.01 558.24 C 796.51 558.28 808.01 558.20 819.52 558.28 C 819.46 608.44 819.54 658.60 819.48 708.76 C 807.49 708.74 795.51 708.76 783.52 708.75 C 783.47 733.33 783.52 757.91 783.49 782.50 C 771.01 782.49 758.52 782.52 746.03 782.48 C 745.93 794.49 746.06 806.50 745.97 818.52 C 733.48 818.48 720.99 818.50 708.51 818.50 C 708.51 830.98 708.47 843.47 708.53 855.95 C 695.94 856.06 683.36 855.98 670.77 855.99 C 671.29 868.98 670.86 882.00 671.00 895.00 C 658.08 895.00 645.16 895.01 632.24 894.99 C 632.25 882.66 632.25 870.33 632.24 858.00 C 620.16 857.99 608.08 858.01 596.00 858.00 C 596.00 758.08 595.99 658.16 596.01 558.24 C 608.09 558.13 620.17 558.50 632.24 558.02 Z" />
</g>
</svg>
