<?xml version="1.0" encoding="utf-8"?>
<!-- Generator: Adobe Illustrator 18.1.1, SVG Export Plug-In . SVG Version: 6.00 Build 0)  -->
<svg version="1.1" id="Layer_1" xmlns="http://www.w3.org/2000/svg" xmlns:xlink="http://www.w3.org/1999/xlink" x="0px" y="0px"
	 viewBox="-153.4 79 673.2 636" enable-background="new -153.4 79 673.2 636" xml:space="preserve">
<g id="_x23_000000ff">
	<path d="M52,79h263c0,12.2,0,24.3,0,36.5c12.6,0,25.3,0,37.9,0c0.1,12.7,0,25.4,0.1,38c12.6,0,25.3,0,37.9,0
		c0.1,12.6,0,25.3,0.1,37.9c12,0.2,24,0,36,0.1V266c-11.7,0-23.3,0-35,0c0,12.3,0,24.7,0,37c-138.4,0-276.8,0-415.2,0
		c0-12.3,0-24.6,0-37c-12.6,0-25.2,0-37.8,0v-74.5c12.1,0,24.2,0,36.2,0c0-12.1,0-24.3,0-36.5c12.9,0,25.8,0,38.8,0
		c0-13.2-0.1-26.4,0-39.5c12.7,0,25.3,0,37.9,0C52,103.3,52,91.2,52,79z"/>
	<path d="M29.9,341.5c36.1,35.9,72,72,108.1,108c-8.6,8.7-17.3,17.3-26,26c8.6,8.6,17.2,17.2,25.8,25.8
		C67.2,571.9-3.5,642.6-74.1,713.2c-8.7-8.6-17.2-17.2-25.8-25.8c-8.7,8.7-17.4,17.4-26.2,26.2l-27.2-27.2c8-8,16-16,24.1-24
		c1.3-1.2,2.1-2.7,2.9-4.2c-8.7-8.6-17.3-17.3-25.9-25.9c8.8-8.9,17.7-17.6,26.5-26.6c-8.9-8.8-17.7-17.6-26.5-26.5
		c8.4-8.5,17-16.9,25.4-25.5c-8.8-8.8-17.6-17.7-26.5-26.5c17.3-17.4,34.7-34.7,52-52.1c-8.2-8.8-17-17.1-25.5-25.7
		c35.5-35.5,70.9-71.1,106.5-106.4c8,8.2,16.2,16.2,24.3,24.3C12.6,358.8,21.3,350.2,29.9,341.5z"/>
	<path d="M228.4,449.8c35.8-36.2,72-72.1,108-108.1c8.7,8.6,17.3,17.3,26,26c8.2-8.1,16.2-16.4,24.5-24.4
		c35.3,35.7,71.1,70.8,106.3,106.6c-8.6,8.2-16.9,16.9-25.4,25.2c17.2,17.5,34.8,34.8,52.1,52.2c-8.8,8.8-17.6,17.7-26.5,26.5
		c8.4,8.6,17,16.9,25.4,25.5c-8.9,8.8-17.7,17.6-26.5,26.5c8.8,8.8,17.6,17.7,26.5,26.5c-8.8,8.9-17.8,17.8-26.6,26.7
		c9.5,8.9,18.4,18.3,27.7,27.5l-27.4,27.4c-8.7-8.7-17.4-17.4-26.2-26.1c-8.6,8.5-17.1,17.1-25.6,25.6
		c-70.7-70.7-141.3-141.3-211.9-212c8.4-8.6,17.3-16.9,25.4-25.8C245.5,466.9,237.1,458.2,228.4,449.8z"/>
</g>
</svg>
