<?xml version="1.0" standalone="no"?>
<!DOCTYPE svg PUBLIC "-//W3C//DTD SVG 20010904//EN"
 "http://www.w3.org/TR/2001/REC-SVG-20010904/DTD/svg10.dtd">
<svg version="1.0" xmlns="http://www.w3.org/2000/svg"
 width="488.000000pt" height="636.000000pt" viewBox="0 0 488.000000 636.000000"
 preserveAspectRatio="xMidYMid meet">
<metadata>
Created by potrace 1.11, written by Peter Selinger 2001-2013
</metadata>
<g transform="translate(0.000000,636.000000) scale(0.100000,-0.100000)"
fill="#000000" stroke="none">
<path d="M1130 6180 l0 -180 -190 0 -190 0 0 -200 0 -200 -195 0 -195 0 0
-180 0 -180 -180 0 -180 0 0 -375 0 -375 190 0 190 0 0 -185 0 -185 2075 0
2075 0 0 185 0 185 175 0 175 0 0 375 0 375 -180 0 -180 0 0 190 0 190 -190 0
-190 0 0 190 0 190 -190 0 -190 0 0 180 0 180 -1315 0 -1315 0 0 -180z"/>
<path d="M367 3733 c-4 -3 -7 -87 -7 -185 l0 -178 -170 0 -170 0 0 -755 0
-755 180 0 180 0 0 -370 0 -370 185 0 185 0 2 -177 3 -178 188 -3 187 -2 0
-185 0 -185 185 0 185 0 0 -195 0 -195 195 0 195 0 0 185 0 185 185 0 185 0
-2 1498 -3 1497 -182 3 -183 2 0 185 0 185 -758 0 c-417 0 -762 -3 -765 -7z"/>
<path d="M2997 3733 c-4 -3 -7 -87 -7 -185 l0 -178 -180 0 -180 0 0 -1500 0
-1500 180 0 180 0 0 -185 0 -185 195 0 195 0 0 195 0 195 190 0 190 0 0 185 0
185 185 0 185 0 0 180 0 180 188 2 187 3 3 367 2 368 178 2 177 3 0 750 0 750
-172 3 -173 2 0 185 0 185 -758 0 c-417 0 -762 -3 -765 -7z"/>
</g>
</svg>
