<?xml version="1.0" encoding="utf-8"?>
<!-- Generator: Adobe Illustrator 18.1.1, SVG Export Plug-In . SVG Version: 6.00 Build 0)  -->
<svg version="1.1" id="Layer_1" xmlns="http://www.w3.org/2000/svg" xmlns:xlink="http://www.w3.org/1999/xlink" x="0px" y="0px"
	 viewBox="-123 79 612 636" enable-background="new -123 79 612 636" xml:space="preserve">
<g id="_x23_000000ff">
	<path d="M52,79h263c0,12.2,0,24.3,0,36.5c12.6,0,25.3,0,37.9,0c0.1,12.7,0,25.4,0.1,38c12.6,0,25.3,0,37.9,0
		c0.1,12.6,0,25.3,0.1,37.9c12,0.2,24,0,36,0.1V266c-11.7,0-23.3,0-35,0c0,12.3,0,24.7,0,37c-138.4,0-276.8,0-415.2,0
		c0-12.3,0-24.6,0-37c-12.6,0-25.2,0-37.8,0v-74.5c12.1,0,24.2,0,36.2,0c0-12.1,0-24.3,0-36.5c12.9,0,25.8,0,38.8,0
		c0-13.2-0.1-26.4,0-39.5c12.7,0,25.3,0,37.9,0C52,103.3,52,91.2,52,79z"/>
	<path d="M-24.8,341.6c50.9-0.1,101.9,0,152.8,0c0,12.2,0,24.5,0,36.7c12.2,0,24.3,0,36.5,0c0,99.9,0,199.8,0,299.7
		c-12.2,0.1-24.3,0-36.5,0c0,12.3,0,24.7,0,37H89.5c0-11.3,0-22.7,0-34c0.1-1.7-0.4-3.4-0.9-5c-12.2,0-24.4,0-36.6,0
		c-0.1-12.5,0.1-25-0.1-37.5c-12.5,0.1-25,0-37.4,0c-0.1-12,0-24,0-36c-12.5,0-25,0-37.4,0c-0.1-24.5,0-49.1,0-73.6
		c-12.1-0.4-24.1-0.1-36.2-0.2c0-50.2-0.1-100.4,0.1-150.6c11.5,0.1,22.9,0,34.4,0C-24.8,366-24.7,353.8-24.8,341.6z"/>
	<path d="M238.2,341.6c50.9-0.3,101.9,0,152.8-0.1c0,12.2,0,24.5,0,36.7c11.5,0.1,23-0.1,34.6,0.1c-0.3,50.2,0.2,100.3-0.2,150.5
		c-11.9-0.3-23.8,0-35.8-0.1c-0.2,24.6,0,49.2-0.1,73.8c-12.5,0-25,0-37.5,0c-0.1,12,0.1,24-0.1,36c-12.5-0.1-25,0-37.4,0
		c0,12.5,0,25,0,37.5c-12.6,0.1-25.1,0-37.7,0c0.4,13,0.1,26,0.2,39h-38.8c0-12.3,0-24.7,0-37c-12.1,0-24.2,0-36.2,0
		c0-99.9,0-199.8,0-299.8c12.1-0.1,24.2,0.3,36.2-0.3C238.2,365.9,238.4,353.8,238.2,341.6z"/>
</g>
</svg>
