<?xml version="1.0" encoding="UTF-8" ?>
<!DOCTYPE svg PUBLIC "-//W3C//DTD SVG 1.1//EN" "http://www.w3.org/Graphics/SVG/1.1/DTD/svg11.dtd">
<svg width="488pt" height="636pt" viewBox="0 0 488 636" version="1.1" xmlns="http://www.w3.org/2000/svg">
<g id="#000000ff">
<path fill="#000000" opacity="1.00" d=" M 113.00 0.00 L 376.00 0.00 C 376.00 12.16 375.99 24.32 376.01 36.49 C 388.65 36.50 401.30 36.52 413.95 36.47 C 414.06 49.14 413.96 61.82 414.01 74.49 C 426.66 74.50 439.31 74.52 451.96 74.48 C 452.06 87.12 451.95 99.76 452.02 112.41 C 464.01 112.62 476.01 112.44 488.00 112.50 L 488.00 187.00 C 476.33 187.00 464.67 186.99 453.00 187.00 C 452.99 199.33 453.01 211.67 453.00 224.00 C 314.58 224.00 176.17 224.01 37.76 223.99 C 37.74 211.66 37.75 199.34 37.75 187.01 C 25.17 186.98 12.58 187.01 0.00 187.00 L 0.00 112.49 C 12.08 112.49 24.16 112.53 36.24 112.47 C 36.26 100.32 36.24 88.17 36.24 76.01 C 49.16 75.98 62.08 76.01 75.00 76.00 C 75.03 62.82 74.95 49.65 75.04 36.48 C 87.69 36.52 100.34 36.50 112.99 36.48 C 113.01 24.32 113.00 12.16 113.00 0.00 Z" />
<path fill="#000000" opacity="1.00" d=" M 36.21 262.56 C 87.14 262.41 138.07 262.53 188.99 262.51 C 189.01 274.75 188.98 286.99 189.01 299.24 C 201.17 299.27 213.34 299.22 225.50 299.26 C 225.51 399.16 225.48 499.07 225.51 598.97 C 213.34 599.04 201.17 598.97 189.00 599.00 C 188.99 611.34 189.00 623.67 189.00 636.00 L 150.49 636.00 C 150.52 624.67 150.46 613.35 150.53 602.02 C 150.60 600.28 150.10 598.62 149.62 596.98 C 137.41 597.02 125.21 596.99 113.00 597.00 C 112.95 584.49 113.08 571.98 112.94 559.47 C 100.46 559.53 87.99 559.50 75.51 559.49 C 75.46 547.50 75.54 535.50 75.47 523.51 C 63.00 523.51 50.52 523.48 38.04 523.52 C 37.94 499.00 38.04 474.47 37.99 449.94 C 25.93 449.53 13.85 449.85 1.78 449.76 C 1.76 399.58 1.65 349.39 1.84 299.21 C 13.30 299.29 24.77 299.24 36.23 299.23 C 36.24 287.01 36.28 274.79 36.21 262.56 Z" />
<path fill="#000000" opacity="1.00" d=" M 299.16 262.62 C 350.10 262.34 401.05 262.57 451.99 262.51 C 452.01 274.75 451.98 286.99 452.01 299.24 C 463.53 299.33 475.05 299.09 486.57 299.36 C 486.31 349.52 486.75 399.70 486.35 449.86 C 474.43 449.60 462.51 449.86 450.59 449.72 C 450.37 474.31 450.58 498.90 450.49 523.49 C 438.00 523.51 425.51 523.51 413.03 523.49 C 412.93 535.50 413.09 547.52 412.94 559.53 C 400.47 559.47 387.99 559.50 375.51 559.51 C 375.49 572.00 375.49 584.49 375.52 596.97 C 362.95 597.03 350.39 596.99 337.84 596.99 C 338.21 609.99 337.90 623.00 338.00 636.00 L 299.25 636.00 C 299.24 623.67 299.26 611.34 299.24 599.01 C 287.16 598.98 275.08 599.01 263.00 599.00 C 263.00 499.08 262.99 399.16 263.01 299.25 C 275.08 299.12 287.17 299.52 299.23 299.00 C 299.21 286.88 299.35 274.75 299.16 262.62 Z" />
</g>
</svg>
