<?xml version="1.0" encoding="UTF-8" ?>
<!DOCTYPE svg PUBLIC "-//W3C//DTD SVG 1.1//EN" "http://www.w3.org/Graphics/SVG/1.1/DTD/svg11.dtd">
<svg width="1154pt" height="1154pt" viewBox="0 0 1154 1154" version="1.1" xmlns="http://www.w3.org/2000/svg">
<g id="#bef202ff">
<path fill="#bef202" opacity="1.00" d=" M 564.51 0.00 L 588.49 0.00 C 631.72 1.13 674.90 6.55 716.87 17.08 C 793.73 36.16 866.46 71.48 929.11 119.90 C 1008.17 180.72 1071.02 262.37 1109.50 354.40 C 1135.46 416.37 1150.33 482.92 1153.35 550.03 C 1153.52 554.86 1153.56 559.69 1154.00 564.51 L 1154.00 588.50 C 1152.85 631.49 1147.57 674.43 1137.08 716.17 C 1118.70 790.75 1084.97 861.45 1038.87 922.87 C 995.88 980.20 942.19 1029.49 881.31 1067.29 C 814.15 1109.15 738.24 1136.89 659.89 1148.06 C 635.26 1151.71 610.38 1153.43 585.51 1154.00 L 563.52 1154.00 C 516.62 1152.54 469.80 1146.10 424.53 1133.62 C 338.12 1110.12 257.55 1065.83 191.04 1005.91 C 139.59 959.53 96.41 903.93 64.56 842.39 C 25.78 767.94 3.80 684.84 0.54 600.98 C 0.29 595.15 0.32 589.33 0.00 583.51 L 0.00 567.50 C 0.66 544.18 2.13 520.87 5.42 497.76 C 14.98 427.81 37.60 359.65 71.89 297.93 C 106.80 234.77 153.75 178.31 209.35 132.31 C 268.77 83.10 338.13 45.88 412.11 23.92 C 461.54 9.11 512.97 1.43 564.51 0.00 M 446.01 259.02 C 445.97 271.00 446.03 282.99 445.99 294.98 C 433.33 295.04 420.67 294.96 408.01 295.02 C 407.97 308.34 408.03 321.66 407.99 334.99 C 395.00 335.04 382.01 334.96 369.02 335.01 C 368.96 347.00 369.04 358.99 368.99 370.99 C 357.00 371.03 345.01 370.96 333.02 371.01 C 332.98 396.00 332.99 420.99 333.01 445.98 C 345.34 446.04 357.66 445.96 369.99 446.01 C 370.04 458.34 369.96 470.66 370.02 482.99 C 508.67 483.01 647.33 483.01 785.99 482.98 C 786.03 470.66 785.96 458.34 786.02 446.01 C 797.67 445.96 809.33 446.04 820.99 445.99 C 821.00 420.99 821.01 396.00 820.98 371.01 C 808.99 370.96 797.00 371.04 785.02 370.99 C 784.96 358.33 785.04 345.67 784.98 333.01 C 772.33 332.97 759.67 333.03 747.01 332.99 C 746.96 320.33 747.04 307.67 746.99 295.01 C 734.33 294.96 721.67 295.04 709.01 294.99 C 708.96 282.99 709.04 271.00 708.99 259.01 C 621.33 258.99 533.67 258.98 446.01 259.02 M 369.02 521.01 C 368.95 533.34 369.04 545.66 368.98 557.99 C 357.33 558.03 345.67 557.96 334.02 558.01 C 333.99 608.34 333.99 658.66 334.01 708.99 C 346.34 709.03 358.66 708.96 370.98 709.02 C 371.03 733.67 370.97 758.33 371.01 782.99 C 383.34 783.03 395.66 782.96 407.99 783.02 C 408.03 795.01 407.96 807.00 408.02 818.99 C 420.67 819.04 433.33 818.96 445.99 819.01 C 446.03 831.34 445.97 843.66 446.01 855.99 C 457.95 856.04 469.90 855.95 481.84 856.02 C 483.52 859.45 482.95 863.31 483.00 867.00 C 483.00 876.33 482.98 885.65 483.01 894.98 C 496.00 895.01 508.99 895.01 521.99 894.98 C 522.04 882.66 521.96 870.34 522.01 858.01 C 534.34 857.96 546.66 858.03 558.99 857.99 C 559.01 757.99 559.01 658.00 558.98 558.01 C 546.66 557.96 534.33 558.03 522.01 557.99 C 521.97 545.66 522.04 533.34 521.99 521.01 C 471.00 520.99 420.01 520.99 369.02 521.01 M 632.01 521.01 C 631.97 533.33 632.03 545.66 631.98 557.99 C 619.99 558.03 608.00 557.97 596.01 558.01 C 595.99 658.00 595.99 758.00 596.02 857.99 C 608.00 858.03 619.99 857.96 631.99 858.01 C 632.04 870.34 631.96 882.66 632.02 894.99 C 645.00 895.01 658.00 895.01 670.99 894.99 C 671.03 881.99 670.97 869.00 671.01 856.01 C 683.67 855.96 696.33 856.04 708.99 855.99 C 709.04 843.66 708.96 831.34 709.01 819.01 C 721.34 818.96 733.66 819.03 745.98 818.99 C 746.03 806.99 745.96 795.00 746.01 783.01 C 758.67 782.96 771.33 783.04 783.99 782.98 C 784.03 758.33 783.97 733.67 784.01 709.01 C 796.00 708.96 807.99 709.03 819.98 708.99 C 820.01 658.66 820.01 608.34 819.98 558.01 C 808.32 557.96 796.67 558.04 785.01 557.98 C 784.96 545.66 785.04 533.34 784.98 521.01 C 733.99 520.99 683.00 520.99 632.01 521.01 Z" />
</g>
<g id="#ffffffff">
<path fill="#ffffff" opacity="1.00" d=" M 446.01 259.02 C 533.67 258.98 621.33 258.99 708.99 259.01 C 709.04 271.00 708.96 282.99 709.01 294.99 C 721.67 295.04 734.33 294.96 746.99 295.01 C 747.04 307.67 746.96 320.33 747.01 332.99 C 759.67 333.03 772.33 332.97 784.98 333.01 C 785.04 345.67 784.96 358.33 785.02 370.99 C 797.00 371.04 808.99 370.96 820.98 371.01 C 821.01 396.00 821.00 420.99 820.99 445.99 C 809.33 446.04 797.67 445.96 786.02 446.01 C 785.96 458.34 786.03 470.66 785.99 482.98 C 647.33 483.01 508.67 483.01 370.02 482.99 C 369.96 470.66 370.04 458.34 369.99 446.01 C 357.66 445.96 345.34 446.04 333.01 445.98 C 332.99 420.99 332.98 396.00 333.02 371.01 C 345.01 370.96 357.00 371.03 368.99 370.99 C 369.04 358.99 368.96 347.00 369.02 335.01 C 382.01 334.96 395.00 335.04 407.99 334.99 C 408.03 321.66 407.97 308.34 408.01 295.02 C 420.67 294.96 433.33 295.04 445.99 294.98 C 446.03 282.99 445.97 271.00 446.01 259.02 Z" />
<path fill="#ffffff" opacity="1.00" d=" M 369.02 521.01 C 420.01 520.99 471.00 520.99 521.99 521.01 C 522.04 533.34 521.97 545.66 522.01 557.99 C 534.33 558.03 546.66 557.96 558.98 558.01 C 559.01 658.00 559.01 757.99 558.99 857.99 C 546.66 858.03 534.34 857.96 522.01 858.01 C 521.96 870.34 522.04 882.66 521.99 894.98 C 508.99 895.01 496.00 895.01 483.01 894.98 C 482.98 885.65 483.00 876.33 483.00 867.00 C 482.95 863.31 483.52 859.45 481.84 856.02 C 469.90 855.95 457.95 856.04 446.01 855.99 C 445.97 843.66 446.03 831.34 445.99 819.01 C 433.33 818.96 420.67 819.04 408.02 818.99 C 407.96 807.00 408.03 795.01 407.99 783.02 C 395.66 782.96 383.34 783.03 371.01 782.99 C 370.97 758.33 371.03 733.67 370.98 709.02 C 358.66 708.96 346.34 709.03 334.01 708.99 C 333.99 658.66 333.99 608.34 334.02 558.01 C 345.67 557.96 357.33 558.03 368.98 557.99 C 369.04 545.66 368.95 533.34 369.02 521.01 Z" />
<path fill="#ffffff" opacity="1.00" d=" M 632.01 521.01 C 683.00 520.99 733.99 520.99 784.98 521.01 C 785.04 533.34 784.96 545.66 785.01 557.98 C 796.67 558.04 808.32 557.96 819.98 558.01 C 820.01 608.34 820.01 658.66 819.98 708.99 C 807.99 709.03 796.00 708.96 784.01 709.01 C 783.97 733.67 784.03 758.33 783.99 782.98 C 771.33 783.04 758.67 782.96 746.01 783.01 C 745.96 795.00 746.03 806.99 745.98 818.99 C 733.66 819.03 721.34 818.96 709.01 819.01 C 708.96 831.34 709.04 843.66 708.99 855.99 C 696.33 856.04 683.67 855.96 671.01 856.01 C 670.97 869.00 671.03 881.99 670.99 894.99 C 658.00 895.01 645.00 895.01 632.02 894.99 C 631.96 882.66 632.04 870.34 631.99 858.01 C 619.99 857.96 608.00 858.03 596.02 857.99 C 595.99 758.00 595.99 658.00 596.01 558.01 C 608.00 557.97 619.99 558.03 631.98 557.99 C 632.03 545.66 631.97 533.33 632.01 521.01 Z" />
</g>
</svg>
