<?xml version="1.0" encoding="UTF-8" ?>
<!DOCTYPE svg PUBLIC "-//W3C//DTD SVG 1.1//EN" "http://www.w3.org/Graphics/SVG/1.1/DTD/svg11.dtd">
<svg width="1154pt" height="1154pt" viewBox="0 0 1154 1154" version="1.1" xmlns="http://www.w3.org/2000/svg">
<g id="#bef202ff">
<path fill="#bef202" opacity="1.00" d=" M 567.38 0.00 L 586.48 0.00 C 666.51 1.43 746.31 19.27 818.92 53.06 C 884.66 83.37 944.47 126.34 994.45 178.69 C 1056.43 243.59 1103.17 323.05 1129.13 409.00 C 1144.93 460.57 1153.02 514.40 1154.00 568.30 L 1154.00 586.57 C 1152.57 667.59 1134.22 748.34 1099.69 821.69 C 1069.61 885.85 1027.56 944.36 976.40 993.39 C 922.34 1045.33 858.08 1086.61 788.32 1114.07 C 723.57 1139.64 654.14 1153.03 584.55 1154.00 L 567.41 1154.00 C 486.67 1152.54 406.15 1134.38 333.03 1099.99 C 232.95 1053.44 147.00 977.35 88.31 883.90 C 47.41 819.00 19.71 745.83 7.48 670.09 C 2.81 641.50 0.48 612.56 0.00 583.60 L 0.00 567.47 C 0.66 541.82 2.55 516.18 6.40 490.80 C 16.80 421.32 40.07 353.77 74.82 292.71 C 110.70 229.37 158.74 172.97 215.44 127.32 C 273.69 80.42 341.11 44.90 412.85 23.70 C 462.97 8.80 515.12 1.05 567.38 0.00 M 313.48 258.04 C 313.52 270.03 313.49 282.01 313.49 294.00 C 301.41 294.01 289.32 293.98 277.24 294.02 C 277.25 306.01 277.25 318.00 277.24 329.99 C 264.83 330.01 252.42 329.99 240.00 330.00 C 240.01 406.25 239.98 482.51 240.01 558.76 C 253.15 558.73 266.30 558.78 279.44 558.73 C 279.58 571.98 279.45 585.24 279.50 598.50 C 291.75 598.52 304.00 598.47 316.25 598.52 C 316.22 610.73 316.30 622.94 316.20 635.15 C 328.05 635.38 339.90 635.19 351.75 635.25 C 351.76 647.75 351.72 660.25 351.76 672.76 C 364.92 672.88 378.09 672.47 391.24 672.99 C 391.25 684.65 391.25 696.32 391.24 707.99 C 404.41 708.03 417.58 707.97 430.75 708.01 C 430.76 721.26 430.72 734.51 430.77 747.76 C 443.26 747.75 455.75 747.74 468.24 747.76 C 468.25 759.50 468.25 771.24 468.24 782.99 C 480.08 783.03 491.92 782.97 503.75 783.01 C 503.79 796.27 503.65 809.53 503.82 822.79 C 514.63 822.71 525.43 822.76 536.24 822.76 C 536.26 835.25 536.24 847.75 536.25 860.24 C 561.49 860.26 586.74 860.25 611.99 860.25 C 612.02 872.50 611.99 884.75 612.00 897.00 C 688.26 896.99 764.51 897.02 840.76 896.99 C 840.73 884.17 840.78 871.36 840.74 858.55 C 852.65 858.42 864.57 858.54 876.50 858.49 C 876.50 845.08 876.50 831.67 876.50 818.26 C 889.00 818.23 901.49 818.27 914.00 818.25 C 914.00 793.41 914.01 768.58 913.99 743.75 C 901.50 743.75 889.02 743.73 876.53 743.77 C 876.45 731.68 876.53 719.59 876.49 707.50 C 864.50 707.49 852.50 707.51 840.51 707.49 C 840.47 695.91 840.54 684.33 840.48 672.74 C 813.90 672.76 787.33 672.73 760.75 672.76 C 760.74 685.24 760.74 697.73 760.75 710.22 C 748.67 710.29 736.58 710.22 724.50 710.26 C 724.49 722.42 724.52 734.59 724.48 746.76 C 700.99 746.74 677.50 746.75 654.01 746.75 C 653.92 733.31 654.13 719.87 653.90 706.44 C 641.66 706.48 629.41 706.65 617.17 706.36 C 617.35 693.99 617.21 681.62 617.24 669.25 C 604.75 669.24 592.25 669.26 579.76 669.24 C 579.74 657.50 579.75 645.75 579.76 634.01 C 566.51 633.98 553.25 634.01 540.00 634.00 C 539.99 620.74 540.02 607.49 539.99 594.24 C 527.91 594.25 515.84 594.25 503.76 594.24 C 503.74 582.16 503.75 570.09 503.76 558.01 C 491.01 557.98 478.26 558.01 465.51 558.00 C 465.50 532.83 465.50 507.67 465.51 482.51 C 477.98 482.51 490.46 482.46 502.94 482.54 C 503.07 445.11 502.98 407.67 502.99 370.24 C 490.50 370.26 478.02 370.24 465.53 370.25 C 465.45 357.84 465.53 345.42 465.49 333.00 C 453.41 332.99 441.33 333.01 429.25 332.99 C 429.26 320.50 429.24 308.02 429.26 295.53 C 416.34 295.46 403.42 295.53 390.51 295.49 C 390.53 283.03 390.43 270.56 390.56 258.10 C 364.87 257.90 339.17 258.01 313.48 258.04 Z" />
</g>
<g id="#000000ff">
<path fill="#000000" opacity="1.00" d=" M 313.48 258.04 C 339.17 258.01 364.87 257.90 390.56 258.10 C 390.43 270.56 390.53 283.03 390.51 295.49 C 403.42 295.53 416.34 295.46 429.26 295.53 C 429.24 308.02 429.26 320.50 429.25 332.99 C 441.33 333.01 453.41 332.99 465.49 333.00 C 465.53 345.42 465.45 357.84 465.53 370.25 C 478.02 370.24 490.50 370.26 502.99 370.24 C 502.98 407.67 503.07 445.11 502.94 482.54 C 490.46 482.46 477.98 482.51 465.51 482.51 C 465.50 507.67 465.50 532.83 465.51 558.00 C 478.26 558.01 491.01 557.98 503.76 558.01 C 503.75 570.09 503.74 582.16 503.76 594.24 C 515.84 594.25 527.91 594.25 539.99 594.24 C 540.02 607.49 539.99 620.74 540.00 634.00 C 553.25 634.01 566.51 633.98 579.76 634.01 C 579.75 645.75 579.74 657.50 579.76 669.24 C 592.25 669.26 604.75 669.24 617.24 669.25 C 617.21 681.62 617.35 693.99 617.17 706.36 C 629.41 706.65 641.66 706.48 653.90 706.44 C 654.13 719.87 653.92 733.31 654.01 746.75 C 677.50 746.75 700.99 746.74 724.48 746.76 C 724.52 734.59 724.49 722.42 724.50 710.26 C 736.58 710.22 748.67 710.29 760.75 710.22 C 760.74 697.73 760.74 685.24 760.75 672.76 C 787.33 672.73 813.90 672.76 840.48 672.74 C 840.54 684.33 840.47 695.91 840.51 707.49 C 852.50 707.51 864.50 707.49 876.49 707.50 C 876.53 719.59 876.45 731.68 876.53 743.77 C 889.02 743.73 901.50 743.75 913.99 743.75 C 914.01 768.58 914.00 793.41 914.00 818.25 C 901.49 818.27 889.00 818.23 876.50 818.26 C 876.50 831.67 876.50 845.08 876.50 858.49 C 864.57 858.54 852.65 858.42 840.74 858.55 C 840.78 871.36 840.73 884.17 840.76 896.99 C 764.51 897.02 688.26 896.99 612.00 897.00 C 611.99 884.75 612.02 872.50 611.99 860.25 C 586.74 860.25 561.49 860.26 536.25 860.24 C 536.24 847.75 536.26 835.25 536.24 822.76 C 525.43 822.76 514.63 822.71 503.82 822.79 C 503.65 809.53 503.79 796.27 503.75 783.01 C 491.92 782.97 480.08 783.03 468.24 782.99 C 468.25 771.24 468.25 759.50 468.24 747.76 C 455.75 747.74 443.26 747.75 430.77 747.76 C 430.72 734.51 430.76 721.26 430.75 708.01 C 417.58 707.97 404.41 708.03 391.24 707.99 C 391.25 696.32 391.25 684.65 391.24 672.99 C 378.09 672.47 364.92 672.88 351.76 672.76 C 351.72 660.25 351.76 647.75 351.75 635.25 C 339.90 635.19 328.05 635.38 316.20 635.15 C 316.30 622.94 316.22 610.73 316.25 598.52 C 304.00 598.47 291.75 598.52 279.50 598.50 C 279.45 585.24 279.58 571.98 279.44 558.73 C 266.30 558.78 253.15 558.73 240.01 558.76 C 239.98 482.51 240.01 406.25 240.00 330.00 C 252.42 329.99 264.83 330.01 277.24 329.99 C 277.25 318.00 277.25 306.01 277.24 294.02 C 289.32 293.98 301.41 294.01 313.49 294.00 C 313.49 282.01 313.52 270.03 313.48 258.04 Z" />
</g>
</svg>
