<?xml version="1.0" encoding="UTF-8" ?>
<!DOCTYPE svg PUBLIC "-//W3C//DTD SVG 1.1//EN" "http://www.w3.org/Graphics/SVG/1.1/DTD/svg11.dtd">
<svg width="1154pt" height="1154pt" viewBox="0 0 1154 1154" version="1.1" xmlns="http://www.w3.org/2000/svg">
<g id="#bef202ff">
<path fill="#bef202" opacity="1.00" d=" M 567.66 0.00 L 586.21 0.00 C 668.08 1.40 749.71 20.04 823.68 55.28 C 888.76 86.03 947.89 129.21 997.22 181.61 C 1058.87 247.09 1105.14 327.07 1130.44 413.42 C 1145.36 463.42 1152.95 515.50 1154.00 567.64 L 1154.00 586.25 C 1152.61 668.17 1133.90 749.81 1098.68 823.83 C 1068.87 886.72 1027.56 944.13 977.42 992.41 C 923.55 1044.43 859.45 1085.83 789.84 1113.47 C 724.59 1139.45 654.52 1153.06 584.31 1154.00 L 567.71 1154.00 C 486.84 1152.59 406.19 1134.41 332.95 1099.95 C 232.44 1053.19 146.18 976.61 87.49 882.59 C 45.02 814.82 16.96 738.08 5.78 658.89 C 2.20 633.87 0.42 608.63 0.00 583.38 L 0.00 567.78 C 0.65 541.23 2.67 514.71 6.76 488.46 C 17.78 416.67 42.63 347.05 79.55 284.49 C 114.89 224.52 161.16 171.02 215.39 127.36 C 270.92 82.67 334.74 48.24 402.74 26.81 C 456.01 9.85 511.79 1.09 567.66 0.00 M 313.00 258.00 C 312.99 270.00 313.01 282.00 313.00 294.00 C 301.00 294.01 289.00 293.99 277.00 294.00 C 276.99 306.00 277.01 318.00 277.00 330.00 C 264.66 330.01 252.33 329.99 240.00 330.00 C 240.00 406.34 240.00 482.67 240.00 559.00 C 253.00 559.01 266.00 558.99 279.00 559.00 C 279.01 572.33 278.99 585.66 279.00 599.00 C 291.33 599.01 303.66 598.99 316.00 599.00 C 316.01 611.33 315.99 623.66 316.00 636.00 C 327.67 636.01 339.33 635.99 351.00 636.00 C 351.01 648.33 350.99 660.66 351.00 673.00 C 364.33 673.01 377.66 672.99 391.00 673.00 C 391.01 684.67 390.99 696.33 391.00 708.00 C 404.00 708.01 417.00 707.99 430.00 708.00 C 430.01 721.33 429.99 734.66 430.00 748.00 C 442.67 748.01 455.33 747.99 468.00 748.00 C 468.01 759.67 467.99 771.33 468.00 783.00 C 479.67 783.01 491.33 782.99 503.00 783.00 C 503.01 796.33 502.99 809.66 503.00 823.00 C 514.00 823.01 525.00 822.99 536.00 823.00 C 536.01 835.67 535.99 848.33 536.00 861.00 C 561.33 861.01 586.66 860.99 612.00 861.00 C 612.01 873.00 611.99 885.00 612.00 897.00 C 688.33 897.00 764.66 897.00 841.00 897.00 C 841.01 884.33 840.99 871.67 841.00 859.00 C 853.00 858.99 865.00 859.01 877.00 859.00 C 877.01 845.66 876.99 832.33 877.00 819.00 C 889.33 818.99 901.66 819.01 914.00 819.00 C 914.00 793.66 914.00 768.33 914.00 743.00 C 901.66 742.99 889.33 743.01 877.00 743.00 C 876.99 731.00 877.01 719.00 877.00 707.00 C 865.00 706.99 853.00 707.01 841.00 707.00 C 840.99 695.33 841.01 683.67 841.00 672.00 C 814.00 672.00 787.00 672.00 760.00 672.00 C 759.99 684.67 760.01 697.33 760.00 710.00 C 748.00 710.01 736.00 709.99 724.00 710.00 C 723.99 722.00 724.01 734.00 724.00 746.00 C 700.66 746.00 677.33 746.00 654.00 746.00 C 653.99 732.66 654.01 719.33 654.00 706.00 C 642.00 705.99 630.00 706.01 618.00 706.00 C 617.99 693.66 618.01 681.33 618.00 669.00 C 605.33 668.99 592.67 669.01 580.00 669.00 C 579.99 657.33 580.01 645.67 580.00 634.00 C 566.66 633.99 553.33 634.01 540.00 634.00 C 539.99 620.66 540.01 607.33 540.00 594.00 C 528.00 593.99 516.00 594.01 504.00 594.00 C 503.99 582.00 504.01 570.00 504.00 558.00 C 491.33 557.99 478.67 558.01 466.00 558.00 C 466.00 533.00 466.00 508.00 466.00 483.00 C 478.33 482.99 490.66 483.01 503.00 483.00 C 503.00 445.33 503.00 407.67 503.00 370.00 C 490.66 369.99 478.33 370.01 466.00 370.00 C 465.99 357.66 466.01 345.33 466.00 333.00 C 454.00 332.99 442.00 333.01 430.00 333.00 C 429.99 320.33 430.01 307.67 430.00 295.00 C 417.00 294.99 404.00 295.01 391.00 295.00 C 390.99 282.66 391.01 270.33 391.00 258.00 C 365.00 258.00 339.00 258.00 313.00 258.00 Z" />
</g>
<g id="#ffffffff">
<path fill="#ffffff" opacity="1.00" d=" M 313.00 258.00 C 339.00 258.00 365.00 258.00 391.00 258.00 C 391.01 270.33 390.99 282.66 391.00 295.00 C 404.00 295.01 417.00 294.99 430.00 295.00 C 430.01 307.67 429.99 320.33 430.00 333.00 C 442.00 333.01 454.00 332.99 466.00 333.00 C 466.01 345.33 465.99 357.66 466.00 370.00 C 478.33 370.01 490.66 369.99 503.00 370.00 C 503.00 407.67 503.00 445.33 503.00 483.00 C 490.66 483.01 478.33 482.99 466.00 483.00 C 466.00 508.00 466.00 533.00 466.00 558.00 C 478.67 558.01 491.33 557.99 504.00 558.00 C 504.01 570.00 503.99 582.00 504.00 594.00 C 516.00 594.01 528.00 593.99 540.00 594.00 C 540.01 607.33 539.99 620.66 540.00 634.00 C 553.33 634.01 566.66 633.99 580.00 634.00 C 580.01 645.67 579.99 657.33 580.00 669.00 C 592.67 669.01 605.33 668.99 618.00 669.00 C 618.01 681.33 617.99 693.66 618.00 706.00 C 630.00 706.01 642.00 705.99 654.00 706.00 C 654.01 719.33 653.99 732.66 654.00 746.00 C 677.33 746.00 700.66 746.00 724.00 746.00 C 724.01 734.00 723.99 722.00 724.00 710.00 C 736.00 709.99 748.00 710.01 760.00 710.00 C 760.01 697.33 759.99 684.67 760.00 672.00 C 787.00 672.00 814.00 672.00 841.00 672.00 C 841.01 683.67 840.99 695.33 841.00 707.00 C 853.00 707.01 865.00 706.99 877.00 707.00 C 877.01 719.00 876.99 731.00 877.00 743.00 C 889.33 743.01 901.66 742.99 914.00 743.00 C 914.00 768.33 914.00 793.66 914.00 819.00 C 901.66 819.01 889.33 818.99 877.00 819.00 C 876.99 832.33 877.01 845.66 877.00 859.00 C 865.00 859.01 853.00 858.99 841.00 859.00 C 840.99 871.67 841.01 884.33 841.00 897.00 C 764.66 897.00 688.33 897.00 612.00 897.00 C 611.99 885.00 612.01 873.00 612.00 861.00 C 586.66 860.99 561.33 861.01 536.00 861.00 C 535.99 848.33 536.01 835.67 536.00 823.00 C 525.00 822.99 514.00 823.01 503.00 823.00 C 502.99 809.66 503.01 796.33 503.00 783.00 C 491.33 782.99 479.67 783.01 468.00 783.00 C 467.99 771.33 468.01 759.67 468.00 748.00 C 455.33 747.99 442.67 748.01 430.00 748.00 C 429.99 734.66 430.01 721.33 430.00 708.00 C 417.00 707.99 404.00 708.01 391.00 708.00 C 390.99 696.33 391.01 684.67 391.00 673.00 C 377.66 672.99 364.33 673.01 351.00 673.00 C 350.99 660.66 351.01 648.33 351.00 636.00 C 339.33 635.99 327.67 636.01 316.00 636.00 C 315.99 623.66 316.01 611.33 316.00 599.00 C 303.66 598.99 291.33 599.01 279.00 599.00 C 278.99 585.66 279.01 572.33 279.00 559.00 C 266.00 558.99 253.00 559.01 240.00 559.00 C 240.00 482.67 240.00 406.34 240.00 330.00 C 252.33 329.99 264.66 330.01 277.00 330.00 C 277.01 318.00 276.99 306.00 277.00 294.00 C 289.00 293.99 301.00 294.01 313.00 294.00 C 313.01 282.00 312.99 270.00 313.00 258.00 Z" />
</g>
</svg>
