<?xml version="1.0" standalone="no"?>
<!DOCTYPE svg PUBLIC "-//W3C//DTD SVG 20010904//EN"
 "http://www.w3.org/TR/2001/REC-SVG-20010904/DTD/svg10.dtd">
<svg version="1.0" xmlns="http://www.w3.org/2000/svg"
 width="674.000000pt" height="639.000000pt" viewBox="0 0 674.000000 639.000000"
 preserveAspectRatio="xMidYMid meet">
<metadata>
Created by potrace 1.11, written by Peter Selinger 2001-2013
</metadata>
<g transform="translate(0.000000,639.000000) scale(0.100000,-0.100000)"
fill="#000000" stroke="none">
<path d="M730 6210 l0 -180 -180 0 -180 0 0 -180 0 -180 -185 0 -185 0 0
-1145 0 -1145 195 0 195 0 2 -197 3 -198 183 -3 182 -2 0 -180 0 -180 180 0
180 0 0 -190 0 -190 195 0 195 0 0 -175 0 -175 200 0 200 0 0 -200 0 -200 185
0 185 0 0 -175 0 -175 180 0 180 0 0 -200 0 -200 160 0 160 0 0 -185 0 -185
380 0 380 0 0 -185 0 -185 1145 0 1145 0 0 190 0 190 178 2 177 3 3 203 2 202
185 0 185 0 0 370 0 370 -185 0 -185 0 -2 183 -3 182 -177 3 -178 2 0 170 0
170 -400 0 -400 0 0 -185 0 -185 -183 -2 -182 -3 -3 -182 -2 -183 -350 0 -350
0 0 205 0 205 -185 0 -185 0 0 185 0 185 -185 0 -185 0 0 175 0 175 -200 0
-200 0 0 200 0 200 -180 0 -180 0 0 180 0 180 -190 0 -190 0 0 375 0 375 185
0 185 0 0 565 0 565 -185 0 -185 0 0 185 0 185 -185 0 -185 0 0 190 0 190
-190 0 -190 0 0 185 0 185 -390 0 -390 0 0 -180z"/>
</g>
</svg>
