<?xml version="1.0" encoding="UTF-8" ?>
<!DOCTYPE svg PUBLIC "-//W3C//DTD SVG 1.1//EN" "http://www.w3.org/Graphics/SVG/1.1/DTD/svg11.dtd">
<svg width="1154pt" height="1154pt" viewBox="0 0 1154 1154" version="1.1" xmlns="http://www.w3.org/2000/svg">
<g id="#bef202ff">
<path fill="#bef202" opacity="1.00" d=" M 567.43 0.00 L 586.53 0.00 C 667.29 1.45 747.81 19.61 820.95 54.00 C 884.37 83.53 942.20 124.89 990.95 175.05 C 1055.40 241.38 1103.81 323.32 1130.03 412.05 C 1145.27 462.69 1153.03 515.48 1154.00 568.33 L 1154.00 586.53 C 1152.59 666.56 1134.69 746.32 1100.97 818.95 C 1071.00 883.73 1028.88 942.85 977.47 992.36 C 925.35 1042.71 863.65 1083.10 796.65 1110.71 C 729.54 1138.44 657.13 1153.00 584.55 1154.00 L 567.46 1154.00 C 485.72 1152.54 404.23 1133.92 330.37 1098.75 C 232.05 1052.37 147.52 977.45 89.39 885.61 C 46.06 817.40 17.38 739.96 5.93 659.96 C 2.26 634.67 0.44 609.14 0.00 583.60 L 0.00 567.44 C 0.68 540.51 2.76 513.60 6.99 486.99 C 18.08 415.96 42.72 347.08 79.18 285.12 C 114.46 225.08 160.68 171.50 214.88 127.77 C 270.53 82.88 334.54 48.30 402.76 26.81 C 455.95 9.86 511.64 1.12 567.43 0.00 M 313.47 258.05 C 313.53 270.03 313.49 282.02 313.49 294.00 C 301.41 294.01 289.32 293.98 277.24 294.02 C 277.26 306.01 277.25 318.00 277.24 329.99 C 264.83 330.01 252.42 329.99 240.00 330.00 C 240.00 406.25 239.99 482.51 240.01 558.76 C 253.17 558.75 266.32 558.76 279.48 558.75 C 279.53 572.00 279.48 585.25 279.51 598.50 C 291.76 598.54 304.01 598.42 316.27 598.55 C 316.22 610.78 316.26 623.01 316.25 635.24 C 328.08 635.27 339.91 635.24 351.75 635.25 C 351.75 647.75 351.73 660.25 351.76 672.75 C 364.92 672.88 378.09 672.47 391.24 672.99 C 391.25 684.65 391.25 696.32 391.24 707.98 C 404.41 708.03 417.58 707.97 430.75 708.01 C 430.76 721.26 430.71 734.51 430.78 747.76 C 443.26 747.74 455.75 747.75 468.24 747.76 C 468.25 759.50 468.25 771.24 468.24 782.99 C 480.08 783.03 491.92 782.97 503.76 783.02 C 503.74 796.26 503.74 809.51 503.76 822.75 C 514.59 822.75 525.41 822.74 536.24 822.76 C 536.37 835.29 536.01 847.83 536.42 860.35 C 561.60 860.12 586.79 860.33 611.98 860.24 C 612.03 872.49 611.98 884.74 612.00 897.00 C 688.26 896.99 764.51 897.02 840.76 896.98 C 840.74 884.16 840.76 871.34 840.75 858.52 C 852.66 858.47 864.58 858.52 876.50 858.50 C 876.50 845.08 876.50 831.67 876.50 818.26 C 889.00 818.24 901.49 818.26 913.99 818.25 C 914.00 793.42 914.00 768.58 913.99 743.75 C 901.52 743.77 889.04 743.70 876.57 743.79 C 876.40 731.69 876.55 719.60 876.50 707.50 C 864.50 707.49 852.50 707.51 840.51 707.49 C 840.48 695.91 840.52 684.33 840.48 672.75 C 813.91 672.75 787.33 672.74 760.76 672.75 C 760.74 685.25 760.75 697.74 760.75 710.24 C 748.66 710.27 736.58 710.23 724.50 710.26 C 724.55 722.37 724.39 734.49 724.58 746.61 C 701.07 746.94 677.54 746.64 654.01 746.76 C 653.94 733.32 654.10 719.89 653.93 706.46 C 641.70 706.52 629.46 706.54 617.23 706.45 C 617.25 694.04 617.31 681.63 617.20 669.22 C 604.72 669.27 592.24 669.24 579.76 669.24 C 579.75 657.50 579.75 645.75 579.76 634.01 C 566.51 633.98 553.25 634.01 540.00 634.00 C 539.99 620.74 540.02 607.49 539.99 594.24 C 527.91 594.25 515.83 594.25 503.76 594.24 C 503.75 582.17 503.74 570.09 503.76 558.02 C 491.01 557.97 478.26 558.01 465.51 558.00 C 465.50 532.83 465.49 507.67 465.51 482.51 C 477.97 482.53 490.44 482.43 502.91 482.55 C 503.11 445.12 502.97 407.67 502.98 370.24 C 490.49 370.27 478.01 370.23 465.53 370.25 C 465.46 357.83 465.53 345.42 465.49 333.00 C 453.41 332.99 441.33 333.02 429.25 332.99 C 429.26 320.50 429.25 308.01 429.26 295.52 C 416.34 295.47 403.42 295.52 390.51 295.49 C 390.55 283.04 390.39 270.59 390.59 258.14 C 364.89 257.85 339.17 258.03 313.47 258.05 Z" />
</g>
<g id="#000000ff">
<path fill="#000000" opacity="1.00" d=" M 313.47 258.05 C 339.17 258.03 364.89 257.85 390.59 258.14 C 390.39 270.59 390.55 283.04 390.51 295.49 C 403.42 295.52 416.34 295.47 429.26 295.52 C 429.25 308.01 429.26 320.50 429.25 332.99 C 441.33 333.02 453.41 332.99 465.49 333.00 C 465.53 345.42 465.46 357.83 465.53 370.25 C 478.01 370.23 490.49 370.27 502.98 370.24 C 502.97 407.67 503.11 445.12 502.91 482.55 C 490.44 482.43 477.97 482.53 465.51 482.51 C 465.49 507.67 465.50 532.83 465.51 558.00 C 478.26 558.01 491.01 557.97 503.76 558.02 C 503.74 570.09 503.75 582.17 503.76 594.24 C 515.83 594.25 527.91 594.25 539.99 594.24 C 540.02 607.49 539.99 620.74 540.00 634.00 C 553.25 634.01 566.51 633.98 579.76 634.01 C 579.75 645.75 579.75 657.50 579.76 669.24 C 592.24 669.24 604.72 669.27 617.20 669.22 C 617.31 681.63 617.25 694.04 617.23 706.45 C 629.46 706.54 641.70 706.52 653.93 706.46 C 654.10 719.89 653.94 733.32 654.01 746.76 C 677.54 746.64 701.07 746.94 724.58 746.61 C 724.39 734.49 724.55 722.37 724.50 710.26 C 736.58 710.23 748.66 710.27 760.75 710.24 C 760.75 697.74 760.74 685.25 760.76 672.75 C 787.33 672.74 813.91 672.75 840.48 672.75 C 840.52 684.33 840.48 695.91 840.51 707.49 C 852.50 707.51 864.50 707.49 876.50 707.50 C 876.55 719.60 876.40 731.69 876.57 743.79 C 889.04 743.70 901.52 743.77 913.99 743.75 C 914.00 768.58 914.00 793.42 913.99 818.25 C 901.49 818.26 889.00 818.24 876.50 818.26 C 876.50 831.67 876.50 845.08 876.50 858.50 C 864.58 858.52 852.66 858.47 840.75 858.52 C 840.76 871.34 840.74 884.16 840.76 896.98 C 764.51 897.02 688.26 896.99 612.00 897.00 C 611.98 884.74 612.03 872.49 611.98 860.24 C 586.79 860.33 561.60 860.12 536.42 860.35 C 536.01 847.83 536.37 835.29 536.24 822.76 C 525.41 822.74 514.59 822.75 503.76 822.75 C 503.74 809.51 503.74 796.26 503.76 783.02 C 491.92 782.97 480.08 783.03 468.24 782.99 C 468.25 771.24 468.25 759.50 468.24 747.76 C 455.75 747.75 443.26 747.74 430.78 747.76 C 430.71 734.51 430.76 721.26 430.75 708.01 C 417.58 707.97 404.41 708.03 391.24 707.98 C 391.25 696.32 391.25 684.65 391.24 672.99 C 378.09 672.47 364.92 672.88 351.76 672.75 C 351.73 660.25 351.75 647.75 351.75 635.25 C 339.91 635.24 328.08 635.27 316.25 635.24 C 316.26 623.01 316.22 610.78 316.27 598.55 C 304.01 598.42 291.76 598.54 279.51 598.50 C 279.48 585.25 279.53 572.00 279.48 558.75 C 266.32 558.76 253.17 558.75 240.01 558.76 C 239.99 482.51 240.00 406.25 240.00 330.00 C 252.42 329.99 264.83 330.01 277.24 329.99 C 277.25 318.00 277.26 306.01 277.24 294.02 C 289.32 293.98 301.41 294.01 313.49 294.00 C 313.49 282.02 313.53 270.03 313.47 258.05 Z" />
</g>
</svg>
