<?xml version="1.0" encoding="UTF-8" ?>
<!DOCTYPE svg PUBLIC "-//W3C//DTD SVG 1.1//EN" "http://www.w3.org/Graphics/SVG/1.1/DTD/svg11.dtd">
<svg width="674pt" height="639pt" viewBox="0 0 674 639" version="1.1" xmlns="http://www.w3.org/2000/svg">
<g id="#000000ff">
<path fill="#000000" opacity="1.00" d=" M 73.49 0.00 L 150.49 0.00 C 150.52 12.50 150.49 25.00 150.50 37.49 C 163.42 37.54 176.33 37.43 189.25 37.55 C 189.25 50.02 189.26 62.50 189.24 74.98 C 201.34 75.06 213.43 74.92 225.53 75.05 C 225.48 87.45 225.50 99.85 225.51 112.24 C 238.00 112.25 250.49 112.25 262.98 112.24 C 263.00 149.66 263.03 187.09 262.97 224.51 C 250.48 224.49 237.99 224.50 225.50 224.50 C 225.51 249.67 225.49 274.83 225.51 300.00 C 238.26 300.02 251.01 299.97 263.76 300.02 C 263.76 312.09 263.74 324.17 263.77 336.24 C 275.84 336.25 287.91 336.25 299.98 336.24 C 300.03 349.49 299.98 362.74 300.00 375.99 C 313.26 376.02 326.51 375.97 339.76 376.02 C 339.75 387.76 339.74 399.50 339.76 411.24 C 352.25 411.26 364.74 411.23 377.23 411.25 C 377.32 423.54 377.16 435.84 377.30 448.13 L 377.66 448.46 C 389.76 448.55 401.87 448.47 413.97 448.49 C 414.05 461.91 413.96 475.33 414.02 488.76 C 437.49 488.76 460.97 488.71 484.44 488.78 C 484.57 476.61 484.46 464.44 484.50 452.27 C 496.59 452.20 508.67 452.29 520.76 452.22 C 520.75 439.73 520.74 427.25 520.76 414.76 C 547.33 414.74 573.90 414.76 600.47 414.75 C 600.54 426.33 600.48 437.91 600.50 449.49 C 612.50 449.51 624.50 449.48 636.49 449.51 C 636.53 461.60 636.45 473.68 636.53 485.77 C 649.02 485.72 661.51 485.76 674.00 485.75 L 674.00 560.26 C 661.50 560.24 649.01 560.26 636.52 560.24 C 636.47 573.66 636.53 587.07 636.49 600.49 C 624.57 600.53 612.66 600.47 600.75 600.52 C 600.75 613.34 600.75 626.17 600.76 639.00 L 372.00 639.00 C 371.99 626.75 372.02 614.50 371.99 602.24 C 346.74 602.25 321.49 602.27 296.25 602.24 C 296.23 589.74 296.27 577.25 296.23 564.76 C 285.46 564.79 274.68 564.66 263.91 564.83 C 263.54 551.57 263.85 538.28 263.75 525.02 C 251.92 524.97 240.08 525.03 228.24 524.98 C 228.25 513.24 228.25 501.50 228.24 489.77 C 215.75 489.73 203.26 489.77 190.77 489.75 C 190.72 476.50 190.76 463.26 190.76 450.02 C 177.58 449.96 164.41 450.04 151.24 449.98 C 151.25 438.32 151.25 426.65 151.24 414.99 C 138.10 414.48 124.93 414.87 111.78 414.76 C 111.70 402.26 111.78 389.76 111.74 377.25 C 99.91 377.23 88.08 377.27 76.25 377.24 C 76.25 365.02 76.24 352.80 76.26 340.58 C 64.01 340.40 51.75 340.56 39.50 340.50 C 39.43 327.24 39.62 313.98 39.41 300.73 C 26.27 300.78 13.14 300.73 0.00 300.76 L 0.00 72.00 C 12.41 71.99 24.83 72.01 37.24 71.99 C 37.25 60.00 37.25 48.01 37.24 36.02 C 49.32 35.98 61.41 36.01 73.49 36.00 C 73.51 24.00 73.50 12.00 73.49 0.00 Z" />
</g>
</svg>
