<?xml version="1.0" encoding="UTF-8" ?>
<!DOCTYPE svg PUBLIC "-//W3C//DTD SVG 1.1//EN" "http://www.w3.org/Graphics/SVG/1.1/DTD/svg11.dtd">
<svg width="1154pt" height="1154pt" viewBox="0 0 1154 1154" version="1.1" xmlns="http://www.w3.org/2000/svg">
<g id="#bef202ff">
<path fill="#bef202" opacity="1.00" d=" M 567.64 0.00 L 586.30 0.00 C 666.40 1.40 746.27 19.24 818.94 53.06 C 882.93 82.57 941.31 124.08 990.47 174.56 C 1055.15 240.97 1103.73 323.08 1130.02 412.02 C 1145.27 462.69 1153.04 515.51 1154.00 568.39 L 1154.00 586.34 C 1152.60 667.95 1134.02 749.28 1099.04 823.07 C 1069.11 886.46 1027.49 944.30 976.94 992.87 C 923.46 1044.39 859.95 1085.45 790.99 1113.01 C 725.44 1139.28 655.01 1153.04 584.42 1154.00 L 559.52 1154.00 C 534.22 1152.66 508.90 1150.74 483.90 1146.49 C 403.42 1133.57 325.87 1103.04 258.05 1057.86 C 213.46 1028.27 173.03 992.43 138.27 951.74 C 91.67 897.29 55.30 834.09 31.81 766.38 C 11.36 707.64 0.77 645.58 0.00 583.40 L 0.00 568.45 C 0.62 540.19 2.89 511.96 7.46 484.06 C 18.80 413.79 43.41 345.71 79.59 284.42 C 115.76 223.07 163.37 168.49 219.23 124.30 C 276.40 79.06 342.17 44.70 412.07 23.93 C 462.51 8.86 515.02 1.03 567.64 0.00 M 444.51 257.00 C 444.48 270.42 444.53 283.83 444.48 297.25 C 419.07 297.25 393.66 297.24 368.25 297.25 C 368.24 309.33 368.26 321.41 368.24 333.49 C 355.41 333.52 342.58 333.47 329.75 333.52 C 329.75 346.01 329.73 358.49 329.76 370.98 C 317.33 371.05 304.91 370.94 292.48 371.04 C 292.48 383.95 292.58 396.87 292.43 409.79 C 279.62 409.70 266.81 409.77 254.01 409.75 C 253.99 422.25 254.01 434.75 254.00 447.24 C 241.83 447.25 229.67 447.25 217.52 447.24 C 217.49 459.81 217.48 472.38 217.52 484.95 C 205.27 485.06 193.01 484.96 180.75 485.01 C 180.74 497.75 180.75 510.49 180.74 523.24 C 168.50 523.25 156.26 523.25 144.02 523.24 C 143.98 548.49 144.01 573.74 144.00 599.00 C 156.67 599.01 169.33 598.99 182.00 599.00 C 182.02 610.92 181.98 622.84 182.02 634.76 C 193.84 634.74 205.67 634.75 217.49 634.76 C 217.52 709.92 217.48 785.08 217.51 860.23 C 230.99 860.69 244.49 860.32 257.98 860.43 C 258.03 872.62 257.98 884.81 258.00 897.00 C 333.33 897.00 408.67 897.00 484.00 897.00 C 484.02 884.74 483.97 872.49 484.02 860.24 C 496.09 860.26 508.17 860.26 520.25 860.24 C 520.26 786.25 520.25 712.25 520.25 638.25 C 557.99 638.24 595.73 638.27 633.47 638.24 C 633.49 712.46 633.58 786.67 633.43 860.89 C 645.79 861.16 658.15 860.89 670.51 861.03 C 670.48 872.59 670.52 884.16 670.49 895.73 C 745.16 895.78 819.83 895.75 894.50 895.74 C 894.49 883.92 894.51 872.10 894.49 860.28 C 907.07 860.21 919.66 860.28 932.24 860.25 C 932.25 786.50 932.26 712.76 932.24 639.02 C 945.16 638.97 958.08 639.02 971.00 639.00 C 971.02 627.08 970.97 615.16 971.02 603.24 C 983.68 603.26 996.33 603.25 1008.99 603.25 C 1008.99 576.58 1009.02 549.91 1008.98 523.24 C 996.57 523.26 984.16 523.25 971.76 523.24 C 971.75 510.50 971.74 497.76 971.76 485.02 C 958.36 484.92 944.96 485.13 931.57 484.91 C 931.41 472.69 931.54 460.47 931.50 448.26 C 919.44 448.26 907.39 448.20 895.34 448.29 C 895.13 435.78 895.32 423.27 895.25 410.76 C 882.33 410.74 869.42 410.74 856.52 410.75 C 856.48 397.92 856.51 385.09 856.50 372.26 C 844.17 372.23 831.84 372.25 819.52 372.25 C 819.47 359.75 819.52 347.25 819.49 334.75 C 806.67 334.75 793.84 334.74 781.02 334.76 C 780.96 322.59 781.03 310.41 780.99 298.24 C 756.58 298.25 732.17 298.25 707.76 298.24 C 707.75 284.50 707.75 270.76 707.76 257.02 C 620.01 256.98 532.26 257.01 444.51 257.00 Z" />
</g>
<g id="#000000ff">
<path fill="#000000" opacity="1.00" d=" M 444.51 257.00 C 532.26 257.01 620.01 256.98 707.76 257.02 C 707.75 270.76 707.75 284.50 707.76 298.24 C 732.17 298.25 756.58 298.25 780.99 298.24 C 781.03 310.41 780.96 322.59 781.02 334.76 C 793.84 334.74 806.67 334.75 819.49 334.75 C 819.52 347.25 819.47 359.75 819.52 372.25 C 831.84 372.25 844.17 372.23 856.50 372.26 C 856.51 385.09 856.48 397.92 856.52 410.75 C 869.42 410.74 882.33 410.74 895.25 410.76 C 895.32 423.27 895.13 435.78 895.34 448.29 C 907.39 448.20 919.44 448.26 931.50 448.26 C 931.54 460.47 931.41 472.69 931.57 484.91 C 944.96 485.13 958.36 484.92 971.76 485.02 C 971.74 497.76 971.75 510.50 971.76 523.24 C 984.16 523.25 996.57 523.26 1008.98 523.24 C 1009.02 549.91 1008.99 576.58 1008.99 603.25 C 996.33 603.25 983.68 603.26 971.02 603.24 C 970.97 615.16 971.02 627.08 971.00 639.00 C 958.08 639.02 945.16 638.97 932.24 639.02 C 932.26 712.76 932.25 786.50 932.24 860.25 C 919.66 860.28 907.07 860.21 894.49 860.28 C 894.51 872.10 894.49 883.92 894.50 895.74 C 819.83 895.75 745.16 895.78 670.49 895.73 C 670.52 884.16 670.48 872.59 670.51 861.03 C 658.15 860.89 645.79 861.16 633.43 860.89 C 633.58 786.67 633.49 712.46 633.47 638.24 C 595.73 638.27 557.99 638.24 520.25 638.25 C 520.25 712.25 520.26 786.25 520.25 860.24 C 508.17 860.26 496.09 860.26 484.02 860.24 C 483.97 872.49 484.02 884.74 484.00 897.00 C 408.67 897.00 333.33 897.00 258.00 897.00 C 257.98 884.81 258.03 872.62 257.98 860.43 C 244.49 860.32 230.99 860.69 217.51 860.23 C 217.48 785.08 217.52 709.92 217.49 634.76 C 205.67 634.75 193.84 634.74 182.02 634.76 C 181.98 622.84 182.02 610.92 182.00 599.00 C 169.33 598.99 156.67 599.01 144.00 599.00 C 144.01 573.74 143.98 548.49 144.02 523.24 C 156.26 523.25 168.50 523.25 180.74 523.24 C 180.75 510.49 180.74 497.75 180.75 485.01 C 193.01 484.96 205.27 485.06 217.52 484.95 C 217.48 472.38 217.49 459.81 217.52 447.24 C 229.67 447.25 241.83 447.25 254.00 447.24 C 254.01 434.75 253.99 422.25 254.01 409.75 C 266.81 409.77 279.62 409.70 292.43 409.79 C 292.58 396.87 292.48 383.95 292.48 371.04 C 304.91 370.94 317.33 371.05 329.76 370.98 C 329.73 358.49 329.75 346.01 329.75 333.52 C 342.58 333.47 355.41 333.52 368.24 333.49 C 368.26 321.41 368.24 309.33 368.25 297.25 C 393.66 297.24 419.07 297.25 444.48 297.25 C 444.53 283.83 444.48 270.42 444.51 257.00 Z" />
</g>
</svg>
