<?xml version="1.0" encoding="UTF-8" ?>
<!DOCTYPE svg PUBLIC "-//W3C//DTD SVG 1.1//EN" "http://www.w3.org/Graphics/SVG/1.1/DTD/svg11.dtd">
<svg width="1154pt" height="1154pt" viewBox="0 0 1154 1154" version="1.1" xmlns="http://www.w3.org/2000/svg">
<g id="#bef202ff">
<path fill="#bef202" opacity="1.00" d=" M 567.44 0.00 L 586.48 0.00 C 667.71 1.45 748.70 19.81 822.19 54.58 C 930.64 105.31 1022.36 190.84 1080.68 295.38 C 1120.92 366.90 1145.35 447.21 1152.02 528.99 C 1153.16 542.05 1153.58 555.16 1154.00 568.27 L 1154.00 586.56 C 1152.59 666.09 1134.91 745.34 1101.59 817.60 C 1071.58 882.93 1029.22 942.53 977.44 992.39 C 925.73 1042.33 864.59 1082.48 798.21 1110.07 C 730.67 1138.21 657.70 1152.99 584.56 1154.00 L 557.33 1154.00 C 533.10 1152.43 508.82 1150.73 484.86 1146.65 C 401.02 1133.33 320.32 1100.90 250.45 1052.72 C 202.57 1019.87 159.77 979.68 123.78 934.13 C 78.45 876.68 44.09 810.58 23.46 740.35 C 8.43 689.50 0.71 636.58 0.00 583.58 L 0.00 568.34 C 0.56 544.44 2.20 520.56 5.53 496.88 C 15.45 425.30 39.03 355.62 74.77 292.80 C 110.65 229.42 158.71 172.99 215.43 127.33 C 270.75 82.82 334.28 48.48 401.99 27.06 C 455.41 9.94 511.38 1.12 567.44 0.00 M 444.50 257.00 C 444.48 270.42 444.53 283.83 444.48 297.25 C 419.07 297.25 393.66 297.24 368.25 297.25 C 368.24 309.33 368.26 321.41 368.24 333.49 C 355.41 333.53 342.57 333.46 329.74 333.53 C 329.76 346.01 329.74 358.50 329.75 370.99 C 317.32 371.07 304.89 370.89 292.46 371.08 C 292.62 383.91 292.34 396.76 292.60 409.59 C 279.74 409.96 266.87 409.64 254.00 409.75 C 253.99 422.25 254.01 434.75 253.99 447.24 C 241.84 447.24 229.69 447.27 217.53 447.23 C 217.49 459.79 217.46 472.36 217.55 484.92 C 205.28 485.10 193.02 484.94 180.75 485.00 C 180.76 497.73 180.72 510.46 180.77 523.19 C 168.52 523.31 156.27 523.22 144.01 523.24 C 143.98 548.49 144.00 573.75 144.00 599.00 C 156.67 599.00 169.33 598.99 182.00 599.00 C 182.01 610.92 181.98 622.84 182.01 634.76 C 193.84 634.75 205.66 634.75 217.49 634.76 C 217.52 709.92 217.48 785.08 217.51 860.24 C 230.98 860.67 244.47 860.35 257.95 860.41 C 258.07 872.60 257.96 884.80 258.00 897.00 C 333.33 897.00 408.67 897.00 484.00 897.00 C 484.01 884.75 483.98 872.49 484.01 860.24 C 496.09 860.25 508.17 860.26 520.25 860.25 C 520.26 786.25 520.25 712.25 520.25 638.25 C 557.96 638.20 595.68 638.35 633.38 638.18 C 633.65 668.78 633.42 699.39 633.50 729.99 C 633.44 773.62 633.61 817.25 633.41 860.87 C 645.79 861.23 658.18 860.80 670.56 861.09 C 670.46 872.65 670.48 884.21 670.54 895.78 C 745.20 895.71 819.85 895.78 894.50 895.74 C 894.53 883.90 894.43 872.06 894.55 860.22 C 907.12 860.29 919.68 860.24 932.25 860.25 C 932.26 786.50 932.25 712.76 932.25 639.01 C 945.16 638.98 958.08 639.01 971.00 639.00 C 971.01 627.08 970.97 615.16 971.02 603.24 C 983.67 603.26 996.33 603.25 1008.99 603.25 C 1009.00 576.58 1009.01 549.91 1008.99 523.24 C 996.58 523.25 984.17 523.25 971.76 523.24 C 971.75 510.50 971.74 497.76 971.76 485.02 C 958.36 484.93 944.97 485.11 931.57 484.92 C 931.40 472.70 931.54 460.48 931.50 448.26 C 919.42 448.23 907.33 448.27 895.25 448.23 C 895.25 435.74 895.26 423.25 895.25 410.76 C 882.34 410.74 869.43 410.74 856.52 410.76 C 856.47 397.92 856.51 385.09 856.50 372.26 C 844.18 372.24 831.85 372.25 819.53 372.25 C 819.45 359.75 819.53 347.25 819.49 334.75 C 806.66 334.75 793.84 334.74 781.02 334.76 C 780.97 322.58 781.02 310.41 780.99 298.24 C 756.58 298.25 732.17 298.25 707.76 298.24 C 707.74 284.50 707.75 270.76 707.76 257.01 C 620.01 256.99 532.26 257.00 444.50 257.00 Z" />
</g>
<g id="#000000ff">
<path fill="#000000" opacity="1.00" d=" M 444.50 257.00 C 532.26 257.00 620.01 256.99 707.76 257.01 C 707.75 270.76 707.74 284.50 707.76 298.24 C 732.17 298.25 756.58 298.25 780.99 298.24 C 781.02 310.41 780.97 322.58 781.02 334.76 C 793.84 334.74 806.66 334.75 819.49 334.75 C 819.53 347.25 819.45 359.75 819.53 372.25 C 831.85 372.25 844.18 372.24 856.50 372.26 C 856.51 385.09 856.47 397.92 856.52 410.76 C 869.43 410.74 882.34 410.74 895.25 410.76 C 895.26 423.25 895.25 435.74 895.25 448.23 C 907.33 448.27 919.42 448.23 931.50 448.26 C 931.54 460.48 931.40 472.70 931.57 484.92 C 944.97 485.11 958.36 484.93 971.76 485.02 C 971.74 497.76 971.75 510.50 971.76 523.24 C 984.17 523.25 996.58 523.25 1008.99 523.24 C 1009.01 549.91 1009.00 576.58 1008.99 603.25 C 996.33 603.25 983.67 603.26 971.02 603.24 C 970.97 615.16 971.01 627.08 971.00 639.00 C 958.08 639.01 945.16 638.98 932.25 639.01 C 932.25 712.76 932.26 786.50 932.25 860.25 C 919.68 860.24 907.12 860.29 894.55 860.22 C 894.43 872.06 894.53 883.90 894.50 895.74 C 819.85 895.78 745.20 895.71 670.54 895.78 C 670.48 884.21 670.46 872.65 670.56 861.09 C 658.18 860.80 645.79 861.23 633.41 860.87 C 633.61 817.25 633.44 773.62 633.50 729.99 C 633.42 699.39 633.65 668.78 633.38 638.18 C 595.68 638.35 557.96 638.20 520.25 638.25 C 520.25 712.25 520.26 786.25 520.25 860.25 C 508.17 860.26 496.09 860.25 484.01 860.24 C 483.98 872.49 484.01 884.75 484.00 897.00 C 408.67 897.00 333.33 897.00 258.00 897.00 C 257.96 884.80 258.07 872.60 257.95 860.41 C 244.47 860.35 230.98 860.67 217.51 860.24 C 217.48 785.08 217.52 709.92 217.49 634.76 C 205.66 634.75 193.84 634.75 182.01 634.76 C 181.98 622.84 182.01 610.92 182.00 599.00 C 169.33 598.99 156.67 599.00 144.00 599.00 C 144.00 573.75 143.98 548.49 144.01 523.24 C 156.27 523.22 168.52 523.31 180.77 523.19 C 180.72 510.46 180.76 497.73 180.75 485.00 C 193.02 484.94 205.28 485.10 217.55 484.92 C 217.46 472.36 217.49 459.79 217.53 447.23 C 229.69 447.27 241.84 447.24 253.99 447.24 C 254.01 434.75 253.99 422.25 254.00 409.75 C 266.87 409.64 279.74 409.96 292.60 409.59 C 292.34 396.76 292.62 383.91 292.46 371.08 C 304.89 370.89 317.32 371.07 329.75 370.99 C 329.74 358.50 329.76 346.01 329.74 333.53 C 342.57 333.46 355.41 333.53 368.24 333.49 C 368.26 321.41 368.24 309.33 368.25 297.25 C 393.66 297.24 419.07 297.25 444.48 297.25 C 444.53 283.83 444.48 270.42 444.50 257.00 Z" />
</g>
</svg>
