<?xml version="1.0" encoding="UTF-8" ?>
<!DOCTYPE svg PUBLIC "-//W3C//DTD SVG 1.1//EN" "http://www.w3.org/Graphics/SVG/1.1/DTD/svg11.dtd">
<svg width="1154pt" height="1154pt" viewBox="0 0 1154 1154" version="1.1" xmlns="http://www.w3.org/2000/svg">
<g id="#bef202ff">
<path fill="#bef202" opacity="1.00" d=" M 564.57 0.00 L 588.43 0.00 C 631.43 1.11 674.35 6.49 716.11 16.89 C 792.09 35.65 864.08 70.25 926.28 117.73 C 1004.85 177.41 1067.71 257.56 1106.83 348.15 C 1123.17 385.94 1135.42 425.50 1143.31 465.91 C 1149.73 498.42 1152.97 531.48 1154.00 564.57 L 1154.00 586.46 C 1152.58 668.52 1133.78 750.29 1098.42 824.39 C 1066.81 890.92 1022.29 951.24 968.15 1001.17 C 912.36 1052.67 846.35 1093.08 775.01 1119.12 C 714.39 1141.34 649.99 1152.95 585.46 1154.00 L 564.58 1154.00 C 521.12 1152.78 477.75 1147.22 435.58 1136.53 C 351.92 1115.53 273.24 1075.22 207.13 1019.84 C 152.11 973.90 105.72 917.63 71.19 854.81 C 33.71 786.94 10.35 711.35 2.81 634.19 C 1.13 617.33 0.34 600.40 0.00 583.47 L 0.00 567.54 C 0.58 547.31 1.71 527.08 4.24 506.98 C 12.72 436.23 34.60 367.11 68.38 304.36 C 103.65 238.61 151.86 179.86 209.34 132.31 C 265.65 85.70 330.85 49.79 400.50 27.54 C 453.46 10.36 508.96 1.52 564.57 0.00 M 444.04 257.05 C 443.88 270.35 444.11 283.65 443.96 296.96 C 418.65 297.10 393.35 296.90 368.04 297.05 C 367.88 309.01 368.12 320.98 367.96 332.95 C 354.99 333.12 342.01 332.88 329.04 333.05 C 328.88 345.68 329.12 358.32 328.95 370.96 C 316.65 371.12 304.35 370.88 292.05 371.04 C 291.88 383.68 292.12 396.32 291.96 408.95 C 279.32 409.12 266.68 408.88 254.04 409.05 C 253.88 421.68 254.12 434.32 253.95 446.96 C 241.65 447.12 229.35 446.88 217.05 447.04 C 216.88 459.68 217.12 472.32 216.95 484.96 C 204.65 485.12 192.35 484.88 180.04 485.04 C 179.88 497.68 180.12 510.32 179.95 522.96 C 167.99 523.12 156.01 522.88 144.04 523.05 C 143.97 548.35 143.97 573.65 144.04 598.95 C 156.68 599.12 169.32 598.88 181.96 599.05 C 182.12 611.01 181.88 622.98 182.04 634.95 C 193.68 635.12 205.32 634.88 216.95 635.04 C 217.09 710.35 216.91 785.65 217.05 860.96 C 230.68 861.11 244.32 860.88 257.96 861.05 C 258.12 873.01 257.88 884.98 258.04 896.96 C 333.35 897.03 408.65 897.03 483.96 896.95 C 484.12 884.98 483.88 873.01 484.04 861.05 C 496.35 860.88 508.65 861.12 520.96 860.95 C 521.09 786.99 520.91 713.01 521.04 639.04 C 558.35 638.97 595.65 638.97 632.95 639.04 C 633.09 713.01 632.91 786.98 633.04 860.95 C 645.34 861.12 657.65 860.88 669.96 861.05 C 670.12 872.68 669.88 884.32 670.04 895.95 C 745.01 896.03 819.98 896.03 894.95 895.96 C 895.12 884.32 894.88 872.68 895.04 861.05 C 907.68 860.88 920.32 861.11 932.95 860.96 C 933.09 786.99 932.91 713.02 933.04 639.05 C 945.68 638.88 958.32 639.12 970.96 638.95 C 971.12 627.32 970.88 615.68 971.04 604.04 C 983.68 603.88 996.32 604.12 1008.96 603.96 C 1009.03 576.99 1009.03 550.01 1008.96 523.04 C 996.65 522.88 984.35 523.12 972.05 522.96 C 971.88 510.32 972.12 497.68 971.96 485.04 C 958.77 484.67 945.53 485.55 932.39 484.62 C 931.44 472.47 932.33 460.23 931.96 448.05 C 919.99 447.88 908.01 448.12 896.04 447.95 C 895.88 435.32 896.12 422.68 895.96 410.04 C 882.98 409.88 870.01 410.12 857.04 409.95 C 856.88 397.32 857.12 384.68 856.96 372.04 C 844.65 371.88 832.35 372.12 820.04 371.96 C 819.88 359.32 820.12 346.68 819.96 334.04 C 806.98 333.88 794.01 334.12 781.04 333.95 C 780.88 321.98 781.12 310.01 780.95 298.04 C 756.65 297.90 732.35 298.10 708.04 297.96 C 707.88 284.32 708.11 270.68 707.96 257.04 C 619.99 256.97 532.01 256.97 444.04 257.05 Z" />
</g>
<g id="#ffffffff">
<path fill="#ffffff" opacity="1.00" d=" M 444.04 257.05 C 532.01 256.97 619.99 256.97 707.96 257.04 C 708.11 270.68 707.88 284.32 708.04 297.96 C 732.35 298.10 756.65 297.90 780.95 298.04 C 781.12 310.01 780.88 321.98 781.04 333.95 C 794.01 334.12 806.98 333.88 819.96 334.04 C 820.12 346.68 819.88 359.32 820.04 371.96 C 832.35 372.12 844.65 371.88 856.96 372.04 C 857.12 384.68 856.88 397.32 857.04 409.95 C 870.01 410.12 882.98 409.88 895.96 410.04 C 896.12 422.68 895.88 435.32 896.04 447.95 C 908.01 448.12 919.99 447.88 931.96 448.05 C 932.33 460.23 931.44 472.47 932.39 484.62 C 945.53 485.55 958.77 484.67 971.96 485.04 C 972.12 497.68 971.88 510.32 972.05 522.96 C 984.35 523.12 996.65 522.88 1008.96 523.04 C 1009.03 550.01 1009.03 576.99 1008.96 603.96 C 996.32 604.12 983.68 603.88 971.04 604.04 C 970.88 615.68 971.12 627.32 970.96 638.95 C 958.32 639.12 945.68 638.88 933.04 639.05 C 932.91 713.02 933.09 786.99 932.95 860.96 C 920.32 861.11 907.68 860.88 895.04 861.05 C 894.88 872.68 895.12 884.32 894.95 895.96 C 819.98 896.03 745.01 896.03 670.04 895.95 C 669.88 884.32 670.12 872.68 669.96 861.05 C 657.65 860.88 645.34 861.12 633.04 860.95 C 632.91 786.98 633.09 713.01 632.95 639.04 C 595.65 638.97 558.35 638.97 521.04 639.04 C 520.91 713.01 521.09 786.99 520.96 860.95 C 508.65 861.12 496.35 860.88 484.04 861.05 C 483.88 873.01 484.12 884.98 483.96 896.95 C 408.65 897.03 333.35 897.03 258.04 896.96 C 257.88 884.98 258.12 873.01 257.96 861.05 C 244.32 860.88 230.68 861.11 217.05 860.96 C 216.91 785.65 217.09 710.35 216.95 635.04 C 205.32 634.88 193.68 635.12 182.04 634.95 C 181.88 622.98 182.12 611.01 181.96 599.05 C 169.32 598.88 156.68 599.12 144.04 598.95 C 143.97 573.65 143.97 548.35 144.04 523.05 C 156.01 522.88 167.99 523.12 179.95 522.96 C 180.12 510.32 179.88 497.68 180.04 485.04 C 192.35 484.88 204.65 485.12 216.95 484.96 C 217.12 472.32 216.88 459.68 217.05 447.04 C 229.35 446.88 241.65 447.12 253.95 446.96 C 254.12 434.32 253.88 421.68 254.04 409.05 C 266.68 408.88 279.32 409.12 291.96 408.95 C 292.12 396.32 291.88 383.68 292.05 371.04 C 304.35 370.88 316.65 371.12 328.95 370.96 C 329.12 358.32 328.88 345.68 329.04 333.05 C 342.01 332.88 354.99 333.12 367.96 332.95 C 368.12 320.98 367.88 309.01 368.04 297.05 C 393.35 296.90 418.65 297.10 443.96 296.96 C 444.11 283.65 443.88 270.35 444.04 257.05 Z" />
</g>
</svg>
