<?xml version="1.0" standalone="no"?>
<!DOCTYPE svg PUBLIC "-//W3C//DTD SVG 20010904//EN"
 "http://www.w3.org/TR/2001/REC-SVG-20010904/DTD/svg10.dtd">
<svg version="1.0" xmlns="http://www.w3.org/2000/svg"
 width="865.000000pt" height="640.000000pt" viewBox="0 0 865.000000 640.000000"
 preserveAspectRatio="xMidYMid meet">
<metadata>
Created by potrace 1.11, written by Peter Selinger 2001-2013
</metadata>
<g transform="translate(0.000000,640.000000) scale(0.100000,-0.100000)"
fill="#000000" stroke="none">
<path d="M3000 6200 l0 -200 -380 0 -380 0 0 -180 0 -180 -190 0 -190 0 0
-190 0 -190 -190 0 -190 0 0 -195 0 -195 -190 0 -190 0 0 -185 0 -185 -182 -2
-183 -3 -3 -187 -2 -188 -180 0 -180 0 0 -190 0 -190 -185 0 -185 0 0 -380 0
-380 190 0 190 0 0 -180 0 -180 175 0 175 0 0 -1125 0 -1125 205 0 205 0 0
-185 0 -185 1130 0 1130 0 0 185 0 185 180 0 180 0 0 1110 0 1110 565 0 565 0
0 -1115 0 -1115 185 0 185 0 2 -173 3 -172 1120 0 1120 0 3 178 2 177 185 0
185 0 0 1105 0 1105 195 0 195 0 0 180 0 180 190 0 190 0 0 400 0 400 -185 0
-185 0 0 190 0 190 -200 0 -200 0 -2 183 -3 182 -182 3 -183 2 0 185 0 185
-190 0 -190 0 -2 193 -3 192 -182 3 -183 2 0 185 0 185 -195 0 -195 0 0 185 0
185 -365 0 -365 0 0 205 0 205 -1320 0 -1320 0 0 -200z"/>
</g>
</svg>
