<?xml version="1.0" encoding="UTF-8" ?>
<!DOCTYPE svg PUBLIC "-//W3C//DTD SVG 1.1//EN" "http://www.w3.org/Graphics/SVG/1.1/DTD/svg11.dtd">
<svg width="865pt" height="640pt" viewBox="0 0 865 640" version="1.1" xmlns="http://www.w3.org/2000/svg">
<g id="#000000ff">
<path fill="#000000" opacity="1.00" d=" M 300.50 0.00 L 563.75 0.00 C 563.76 13.74 563.73 27.49 563.76 41.23 C 588.17 41.26 612.58 41.25 636.98 41.24 C 637.03 53.41 636.96 65.58 637.02 77.76 C 649.83 77.74 662.63 77.75 675.44 77.75 C 675.59 90.24 675.44 102.74 675.52 115.24 C 687.84 115.27 700.17 115.21 712.50 115.27 C 712.48 128.07 712.55 140.87 712.46 153.68 C 725.38 153.85 738.31 153.69 751.24 153.76 C 751.26 166.24 751.26 178.71 751.24 191.19 C 763.32 191.33 775.41 191.18 787.50 191.27 C 787.55 203.49 787.40 215.71 787.58 227.93 C 800.97 228.10 814.36 227.93 827.76 228.02 C 827.75 240.76 827.74 253.49 827.76 266.23 C 840.17 266.26 852.59 266.24 865.00 266.24 L 865.00 346.25 C 852.34 346.24 839.67 346.26 827.01 346.24 C 826.98 358.16 827.01 370.08 827.00 381.99 C 814.08 382.02 801.16 381.97 788.25 382.02 C 788.25 455.76 788.27 529.50 788.23 603.24 C 775.66 603.26 763.09 603.25 750.52 603.24 C 750.47 615.07 750.52 626.90 750.50 638.74 C 675.84 638.79 601.18 638.72 526.52 638.77 C 526.48 627.19 526.49 615.61 526.52 604.04 C 514.17 603.92 501.82 604.09 489.47 603.95 C 489.61 529.77 489.33 455.59 489.61 381.42 C 451.83 381.03 414.04 381.35 376.25 381.26 C 376.24 455.25 376.26 529.24 376.24 603.23 C 364.17 603.27 352.09 603.24 340.02 603.25 C 339.98 615.50 340.01 627.75 340.00 640.00 L 114.00 640.00 C 113.98 627.81 114.04 615.62 113.97 603.43 C 101.98 603.46 89.98 603.40 77.99 603.46 C 76.45 603.47 74.93 603.27 73.42 603.04 C 73.59 527.95 73.47 452.85 73.48 377.76 C 61.66 377.74 49.84 377.75 38.02 377.76 C 37.97 365.84 38.02 353.92 37.99 342.00 C 25.33 341.99 12.66 342.00 0.00 342.00 L 0.00 266.25 C 12.25 266.22 24.51 266.28 36.76 266.22 C 36.74 253.48 36.74 240.74 36.76 228.01 C 49.01 227.95 61.27 228.09 73.53 227.93 C 73.48 215.36 73.46 202.79 73.54 190.22 C 85.69 190.28 97.84 190.24 109.99 190.24 C 110.02 177.75 109.98 165.25 110.01 152.75 C 122.86 152.66 135.73 152.93 148.58 152.62 C 148.38 139.76 148.56 126.89 148.49 114.03 C 160.91 113.95 173.33 114.04 185.75 113.99 C 185.72 101.53 185.80 89.07 185.71 76.61 C 198.55 76.33 211.40 76.61 224.24 76.47 C 224.26 64.40 224.23 52.33 224.25 40.25 C 249.66 40.24 275.07 40.25 300.48 40.24 C 300.53 26.83 300.48 13.41 300.50 0.00 Z" />
</g>
</svg>
