<?xml version="1.0" standalone="no"?>
<!DOCTYPE svg PUBLIC "-//W3C//DTD SVG 20010904//EN"
 "http://www.w3.org/TR/2001/REC-SVG-20010904/DTD/svg10.dtd">
<svg version="1.0" xmlns="http://www.w3.org/2000/svg"
 width="222.000000pt" height="375.000000pt" viewBox="0 0 222.000000 375.000000"
 preserveAspectRatio="xMidYMid meet">
<metadata>
Created by potrace 1.11, written by Peter Selinger 2001-2013
</metadata>
<g transform="translate(0.000000,375.000000) scale(0.100000,-0.100000)"
fill="#000000" stroke="none">
<path d="M0 2250 l0 -1500 190 0 190 0 0 185 0 185 180 0 180 0 0 -180 0 -180
180 0 180 0 0 -380 0 -380 375 0 375 0 0 385 0 385 -185 0 -185 0 0 365 0 365
370 0 370 0 0 190 0 190 -180 0 -180 0 0 180 0 180 -185 0 -185 0 0 190 0 190
-185 0 -185 0 0 190 0 190 -185 0 -185 0 0 185 0 185 -185 0 -185 0 0 190 0
190 -190 0 -190 0 0 -1500z"/>
</g>
</svg>
