<?xml version="1.0" encoding="UTF-8" ?>
<!DOCTYPE svg PUBLIC "-//W3C//DTD SVG 1.1//EN" "http://www.w3.org/Graphics/SVG/1.1/DTD/svg11.dtd">
<svg width="1154pt" height="1154pt" viewBox="0 0 1154 1154" version="1.1" xmlns="http://www.w3.org/2000/svg">
<g id="#bef202ff">
<path fill="#bef202" opacity="1.00" d=" M 567.39 0.00 L 586.54 0.00 C 667.82 1.46 748.87 19.86 822.39 54.68 C 887.21 85.09 946.17 127.85 995.47 179.76 C 1057.85 245.43 1104.69 325.88 1130.26 412.81 C 1145.35 463.20 1153.02 515.70 1154.00 568.26 L 1154.00 586.65 C 1152.56 667.43 1134.31 747.93 1099.97 821.10 C 1070.07 885.04 1028.31 943.40 977.47 992.36 C 923.67 1044.33 859.65 1085.70 790.14 1113.35 C 724.89 1139.38 654.83 1153.01 584.61 1154.00 L 567.37 1154.00 C 482.12 1152.50 397.20 1132.20 320.85 1094.16 C 217.20 1042.86 129.68 959.65 73.34 858.64 C 33.88 788.54 9.63 709.99 2.40 629.88 C 0.99 614.50 0.33 599.07 0.00 583.63 L 0.00 568.35 C 0.57 543.99 2.27 519.65 5.72 495.52 C 15.40 426.86 37.65 359.98 71.15 299.26 C 106.03 235.80 153.02 179.03 208.75 132.80 C 265.84 85.41 332.11 49.06 402.90 26.76 C 456.03 9.85 511.67 1.12 567.39 0.00 M 466.00 390.00 C 466.00 490.00 466.00 590.00 466.00 689.99 C 478.67 690.00 491.33 690.00 503.99 690.00 C 504.01 677.66 503.99 665.33 504.01 653.00 C 516.00 653.00 528.00 653.00 539.99 653.00 C 540.01 665.00 539.99 677.00 540.00 689.00 C 552.00 689.01 564.00 688.99 576.00 689.00 C 576.01 714.33 575.99 739.66 576.00 764.99 C 601.00 765.00 626.00 765.00 650.99 765.00 C 651.00 739.33 651.00 713.67 651.00 688.00 C 638.66 687.99 626.33 688.01 614.00 688.00 C 614.00 664.00 614.00 640.00 614.00 616.01 C 638.67 615.99 663.33 616.01 688.00 615.99 C 688.00 602.66 688.00 589.33 688.00 576.01 C 676.33 575.99 664.67 576.01 653.00 575.99 C 652.99 564.00 653.01 552.00 653.00 540.01 C 640.33 539.99 627.67 540.01 615.01 540.00 C 614.99 527.67 615.01 515.33 615.00 503.00 C 602.66 502.99 590.33 503.01 578.00 502.99 C 577.99 490.33 578.01 477.67 578.00 465.00 C 565.66 464.99 553.33 465.01 541.00 465.00 C 540.99 452.66 541.01 440.33 540.99 428.00 C 528.66 427.99 516.33 428.01 504.01 428.00 C 503.99 415.33 504.01 402.67 504.00 390.00 C 491.33 390.00 478.67 390.00 466.00 390.00 Z" />
</g>
<g id="#ffffffff">
<path fill="#ffffff" opacity="1.00" d=" M 466.00 390.00 C 478.67 390.00 491.33 390.00 504.00 390.00 C 504.01 402.67 503.99 415.33 504.01 428.00 C 516.33 428.01 528.66 427.99 540.99 428.00 C 541.01 440.33 540.99 452.66 541.00 465.00 C 553.33 465.01 565.66 464.99 578.00 465.00 C 578.01 477.67 577.99 490.33 578.00 502.99 C 590.33 503.01 602.66 502.99 615.00 503.00 C 615.01 515.33 614.99 527.67 615.01 540.00 C 627.67 540.01 640.33 539.99 653.00 540.01 C 653.01 552.00 652.99 564.00 653.00 575.99 C 664.67 576.01 676.33 575.99 688.00 576.01 C 688.00 589.33 688.00 602.66 688.00 615.99 C 663.33 616.01 638.67 615.99 614.00 616.01 C 614.00 640.00 614.00 664.00 614.00 688.00 C 626.33 688.01 638.66 687.99 651.00 688.00 C 651.00 713.67 651.00 739.33 650.99 765.00 C 626.00 765.00 601.00 765.00 576.00 764.99 C 575.99 739.66 576.01 714.33 576.00 689.00 C 564.00 688.99 552.00 689.01 540.00 689.00 C 539.99 677.00 540.01 665.00 539.99 653.00 C 528.00 653.00 516.00 653.00 504.01 653.00 C 503.99 665.33 504.01 677.66 503.99 690.00 C 491.33 690.00 478.67 690.00 466.00 689.99 C 466.00 590.00 466.00 490.00 466.00 390.00 Z" />
</g>
</svg>
