<?xml version="1.0" encoding="UTF-8" ?>
<!DOCTYPE svg PUBLIC "-//W3C//DTD SVG 1.1//EN" "http://www.w3.org/Graphics/SVG/1.1/DTD/svg11.dtd">
<svg width="222pt" height="375pt" viewBox="0 0 222 375" version="1.1" xmlns="http://www.w3.org/2000/svg">
<g id="#000000ff">
<path fill="#000000" opacity="1.00" d=" M 0.00 0.00 L 38.00 0.00 C 38.00 12.66 37.99 25.33 38.01 37.99 C 50.18 38.04 62.35 37.94 74.52 38.04 C 74.49 50.52 74.49 63.01 74.51 75.49 C 86.97 75.48 99.43 75.57 111.88 75.44 C 112.16 88.03 111.91 100.64 112.01 113.24 C 124.25 113.27 136.50 113.23 148.74 113.26 C 148.78 125.75 148.72 138.25 148.77 150.74 C 161.26 150.77 173.75 150.72 186.24 150.76 C 186.28 162.76 186.23 174.75 186.26 186.74 C 198.17 186.76 210.09 186.74 222.00 186.75 L 222.00 225.25 C 197.34 225.25 172.68 225.25 148.02 225.25 C 147.98 249.50 148.00 273.75 148.01 297.99 C 160.26 298.02 172.51 297.97 184.76 298.02 C 184.75 323.68 184.76 349.34 184.75 375.00 L 110.25 375.00 C 110.24 349.67 110.26 324.34 110.24 299.01 C 98.32 298.96 86.40 299.07 74.48 298.95 C 74.51 286.89 74.51 274.83 74.48 262.76 C 62.32 262.74 50.17 262.75 38.01 262.76 C 37.97 275.09 38.03 287.42 37.98 299.76 C 25.32 299.75 12.66 299.75 0.00 299.75 L 0.00 0.00 Z" />
</g>
</svg>
