<?xml version="1.0" encoding="UTF-8" ?>
<!DOCTYPE svg PUBLIC "-//W3C//DTD SVG 1.1//EN" "http://www.w3.org/Graphics/SVG/1.1/DTD/svg11.dtd">
<svg width="1154pt" height="1154pt" viewBox="0 0 1154 1154" version="1.1" xmlns="http://www.w3.org/2000/svg">
<g id="#bef202ff">
<path fill="#bef202" opacity="1.00" d=" M 567.37 0.00 L 586.53 0.00 C 668.81 1.46 750.81 20.33 825.05 55.92 C 890.25 86.96 949.45 130.46 998.73 183.23 C 1059.62 248.39 1105.33 327.75 1130.42 413.37 C 1145.41 463.60 1153.03 515.93 1154.00 568.32 L 1154.00 586.61 C 1152.54 669.36 1133.41 751.81 1097.46 826.40 C 1066.33 891.28 1022.88 950.20 970.23 999.25 C 916.13 1049.66 852.30 1089.62 783.22 1116.05 C 719.94 1140.34 652.34 1153.04 584.60 1154.00 L 567.42 1154.00 C 486.42 1152.54 405.66 1134.27 332.35 1099.67 C 231.43 1052.57 144.92 975.39 86.32 880.71 C 41.51 808.58 12.96 726.40 3.66 641.98 C 1.37 622.60 0.41 603.10 0.00 583.60 L 0.00 567.46 C 0.60 545.55 1.98 523.64 4.85 501.90 C 14.05 430.99 36.63 361.82 71.18 299.21 C 106.17 235.55 153.34 178.65 209.29 132.34 C 264.40 86.73 328.02 51.35 396.00 29.00 C 451.20 10.64 509.24 1.16 567.37 0.00 M 466.00 390.00 C 466.02 489.93 465.96 589.85 466.03 689.77 C 478.68 689.73 491.33 689.75 503.98 689.76 C 504.02 677.42 503.98 665.09 504.00 652.76 C 516.17 652.75 528.33 652.75 540.49 652.76 C 540.48 664.81 540.55 676.86 540.45 688.91 C 552.38 689.11 564.31 688.94 576.24 689.00 C 576.25 714.33 576.26 739.65 576.24 764.98 C 601.08 765.01 625.92 765.01 650.76 764.98 C 650.74 739.33 650.75 713.67 650.76 688.02 C 638.51 687.97 626.26 688.02 614.00 688.00 C 614.01 663.74 613.97 639.49 614.02 615.24 C 638.68 615.27 663.34 615.25 687.99 615.25 C 688.00 602.41 688.00 589.58 687.99 576.75 C 676.08 576.74 664.17 576.75 652.25 576.75 C 652.24 564.75 652.26 552.75 652.24 540.75 C 639.79 540.77 627.34 540.67 614.88 540.81 C 614.57 528.29 614.84 515.77 614.75 503.25 C 602.50 503.24 590.25 503.25 578.01 503.24 C 577.92 490.64 578.14 478.04 577.90 465.44 C 565.43 465.57 552.97 465.47 540.51 465.49 C 540.51 453.01 540.46 440.54 540.54 428.06 C 528.36 427.92 516.18 428.04 504.00 428.00 C 503.99 415.33 504.00 402.67 504.00 390.00 C 491.33 390.00 478.67 390.00 466.00 390.00 Z" />
</g>
<g id="#000000ff">
<path fill="#000000" opacity="1.00" d=" M 466.00 390.00 C 478.67 390.00 491.33 390.00 504.00 390.00 C 504.00 402.67 503.99 415.33 504.00 428.00 C 516.18 428.04 528.36 427.92 540.54 428.06 C 540.46 440.54 540.51 453.01 540.51 465.49 C 552.97 465.47 565.43 465.57 577.90 465.44 C 578.14 478.04 577.92 490.64 578.01 503.24 C 590.25 503.25 602.50 503.24 614.75 503.25 C 614.84 515.77 614.57 528.29 614.88 540.81 C 627.34 540.67 639.79 540.77 652.24 540.75 C 652.26 552.75 652.24 564.75 652.25 576.75 C 664.17 576.75 676.08 576.74 687.99 576.75 C 688.00 589.58 688.00 602.41 687.99 615.25 C 663.34 615.25 638.68 615.27 614.02 615.24 C 613.97 639.49 614.01 663.74 614.00 688.00 C 626.26 688.02 638.51 687.97 650.76 688.02 C 650.75 713.67 650.74 739.33 650.76 764.98 C 625.92 765.01 601.08 765.01 576.24 764.98 C 576.26 739.65 576.25 714.33 576.24 689.00 C 564.31 688.94 552.38 689.11 540.45 688.91 C 540.55 676.86 540.48 664.81 540.49 652.76 C 528.33 652.75 516.17 652.75 504.00 652.76 C 503.98 665.09 504.02 677.42 503.98 689.76 C 491.33 689.75 478.68 689.73 466.03 689.77 C 465.96 589.85 466.02 489.93 466.00 390.00 Z" />
</g>
</svg>
