<?xml version="1.0" encoding="UTF-8" ?>
<!DOCTYPE svg PUBLIC "-//W3C//DTD SVG 1.1//EN" "http://www.w3.org/Graphics/SVG/1.1/DTD/svg11.dtd">
<svg width="1154pt" height="1154pt" viewBox="0 0 1154 1154" version="1.1" xmlns="http://www.w3.org/2000/svg">
<g id="#bef202ff">
<path fill="#bef202" opacity="1.00" d=" M 567.47 0.00 L 586.42 0.00 C 669.22 1.44 751.74 20.56 826.37 56.54 C 890.38 87.24 948.57 129.92 997.21 181.60 C 1058.86 247.07 1105.13 327.04 1130.42 413.37 C 1145.41 463.61 1153.04 515.95 1154.00 568.35 L 1154.00 586.50 C 1152.58 667.80 1134.12 748.82 1099.37 822.37 C 1068.54 887.93 1025.18 947.53 972.43 997.19 C 919.32 1047.20 856.69 1087.09 788.82 1113.87 C 723.91 1139.57 654.28 1153.03 584.50 1154.00 L 567.55 1154.00 C 486.54 1152.56 405.76 1134.30 332.44 1099.71 C 233.70 1053.64 148.73 978.80 90.22 886.92 C 49.00 822.39 20.88 749.56 8.14 674.06 C 3.03 644.16 0.49 613.86 0.00 583.54 L 0.00 567.53 C 0.67 540.87 2.71 514.22 6.85 487.86 C 17.46 419.41 40.56 352.91 74.82 292.71 C 109.29 231.86 154.97 177.41 208.79 132.76 C 265.82 85.43 332.01 49.12 402.70 26.83 C 455.92 9.87 511.65 1.11 567.47 0.00 M 466.00 390.00 C 466.01 489.92 465.98 589.84 466.01 689.76 C 478.67 689.75 491.33 689.75 503.99 689.76 C 504.02 677.42 503.98 665.09 504.01 652.76 C 516.17 652.75 528.33 652.74 540.49 652.76 C 540.52 664.84 540.47 676.92 540.51 689.00 C 552.42 689.00 564.33 688.99 576.24 689.01 C 576.25 714.33 576.25 739.66 576.24 764.99 C 601.08 765.01 625.92 765.01 650.76 764.99 C 650.75 739.33 650.75 713.67 650.76 688.01 C 638.50 687.98 626.25 688.01 614.00 688.00 C 614.01 663.75 613.98 639.50 614.01 615.25 C 638.67 615.26 663.33 615.25 687.99 615.25 C 688.00 602.42 688.00 589.58 687.99 576.75 C 676.08 576.74 664.17 576.75 652.25 576.74 C 652.24 564.75 652.26 552.75 652.25 540.76 C 639.75 540.73 627.26 540.75 614.76 540.75 C 614.73 528.25 614.77 515.75 614.75 503.25 C 602.50 503.24 590.25 503.26 578.01 503.24 C 577.93 490.65 578.12 478.05 577.91 465.45 C 565.44 465.56 552.97 465.48 540.51 465.49 C 540.46 452.99 540.56 440.49 540.46 427.99 C 528.31 428.02 516.15 428.00 504.00 428.00 C 503.99 415.33 504.01 402.67 504.00 390.00 C 491.33 390.00 478.67 390.00 466.00 390.00 Z" />
</g>
<g id="#000000ff">
<path fill="#000000" opacity="1.00" d=" M 466.00 390.00 C 478.67 390.00 491.33 390.00 504.00 390.00 C 504.01 402.67 503.99 415.33 504.00 428.00 C 516.15 428.00 528.31 428.02 540.46 427.99 C 540.56 440.49 540.46 452.99 540.51 465.49 C 552.97 465.48 565.44 465.56 577.91 465.45 C 578.12 478.05 577.93 490.65 578.01 503.24 C 590.25 503.26 602.50 503.24 614.75 503.25 C 614.77 515.75 614.73 528.25 614.76 540.75 C 627.26 540.75 639.75 540.73 652.25 540.76 C 652.26 552.75 652.24 564.75 652.25 576.74 C 664.17 576.75 676.08 576.74 687.99 576.75 C 688.00 589.58 688.00 602.42 687.99 615.25 C 663.33 615.25 638.67 615.26 614.01 615.25 C 613.98 639.50 614.01 663.75 614.00 688.00 C 626.25 688.01 638.50 687.98 650.76 688.01 C 650.75 713.67 650.75 739.33 650.76 764.99 C 625.92 765.01 601.08 765.01 576.24 764.99 C 576.25 739.66 576.25 714.33 576.24 689.01 C 564.33 688.99 552.42 689.00 540.51 689.00 C 540.47 676.92 540.52 664.84 540.49 652.76 C 528.33 652.74 516.17 652.75 504.01 652.76 C 503.98 665.09 504.02 677.42 503.99 689.76 C 491.33 689.75 478.67 689.75 466.01 689.76 C 465.98 589.84 466.01 489.92 466.00 390.00 Z" />
</g>
</svg>
