<?xml version="1.0" encoding="UTF-8" ?>
<!DOCTYPE svg PUBLIC "-//W3C//DTD SVG 1.1//EN" "http://www.w3.org/Graphics/SVG/1.1/DTD/svg11.dtd">
<svg width="573pt" height="421pt" viewBox="0 0 573 421" version="1.1" xmlns="http://www.w3.org/2000/svg">
<g id="#000000ff">
<path fill="#000000" opacity="1.00" d=" M 447.06 0.00 L 496.93 0.00 C 496.94 8.25 496.90 16.50 496.95 24.75 C 505.31 24.73 513.67 24.74 522.04 24.74 C 522.04 32.93 522.11 41.12 521.99 49.31 C 530.56 49.03 539.15 49.24 547.73 49.18 C 547.70 66.53 547.78 83.89 547.69 101.24 C 539.38 101.23 531.08 101.29 522.78 101.20 C 522.77 109.23 522.82 117.27 522.75 125.31 C 514.43 125.33 506.11 125.30 497.79 125.32 C 497.77 133.52 497.79 141.73 497.78 149.94 C 481.12 149.90 464.45 150.02 447.78 149.87 C 447.79 141.43 447.78 132.98 447.80 124.54 C 464.38 124.46 480.97 124.48 497.56 124.53 C 497.49 116.26 497.52 107.99 497.54 99.72 C 505.79 99.71 514.04 99.68 522.29 99.74 C 522.31 83.22 522.27 66.70 522.31 50.18 C 514.02 50.32 505.72 50.05 497.43 50.34 C 496.92 42.01 497.29 33.65 497.25 25.31 C 480.75 25.23 464.25 25.42 447.76 25.22 C 447.63 33.43 447.74 41.63 447.70 49.84 C 439.80 49.84 431.90 49.84 424.01 49.84 C 423.99 66.17 424.01 82.50 424.00 98.84 C 432.20 98.70 440.40 98.82 448.60 98.76 C 448.75 107.17 448.63 115.59 448.67 124.01 C 440.31 124.08 431.95 124.05 423.60 124.03 C 423.60 116.25 423.59 108.46 423.61 100.67 C 415.23 100.61 406.85 100.83 398.47 100.56 C 398.70 83.37 398.50 66.17 398.58 48.97 C 406.54 48.96 414.51 48.95 422.47 48.99 C 422.49 40.77 422.47 32.54 422.48 24.32 C 430.67 24.33 438.85 24.32 447.04 24.33 C 447.08 16.22 447.04 8.11 447.06 0.00 Z" />
<path fill="#000000" opacity="1.00" d=" M 74.38 1.36 C 91.05 0.96 107.73 1.37 124.40 1.15 C 124.61 9.52 124.43 17.89 124.49 26.26 C 132.87 26.17 141.24 26.25 149.62 26.22 C 149.62 34.39 149.60 42.57 149.63 50.74 C 158.07 50.60 166.52 50.71 174.97 50.68 C 174.98 67.94 174.94 85.20 174.99 102.45 C 166.72 102.48 158.45 102.47 150.18 102.46 C 150.24 110.46 150.19 118.46 150.22 126.47 C 141.90 126.64 133.58 126.53 125.27 126.53 C 125.36 134.81 125.29 143.08 125.31 151.36 C 108.68 151.41 92.04 151.27 75.41 151.43 C 75.22 142.80 75.32 134.16 75.37 125.53 C 67.25 125.54 59.13 125.51 51.02 125.55 C 50.98 117.66 51.02 109.78 50.99 101.89 C 42.61 101.86 34.23 101.97 25.84 101.83 C 25.84 84.64 25.78 67.45 25.87 50.25 C 33.86 50.17 41.84 50.24 49.83 50.22 C 49.81 42.08 49.83 33.95 49.82 25.81 C 58.05 25.75 66.28 25.76 74.51 25.81 C 74.40 17.66 74.62 9.50 74.38 1.36 M 74.96 26.67 C 74.94 34.78 74.93 42.89 74.97 51.00 C 67.09 51.01 59.21 50.98 51.33 51.01 C 51.30 67.37 51.48 83.73 51.24 100.08 C 59.53 100.43 67.84 100.09 76.14 100.26 C 76.26 107.51 76.13 114.77 76.22 122.03 C 76.26 123.44 76.02 124.81 75.51 126.13 C 92.03 126.10 108.55 126.17 125.07 126.09 C 125.11 117.81 125.07 109.53 125.09 101.25 C 133.25 101.27 141.41 101.23 149.57 101.28 C 149.61 84.63 149.49 67.99 149.63 51.35 C 141.22 51.47 132.80 51.37 124.39 51.41 C 124.39 43.14 124.35 34.88 124.42 26.62 C 107.93 26.74 91.45 26.62 74.96 26.67 Z" />
<path fill="#000000" opacity="1.00" d=" M 247.71 73.50 C 272.97 73.38 298.23 73.47 323.49 73.45 C 323.47 81.62 323.49 89.78 323.48 97.95 C 331.47 98.13 339.47 98.01 347.46 98.01 C 347.50 106.49 347.47 114.97 347.47 123.45 C 339.11 123.47 330.75 123.44 322.40 123.47 C 322.38 115.28 322.38 107.08 322.40 98.89 C 297.90 98.89 273.39 98.88 248.89 98.89 C 248.88 106.87 248.89 114.84 248.89 122.81 C 240.55 122.83 232.22 122.79 223.89 122.83 C 223.79 114.43 223.97 106.02 223.79 97.62 C 231.73 97.42 239.68 97.43 247.62 97.64 C 247.88 89.60 247.68 81.54 247.71 73.50 Z" />
<path fill="#000000" opacity="1.00" d=" M 198.12 122.78 C 206.52 122.83 214.92 122.78 223.32 122.81 C 223.42 147.52 223.35 172.22 223.35 196.92 C 231.64 196.86 239.94 196.88 248.23 196.90 C 248.21 205.35 248.26 213.80 248.20 222.25 C 239.83 222.30 231.46 222.27 223.09 222.27 C 223.13 214.39 223.10 206.51 223.11 198.63 C 214.75 198.58 206.39 198.61 198.02 198.62 C 198.05 173.34 197.86 148.06 198.12 122.78 Z" />
<path fill="#000000" opacity="1.00" d=" M 347.51 123.61 C 355.93 123.14 364.39 123.54 372.83 123.41 C 372.81 148.62 372.86 173.83 372.81 199.04 C 364.50 198.97 356.19 198.99 347.89 198.98 C 347.87 206.88 347.89 214.77 347.88 222.67 C 339.66 222.64 331.44 222.73 323.23 222.62 C 323.34 231.06 323.24 239.50 323.29 247.95 C 297.98 248.06 272.67 247.99 247.36 247.98 C 247.44 239.70 247.28 231.42 247.43 223.14 L 247.81 222.73 C 272.76 222.57 297.73 222.60 322.68 222.71 C 322.51 214.28 322.67 205.84 322.59 197.40 C 330.91 197.32 339.24 197.36 347.56 197.38 C 347.52 172.79 347.63 148.20 347.51 123.61 Z" />
<path fill="#000000" opacity="1.00" d=" M 51.43 173.02 C 84.62 172.98 117.81 173.01 151.00 173.00 C 151.01 180.78 150.99 188.56 151.01 196.34 C 158.99 196.34 166.97 196.34 174.96 196.34 C 174.97 204.64 174.95 212.95 174.97 221.26 C 183.59 221.26 192.21 221.25 200.83 221.26 C 200.85 238.58 200.82 255.90 200.85 273.23 C 192.32 273.24 183.79 273.26 175.27 273.21 C 175.30 281.59 175.30 289.96 175.27 298.34 C 125.10 298.35 74.93 298.36 24.75 298.33 C 24.72 289.96 24.72 281.59 24.76 273.21 C 16.50 273.27 8.25 273.23 0.00 273.24 L 0.00 221.25 C 8.84 221.26 17.68 221.24 26.53 221.27 C 26.55 213.26 26.52 205.26 26.54 197.25 C 34.84 197.24 43.14 197.25 51.44 197.25 C 51.45 189.17 51.46 181.09 51.43 173.02 Z" />
<path fill="#000000" opacity="1.00" d=" M 424.11 173.00 C 457.31 173.00 490.50 172.99 523.69 173.01 C 523.67 180.79 523.69 188.56 523.68 196.34 C 531.63 196.34 539.58 196.34 547.54 196.34 C 547.55 204.63 547.50 212.92 547.56 221.21 C 556.04 221.31 564.52 221.23 573.00 221.26 L 573.00 273.24 C 565.07 273.23 557.14 273.26 549.21 273.21 C 549.26 281.26 549.24 289.31 549.23 297.37 C 499.04 297.37 448.85 297.37 398.67 297.37 C 398.67 289.31 398.64 281.26 398.69 273.21 C 389.99 273.26 381.29 273.24 372.59 273.23 C 372.60 255.90 372.57 238.57 372.60 221.24 C 381.48 221.26 390.36 221.27 399.24 221.24 C 399.28 213.24 399.24 205.24 399.26 197.25 C 407.54 197.24 415.83 197.26 424.11 197.24 C 424.13 189.16 424.12 181.08 424.11 173.00 Z" />
<path fill="#000000" opacity="1.00" d=" M 223.75 272.73 C 265.24 272.74 306.73 272.70 348.23 272.75 C 348.26 280.72 348.25 288.70 348.23 296.68 C 356.68 296.59 365.15 296.80 373.61 296.56 C 373.93 304.40 373.64 312.25 373.75 320.10 C 381.93 320.10 390.11 320.11 398.29 320.09 C 398.29 328.73 398.34 337.37 398.26 346.01 C 406.44 346.02 414.61 346.00 422.79 346.01 C 422.80 362.93 422.79 379.85 422.80 396.77 C 414.64 396.85 406.48 396.59 398.33 396.96 C 398.26 404.97 398.31 412.98 398.30 421.00 L 174.11 421.00 C 174.11 412.92 174.13 404.85 174.10 396.77 C 165.97 396.75 157.83 396.82 149.70 396.74 C 149.69 379.85 149.71 362.96 149.69 346.07 C 157.83 345.94 165.97 346.06 174.11 346.00 C 174.12 337.37 174.11 328.73 174.12 320.11 C 182.56 320.09 191.00 320.11 199.44 320.10 C 199.49 312.14 199.45 304.19 199.46 296.23 C 207.56 296.22 215.66 296.23 223.77 296.23 C 223.70 288.39 223.72 280.56 223.75 272.73 Z" />
</g>
</svg>
