<?xml version="1.0" encoding="UTF-8" ?>
<!DOCTYPE svg PUBLIC "-//W3C//DTD SVG 1.1//EN" "http://www.w3.org/Graphics/SVG/1.1/DTD/svg11.dtd">
<svg width="1154pt" height="1154pt" viewBox="0 0 1154 1154" version="1.1" xmlns="http://www.w3.org/2000/svg">
<g id="#bef202ff">
<path fill="#bef202" opacity="1.00" d=" M 564.53 0.00 L 588.47 0.00 C 631.48 1.12 674.41 6.49 716.18 16.91 C 790.74 35.33 861.45 69.02 922.87 115.13 C 1004.02 175.88 1068.78 258.31 1108.34 351.67 C 1124.88 390.64 1137.09 431.46 1144.67 473.11 C 1150.23 503.28 1153.02 533.89 1154.00 564.53 L 1154.00 586.49 C 1152.56 669.28 1133.43 751.78 1097.45 826.40 C 1065.92 892.14 1021.74 951.74 968.15 1001.17 C 912.75 1052.31 847.27 1092.52 776.51 1118.57 C 715.46 1141.14 650.55 1152.94 585.49 1154.00 L 564.54 1154.00 C 521.36 1152.78 478.27 1147.29 436.37 1136.73 C 352.42 1115.79 273.45 1075.39 207.13 1019.84 C 152.48 974.20 106.34 918.39 71.90 856.07 C 34.31 788.41 10.76 713.02 3.00 636.02 C 1.18 618.57 0.37 601.03 0.00 583.50 L 0.00 564.54 C 0.77 547.31 1.49 530.06 3.56 512.92 C 11.47 440.35 33.50 369.34 68.03 305.02 C 101.42 242.57 146.49 186.41 200.09 140.13 C 258.86 89.36 327.94 50.50 402.01 27.05 C 454.50 10.20 509.46 1.51 564.53 0.00 M 774.03 319.04 C 773.90 328.68 774.10 338.32 773.97 347.96 C 763.65 348.10 753.34 347.90 743.04 348.03 C 742.94 358.26 743.01 368.48 743.04 378.71 C 737.46 377.35 731.67 378.23 726.00 378.00 C 721.68 378.16 717.12 377.27 713.05 379.16 C 712.90 398.78 713.09 418.40 712.96 438.02 C 712.94 439.89 713.10 441.77 713.37 443.63 C 723.53 444.53 733.77 443.69 743.96 444.04 C 744.10 453.34 743.89 462.65 744.03 471.96 C 754.26 472.06 764.48 471.99 774.71 471.97 C 773.73 475.56 773.98 479.31 773.99 483.00 C 774.05 489.98 773.92 496.97 774.03 503.96 C 795.34 504.03 816.65 504.02 837.96 503.96 C 838.08 497.64 837.94 491.32 838.01 485.00 C 838.01 481.31 838.26 477.56 837.29 473.96 C 847.52 473.99 857.74 474.06 867.97 473.96 C 868.05 464.07 867.99 454.18 867.96 444.29 C 871.56 445.26 875.31 445.01 879.00 445.01 C 885.65 444.94 892.31 445.08 898.96 444.96 C 899.02 422.99 899.03 401.01 898.96 379.04 C 888.32 378.90 877.67 379.10 867.03 378.96 C 866.90 368.65 867.10 358.34 866.96 348.03 C 856.65 347.90 846.34 348.10 836.04 347.96 C 835.90 338.32 836.10 328.68 835.97 319.04 C 815.32 318.97 794.68 318.98 774.03 319.04 M 315.03 320.04 C 314.90 329.68 315.10 339.32 314.96 348.96 C 305.10 349.31 295.20 348.47 285.37 349.37 C 284.64 354.22 285.11 359.13 285.01 364.00 C 285.19 369.34 284.40 374.79 285.71 380.03 C 275.48 380.01 265.26 379.94 255.04 380.04 C 254.97 401.68 254.97 423.32 255.04 444.97 C 265.68 445.10 276.32 444.90 286.96 445.04 C 287.10 454.68 286.90 464.32 287.04 473.96 C 297.01 474.10 306.99 473.90 316.96 474.03 C 317.10 484.68 316.90 495.32 317.04 505.97 C 338.01 506.02 358.99 506.03 379.96 505.96 C 380.10 495.99 379.90 486.01 380.03 476.04 C 390.23 475.69 400.47 476.53 410.63 475.63 C 411.39 470.45 410.86 465.21 410.99 460.00 C 410.89 455.32 411.48 450.55 410.29 445.96 C 420.52 445.99 430.74 446.06 440.97 445.96 C 441.02 423.99 441.03 402.01 440.96 380.03 C 430.65 379.90 420.34 380.10 410.04 379.96 C 409.90 369.99 410.10 360.01 409.97 350.04 C 399.66 349.89 389.34 350.10 379.04 349.96 C 378.90 339.99 379.10 330.01 378.96 320.03 C 357.65 319.97 336.34 319.97 315.03 320.04 M 528.03 408.04 C 527.90 418.01 528.10 427.99 527.96 437.97 C 517.99 438.10 508.01 437.90 498.04 438.04 C 497.91 444.36 498.05 450.68 497.99 457.00 C 497.98 460.68 497.74 464.43 498.70 468.03 C 488.48 468.01 478.26 467.94 468.04 468.03 C 467.97 500.01 467.98 531.99 468.03 563.96 C 478.01 564.10 487.99 563.90 497.97 564.04 C 498.10 573.68 497.90 583.32 498.03 592.96 C 508.01 593.10 517.99 592.90 527.96 593.04 C 528.10 603.34 527.90 613.65 528.03 623.96 C 560.01 624.03 591.99 624.02 623.96 623.96 C 624.10 613.65 623.90 603.34 624.04 593.04 C 633.68 592.90 643.32 593.10 652.96 592.96 C 653.10 583.32 652.90 573.68 653.04 564.04 C 663.34 563.90 673.65 564.10 683.97 563.96 C 684.02 532.32 684.03 500.68 683.96 469.04 C 673.65 468.90 663.34 469.10 653.03 468.96 C 652.90 458.99 653.10 449.01 652.97 439.04 C 643.08 438.94 633.19 439.01 623.30 439.03 C 624.26 435.43 624.01 431.68 624.01 428.00 C 623.94 421.34 624.08 414.69 623.97 408.04 C 591.99 407.97 560.01 407.97 528.03 408.04 M 287.03 531.04 C 286.90 540.68 287.10 550.32 286.96 559.96 C 276.66 560.10 266.34 559.90 256.04 560.04 C 255.92 566.35 256.05 572.68 255.99 579.00 C 255.98 582.68 255.74 586.43 256.71 590.04 C 246.15 590.01 235.59 589.94 225.04 590.04 C 224.97 612.01 224.98 633.99 225.03 655.96 C 234.68 656.10 244.32 655.90 253.97 656.04 C 254.10 666.34 253.90 676.65 254.04 686.96 C 316.68 687.02 379.32 687.02 441.97 686.96 C 442.10 676.65 441.90 666.34 442.04 656.04 C 452.23 655.69 462.47 656.53 472.63 655.63 C 473.14 652.44 473.04 649.21 473.01 646.00 C 472.95 627.35 473.06 608.69 472.97 590.04 C 462.32 589.90 451.68 590.10 441.03 589.96 C 440.90 579.65 441.10 569.34 440.96 559.04 C 430.99 558.89 421.01 559.10 411.03 558.96 C 410.90 549.65 411.10 540.34 410.96 531.03 C 369.65 530.98 328.34 530.97 287.03 531.04 M 745.03 531.04 C 744.90 540.68 745.10 550.32 744.97 559.97 C 734.99 560.10 725.01 559.90 715.04 560.04 C 714.90 570.01 715.10 579.99 714.96 589.96 C 703.65 590.10 692.34 589.90 681.04 590.04 C 680.94 608.69 681.05 627.34 680.99 646.00 C 680.95 649.21 680.85 652.44 681.38 655.63 C 692.12 656.48 702.94 655.79 713.71 655.96 C 712.51 660.55 713.10 665.32 713.01 670.00 C 713.13 675.20 712.61 680.45 713.37 685.63 C 714.89 685.83 716.42 686.00 717.97 686.03 C 774.65 685.97 831.33 686.02 888.00 686.00 C 892.21 685.95 896.44 686.29 900.63 685.63 C 901.53 675.80 900.69 665.89 901.04 656.03 C 910.34 655.90 919.65 656.10 928.96 655.97 C 929.03 633.99 929.03 612.01 928.96 590.03 C 918.99 589.90 909.01 590.09 899.04 589.97 C 898.90 579.66 899.10 569.34 898.96 559.03 C 888.99 558.90 879.01 559.10 869.04 558.97 C 868.89 549.66 869.10 540.34 868.97 531.03 C 827.65 530.98 786.34 530.97 745.03 531.04 M 498.37 652.37 C 497.61 657.55 498.13 662.79 498.00 668.00 C 498.10 672.68 497.52 677.45 498.71 682.03 C 488.81 682.01 478.92 681.94 469.03 682.03 C 468.90 691.68 469.10 701.32 468.97 710.96 C 458.65 711.10 448.34 710.90 438.03 711.04 C 437.90 721.68 438.10 732.32 437.96 742.96 C 427.77 743.31 417.53 742.47 407.37 743.37 C 407.10 745.22 406.94 747.09 406.96 748.98 C 407.08 768.31 406.92 787.64 407.04 806.96 C 417.34 807.10 427.65 806.90 437.96 807.04 C 438.10 816.68 437.90 826.32 438.04 835.97 C 530.68 836.02 623.32 836.02 715.96 835.97 C 716.10 826.32 715.90 816.68 716.04 807.04 C 725.68 806.89 735.32 807.10 744.97 806.96 C 745.02 785.65 745.03 764.34 744.97 743.04 C 735.07 742.94 725.18 743.01 715.29 743.04 C 716.26 739.43 716.01 735.68 716.01 732.00 C 715.94 725.01 716.08 718.02 715.96 711.04 C 705.65 710.90 695.34 711.10 685.04 710.96 C 684.89 701.32 685.10 691.68 684.96 682.03 C 674.65 681.90 664.34 682.10 654.03 681.96 C 653.69 672.10 654.53 662.20 653.63 652.37 C 649.78 651.75 645.87 652.01 642.00 652.00 C 598.00 652.00 554.00 652.00 510.00 652.00 C 506.12 652.01 502.21 651.75 498.37 652.37 Z" />
<path fill="#bef202" opacity="1.00" d=" M 776.03 352.04 C 795.68 351.97 815.32 351.98 834.96 352.03 C 835.10 362.01 834.90 371.99 835.04 381.96 C 841.69 382.08 848.34 381.94 855.00 382.01 C 858.68 382.01 862.43 382.26 866.04 381.29 C 865.93 400.85 866.07 420.41 865.96 439.97 C 855.65 440.10 845.34 439.90 835.04 440.04 C 834.90 450.34 835.10 460.65 834.96 470.96 C 815.65 471.02 796.34 471.03 777.03 470.96 C 776.90 460.32 777.10 449.68 776.97 439.04 C 766.99 438.90 757.01 439.10 747.03 438.96 C 746.94 423.97 747.03 408.99 747.00 394.00 C 746.93 389.65 747.41 385.22 746.29 380.96 C 756.18 380.99 766.07 381.05 775.96 380.97 C 776.10 371.32 775.90 361.68 776.03 352.04 Z" />
<path fill="#bef202" opacity="1.00" d=" M 318.04 353.04 C 337.68 352.97 357.32 352.98 376.96 353.03 C 377.10 363.01 376.90 372.99 377.04 382.97 C 387.01 383.10 396.99 382.90 406.96 383.03 C 407.06 398.35 406.97 413.68 407.00 429.00 C 407.06 433.34 406.58 437.78 407.70 442.03 C 397.81 442.01 387.92 441.94 378.04 442.03 C 377.90 452.34 378.10 462.65 377.96 472.96 C 358.41 473.08 338.85 472.93 319.30 473.04 C 320.26 469.43 320.01 465.68 320.01 462.00 C 319.94 455.01 320.08 448.02 319.97 441.04 C 309.66 440.89 299.34 441.10 289.03 440.96 C 288.98 421.32 288.97 401.68 289.04 382.04 C 298.68 381.89 308.32 382.10 317.97 381.96 C 318.10 372.32 317.90 362.68 318.04 353.04 Z" />
<path fill="#bef202" opacity="1.00" d=" M 531.30 440.97 C 560.85 441.07 590.41 440.93 619.96 441.03 C 620.10 451.34 619.90 461.65 620.03 471.97 C 630.34 472.10 640.65 471.90 650.97 472.04 C 651.02 501.34 651.02 530.65 650.97 559.96 C 640.66 560.10 630.35 559.90 620.04 560.03 C 619.90 570.34 620.10 580.66 619.96 590.97 C 590.41 591.07 560.85 590.93 531.29 591.04 C 532.54 586.12 531.85 581.01 531.99 576.00 C 531.87 570.79 532.39 565.55 531.63 560.37 C 521.47 559.47 511.23 560.31 501.04 559.96 C 500.97 530.32 500.98 500.68 501.03 471.04 C 511.23 470.69 521.47 471.53 531.63 470.63 C 532.39 465.45 531.86 460.20 532.00 455.00 C 531.90 450.32 532.47 445.55 531.30 440.97 Z" />
</g>
<g id="#ffffffff">
<path fill="#ffffff" opacity="1.00" d=" M 774.03 319.04 C 794.68 318.98 815.32 318.97 835.97 319.04 C 836.10 328.68 835.90 338.32 836.04 347.96 C 846.34 348.10 856.65 347.90 866.96 348.03 C 867.10 358.34 866.90 368.65 867.03 378.96 C 877.67 379.10 888.32 378.90 898.96 379.04 C 899.03 401.01 899.02 422.99 898.96 444.96 C 892.31 445.08 885.65 444.94 879.00 445.01 C 875.31 445.01 871.56 445.26 867.96 444.29 C 867.99 454.18 868.05 464.07 867.97 473.96 C 857.74 474.06 847.52 473.99 837.29 473.96 C 838.26 477.56 838.01 481.31 838.01 485.00 C 837.94 491.32 838.08 497.64 837.96 503.96 C 816.65 504.02 795.34 504.03 774.03 503.96 C 773.92 496.97 774.05 489.98 773.99 483.00 C 773.98 479.31 773.73 475.56 774.71 471.97 C 764.48 471.99 754.26 472.06 744.03 471.96 C 743.89 462.65 744.10 453.34 743.96 444.04 C 733.77 443.69 723.53 444.53 713.37 443.63 C 713.10 441.77 712.94 439.89 712.96 438.02 C 713.09 418.40 712.90 398.78 713.05 379.16 C 717.12 377.27 721.68 378.16 726.00 378.00 C 731.67 378.23 737.46 377.35 743.04 378.71 C 743.01 368.48 742.94 358.26 743.04 348.03 C 753.34 347.90 763.65 348.10 773.97 347.96 C 774.10 338.32 773.90 328.68 774.03 319.04 M 776.03 352.04 C 775.90 361.68 776.10 371.32 775.96 380.97 C 766.07 381.05 756.18 380.99 746.29 380.96 C 747.41 385.22 746.93 389.65 747.00 394.00 C 747.03 408.99 746.94 423.97 747.03 438.96 C 757.01 439.10 766.99 438.90 776.97 439.04 C 777.10 449.68 776.90 460.32 777.03 470.96 C 796.34 471.03 815.65 471.02 834.96 470.96 C 835.10 460.65 834.90 450.34 835.04 440.04 C 845.34 439.90 855.65 440.10 865.96 439.97 C 866.07 420.41 865.93 400.85 866.04 381.29 C 862.43 382.26 858.68 382.01 855.00 382.01 C 848.34 381.94 841.69 382.08 835.04 381.96 C 834.90 371.99 835.10 362.01 834.96 352.03 C 815.32 351.98 795.68 351.97 776.03 352.04 Z" />
<path fill="#ffffff" opacity="1.00" d=" M 315.03 320.04 C 336.34 319.97 357.65 319.97 378.96 320.03 C 379.10 330.01 378.90 339.99 379.04 349.96 C 389.34 350.10 399.66 349.89 409.97 350.04 C 410.10 360.01 409.90 369.99 410.04 379.96 C 420.34 380.10 430.65 379.90 440.96 380.03 C 441.03 402.01 441.02 423.99 440.97 445.96 C 430.74 446.06 420.52 445.99 410.29 445.96 C 411.48 450.55 410.89 455.32 410.99 460.00 C 410.86 465.21 411.39 470.45 410.63 475.63 C 400.47 476.53 390.23 475.69 380.03 476.04 C 379.90 486.01 380.10 495.99 379.96 505.96 C 358.99 506.03 338.01 506.02 317.04 505.97 C 316.90 495.32 317.10 484.68 316.96 474.03 C 306.99 473.90 297.01 474.10 287.04 473.96 C 286.90 464.32 287.10 454.68 286.96 445.04 C 276.32 444.90 265.68 445.10 255.04 444.97 C 254.97 423.32 254.97 401.68 255.04 380.04 C 265.26 379.94 275.48 380.01 285.71 380.03 C 284.40 374.79 285.19 369.34 285.01 364.00 C 285.11 359.13 284.64 354.22 285.37 349.37 C 295.20 348.47 305.10 349.31 314.96 348.96 C 315.10 339.32 314.90 329.68 315.03 320.04 M 318.04 353.04 C 317.90 362.68 318.10 372.32 317.97 381.96 C 308.32 382.10 298.68 381.89 289.04 382.04 C 288.97 401.68 288.98 421.32 289.03 440.96 C 299.34 441.10 309.66 440.89 319.97 441.04 C 320.08 448.02 319.94 455.01 320.01 462.00 C 320.01 465.68 320.26 469.43 319.30 473.04 C 338.85 472.93 358.41 473.08 377.96 472.96 C 378.10 462.65 377.90 452.34 378.04 442.03 C 387.92 441.94 397.81 442.01 407.70 442.03 C 406.58 437.78 407.06 433.34 407.00 429.00 C 406.97 413.68 407.06 398.35 406.96 383.03 C 396.99 382.90 387.01 383.10 377.04 382.97 C 376.90 372.99 377.10 363.01 376.96 353.03 C 357.32 352.98 337.68 352.97 318.04 353.04 Z" />
<path fill="#ffffff" opacity="1.00" d=" M 528.03 408.04 C 560.01 407.97 591.99 407.97 623.97 408.04 C 624.08 414.69 623.94 421.34 624.01 428.00 C 624.01 431.68 624.26 435.43 623.30 439.03 C 633.19 439.01 643.08 438.94 652.97 439.04 C 653.10 449.01 652.90 458.99 653.03 468.96 C 663.34 469.10 673.65 468.90 683.96 469.04 C 684.03 500.68 684.02 532.32 683.97 563.96 C 673.65 564.10 663.34 563.90 653.04 564.04 C 652.90 573.68 653.10 583.32 652.96 592.96 C 643.32 593.10 633.68 592.90 624.04 593.04 C 623.90 603.34 624.10 613.65 623.96 623.96 C 591.99 624.02 560.01 624.03 528.03 623.96 C 527.90 613.65 528.10 603.34 527.96 593.04 C 517.99 592.90 508.01 593.10 498.03 592.96 C 497.90 583.32 498.10 573.68 497.97 564.04 C 487.99 563.90 478.01 564.10 468.03 563.96 C 467.98 531.99 467.97 500.01 468.04 468.03 C 478.26 467.94 488.48 468.01 498.70 468.03 C 497.74 464.43 497.98 460.68 497.99 457.00 C 498.05 450.68 497.91 444.36 498.04 438.04 C 508.01 437.90 517.99 438.10 527.96 437.97 C 528.10 427.99 527.90 418.01 528.03 408.04 M 531.30 440.97 C 532.47 445.55 531.90 450.32 532.00 455.00 C 531.86 460.20 532.39 465.45 531.63 470.63 C 521.47 471.53 511.23 470.69 501.03 471.04 C 500.98 500.68 500.97 530.32 501.04 559.96 C 511.23 560.31 521.47 559.47 531.63 560.37 C 532.39 565.55 531.87 570.79 531.99 576.00 C 531.85 581.01 532.54 586.12 531.29 591.04 C 560.85 590.93 590.41 591.07 619.96 590.97 C 620.10 580.66 619.90 570.34 620.04 560.03 C 630.35 559.90 640.66 560.10 650.97 559.96 C 651.02 530.65 651.02 501.34 650.97 472.04 C 640.65 471.90 630.34 472.10 620.03 471.97 C 619.90 461.65 620.10 451.34 619.96 441.03 C 590.41 440.93 560.85 441.07 531.30 440.97 Z" />
<path fill="#ffffff" opacity="1.00" d=" M 287.03 531.04 C 328.34 530.97 369.65 530.98 410.96 531.03 C 411.10 540.34 410.90 549.65 411.03 558.96 C 421.01 559.10 430.99 558.89 440.96 559.04 C 441.10 569.34 440.90 579.65 441.03 589.96 C 451.68 590.10 462.32 589.90 472.97 590.04 C 473.06 608.69 472.95 627.35 473.01 646.00 C 473.04 649.21 473.14 652.44 472.63 655.63 C 462.47 656.53 452.23 655.69 442.04 656.04 C 441.90 666.34 442.10 676.65 441.97 686.96 C 379.32 687.02 316.68 687.02 254.04 686.96 C 253.90 676.65 254.10 666.34 253.97 656.04 C 244.32 655.90 234.68 656.10 225.03 655.96 C 224.98 633.99 224.97 612.01 225.04 590.04 C 235.59 589.94 246.15 590.01 256.71 590.04 C 255.74 586.43 255.98 582.68 255.99 579.00 C 256.05 572.68 255.92 566.35 256.04 560.04 C 266.34 559.90 276.66 560.10 286.96 559.96 C 287.10 550.32 286.90 540.68 287.03 531.04 Z" />
<path fill="#ffffff" opacity="1.00" d=" M 745.03 531.04 C 786.34 530.97 827.65 530.98 868.97 531.03 C 869.10 540.34 868.89 549.66 869.04 558.97 C 879.01 559.10 888.99 558.90 898.96 559.03 C 899.10 569.34 898.90 579.66 899.04 589.97 C 909.01 590.09 918.99 589.90 928.96 590.03 C 929.03 612.01 929.03 633.99 928.96 655.97 C 919.65 656.10 910.34 655.90 901.04 656.03 C 900.69 665.89 901.53 675.80 900.63 685.63 C 896.44 686.29 892.21 685.95 888.00 686.00 C 831.33 686.02 774.65 685.97 717.97 686.03 C 716.42 686.00 714.89 685.83 713.37 685.63 C 712.61 680.45 713.13 675.20 713.01 670.00 C 713.10 665.32 712.51 660.55 713.71 655.96 C 702.94 655.79 692.12 656.48 681.38 655.63 C 680.85 652.44 680.95 649.21 680.99 646.00 C 681.05 627.34 680.94 608.69 681.04 590.04 C 692.34 589.90 703.65 590.10 714.96 589.96 C 715.10 579.99 714.90 570.01 715.04 560.04 C 725.01 559.90 734.99 560.10 744.97 559.97 C 745.10 550.32 744.90 540.68 745.03 531.04 Z" />
<path fill="#ffffff" opacity="1.00" d=" M 498.37 652.37 C 502.21 651.75 506.12 652.01 510.00 652.00 C 554.00 652.00 598.00 652.00 642.00 652.00 C 645.87 652.01 649.78 651.75 653.63 652.37 C 654.53 662.20 653.69 672.10 654.03 681.96 C 664.34 682.10 674.65 681.90 684.96 682.03 C 685.10 691.68 684.89 701.32 685.04 710.96 C 695.34 711.10 705.65 710.90 715.96 711.04 C 716.08 718.02 715.94 725.01 716.01 732.00 C 716.01 735.68 716.26 739.43 715.29 743.04 C 725.18 743.01 735.07 742.94 744.97 743.04 C 745.03 764.34 745.02 785.65 744.97 806.96 C 735.32 807.10 725.68 806.89 716.04 807.04 C 715.90 816.68 716.10 826.32 715.96 835.97 C 623.32 836.02 530.68 836.02 438.04 835.97 C 437.90 826.32 438.10 816.68 437.96 807.04 C 427.65 806.90 417.34 807.10 407.04 806.96 C 406.92 787.64 407.08 768.31 406.96 748.98 C 406.94 747.09 407.10 745.22 407.37 743.37 C 417.53 742.47 427.77 743.31 437.96 742.96 C 438.10 732.32 437.90 721.68 438.03 711.04 C 448.34 710.90 458.65 711.10 468.97 710.96 C 469.10 701.32 468.90 691.68 469.03 682.03 C 478.92 681.94 488.81 682.01 498.71 682.03 C 497.52 677.45 498.10 672.68 498.00 668.00 C 498.13 662.79 497.61 657.55 498.37 652.37 Z" />
</g>
</svg>
