<?xml version="1.0" encoding="UTF-8" ?>
<!DOCTYPE svg PUBLIC "-//W3C//DTD SVG 1.1//EN" "http://www.w3.org/Graphics/SVG/1.1/DTD/svg11.dtd">
<svg width="1154pt" height="1154pt" viewBox="0 0 1154 1154" version="1.1" xmlns="http://www.w3.org/2000/svg">
<g id="#bef202ff">
<path fill="#bef202" opacity="1.00" d=" M 567.47 0.00 L 586.48 0.00 C 666.28 1.42 745.84 19.16 818.29 52.76 C 883.60 82.79 943.10 125.30 992.93 177.10 C 1056.40 243.07 1104.08 324.24 1130.04 412.07 C 1145.27 462.70 1153.03 515.48 1154.00 568.32 L 1154.00 586.59 C 1152.57 667.10 1134.45 747.33 1100.34 820.31 C 1069.73 886.07 1026.54 945.91 973.90 995.80 C 920.73 1046.22 857.91 1086.46 789.79 1113.49 C 732.19 1136.37 670.86 1149.78 608.97 1153.11 C 605.44 1153.27 601.89 1153.40 598.40 1154.00 L 567.46 1154.00 C 486.40 1152.55 405.58 1134.25 332.22 1099.61 C 231.16 1052.41 144.56 975.05 85.97 880.16 C 44.55 813.31 17.10 737.87 5.94 660.03 C 2.27 634.70 0.44 609.14 0.00 583.57 L 0.00 568.32 C 0.53 547.47 1.73 526.63 4.36 505.94 C 13.15 433.83 35.85 363.43 70.86 299.78 C 105.90 235.88 153.20 178.76 209.34 132.31 C 266.28 85.17 332.32 49.00 402.84 26.78 C 456.02 9.85 511.70 1.11 567.47 0.00 M 774.25 319.02 C 774.32 328.88 774.21 338.75 774.31 348.62 C 764.33 348.73 754.34 348.68 744.36 348.64 C 744.19 354.76 744.33 360.88 744.22 367.00 C 744.21 370.93 744.32 374.85 744.33 378.78 C 734.45 379.75 724.50 378.87 714.59 379.29 C 714.68 400.39 714.61 421.49 714.62 442.59 C 724.92 442.68 735.21 442.60 745.51 442.63 C 745.46 452.20 745.52 461.77 745.47 471.34 C 755.51 471.31 765.56 471.40 775.61 471.29 C 775.11 481.92 775.48 492.59 775.40 503.24 C 795.80 503.20 816.19 503.21 836.59 503.23 C 836.66 493.02 836.61 482.82 836.62 472.61 C 846.89 472.69 857.16 472.66 867.43 472.63 C 867.41 462.83 867.42 453.03 867.42 443.23 C 877.51 443.47 887.60 443.21 897.69 443.38 C 898.79 436.64 897.76 429.79 898.20 423.00 C 898.22 408.49 898.17 393.98 898.22 379.48 C 887.60 379.30 876.97 379.31 866.35 379.48 C 866.45 369.48 866.36 359.48 866.40 349.48 C 856.14 349.57 845.87 349.40 835.62 349.58 C 835.52 339.39 835.56 329.21 835.59 319.03 C 815.14 318.97 794.70 319.00 774.25 319.02 M 316.50 320.44 C 316.52 330.52 316.46 340.60 316.53 350.68 C 306.49 350.63 296.46 350.67 286.42 350.65 C 286.45 360.61 286.39 370.58 286.46 380.54 C 276.55 380.61 266.64 380.51 256.72 380.60 C 256.70 401.72 256.80 422.84 256.67 443.96 C 266.98 444.71 277.35 444.15 287.69 444.27 C 287.62 453.96 287.63 463.66 287.68 473.36 C 297.25 473.18 306.83 473.55 316.39 473.13 C 316.58 473.35 316.96 473.80 317.14 474.02 C 317.88 484.20 317.32 494.44 317.43 504.65 C 337.87 504.72 358.31 504.65 378.76 504.68 C 378.68 494.61 378.79 484.54 378.70 474.48 C 388.94 474.44 399.18 474.48 409.43 474.46 C 409.48 464.52 409.37 454.58 409.48 444.64 C 419.63 444.70 429.78 444.66 439.93 444.67 C 440.10 423.57 439.92 402.48 439.93 381.38 C 429.65 381.42 419.36 381.29 409.08 381.46 C 408.27 371.41 408.92 361.30 408.71 351.23 C 398.43 351.17 388.14 351.40 377.87 351.13 C 377.52 340.90 377.84 330.65 377.72 320.41 C 357.31 320.46 336.90 320.40 316.50 320.44 M 529.48 409.32 C 529.53 419.09 529.46 428.86 529.53 438.64 C 519.78 438.60 510.03 438.71 500.29 438.58 C 500.11 448.99 500.23 459.41 500.22 469.83 C 510.39 469.70 520.57 469.79 530.75 469.78 C 530.75 460.02 530.77 450.26 530.74 440.51 C 560.92 440.53 591.11 440.42 621.29 440.56 C 620.86 450.26 622.02 460.06 620.62 469.68 C 621.98 470.37 623.48 470.65 625.02 470.58 C 633.91 470.56 642.79 470.50 651.68 470.60 C 651.77 460.19 651.65 449.78 651.75 439.37 C 641.98 439.38 632.22 439.39 622.45 439.37 C 622.48 429.36 622.43 419.35 622.48 409.34 C 591.48 409.27 560.48 409.33 529.48 409.32 M 468.30 562.77 C 478.43 562.66 488.56 562.83 498.69 562.67 C 499.71 572.31 498.98 582.05 499.11 591.73 C 508.62 591.78 518.13 591.70 527.64 591.73 C 530.16 592.33 528.76 595.21 528.80 596.98 C 528.54 605.81 528.83 614.64 528.67 623.47 C 559.88 623.60 591.09 623.59 622.29 623.47 C 622.19 613.14 622.35 602.81 622.20 592.49 C 632.29 592.55 642.37 592.49 652.46 592.52 C 652.47 582.81 652.50 573.10 652.44 563.39 C 662.71 563.38 672.98 563.41 683.25 563.38 C 683.22 532.43 683.25 501.48 683.24 470.54 C 672.93 470.43 662.61 470.60 652.31 470.44 C 652.12 489.62 652.49 508.82 652.12 528.00 C 652.38 533.66 652.26 539.32 652.22 544.99 C 652.14 550.48 652.72 556.01 651.76 561.46 C 641.66 561.30 631.56 561.42 621.46 561.39 C 621.51 571.78 621.34 582.17 621.56 592.55 C 590.99 592.49 560.41 592.34 529.85 592.63 C 529.57 582.01 529.73 571.39 529.73 560.77 C 519.61 560.75 509.50 560.75 499.39 560.77 C 499.51 530.60 499.31 500.43 499.49 470.26 C 489.18 469.15 478.76 470.09 468.41 469.73 C 468.15 500.74 468.36 531.76 468.30 562.77 M 288.26 531.47 C 288.43 541.24 288.20 551.01 288.40 560.78 C 278.17 561.90 267.82 560.91 257.55 561.33 C 257.61 571.07 257.51 580.82 257.61 590.57 C 246.76 590.58 235.90 590.60 225.05 590.56 C 224.96 611.88 224.97 633.20 225.05 654.52 C 235.20 654.42 245.36 654.51 255.51 654.46 C 255.50 664.77 255.45 675.09 255.53 685.40 C 317.14 685.37 378.74 685.41 440.35 685.38 C 440.37 675.07 440.37 664.76 440.34 654.45 C 450.82 654.50 461.30 654.46 471.78 654.47 C 471.64 633.17 471.82 611.87 471.68 590.57 C 461.10 590.61 450.52 590.57 439.93 590.59 C 439.83 580.47 439.91 570.35 439.89 560.23 C 430.12 560.27 420.34 560.18 410.57 560.28 C 410.47 550.67 410.50 541.07 410.56 531.47 C 369.79 531.45 329.03 531.44 288.26 531.47 M 746.09 531.47 C 746.02 541.42 746.57 551.40 745.76 561.33 C 735.66 561.21 725.56 561.28 715.46 561.29 C 715.49 571.05 715.45 580.80 715.49 590.56 C 704.83 590.66 694.16 590.48 683.51 590.63 C 683.32 590.85 682.94 591.28 682.76 591.50 C 682.56 612.47 682.77 633.46 682.65 654.43 C 693.35 654.51 704.05 654.49 714.74 654.44 C 714.78 664.02 714.58 673.60 714.81 683.18 C 715.06 683.43 715.55 683.95 715.79 684.20 C 777.05 684.41 838.31 684.17 899.57 684.32 C 899.74 674.37 899.62 664.42 899.63 654.47 C 909.40 654.51 919.17 654.41 928.94 654.52 C 929.03 633.20 929.06 611.87 928.92 590.55 C 918.49 590.58 908.05 590.67 897.62 590.49 C 897.66 580.41 897.62 570.32 897.64 560.24 C 887.94 560.25 878.24 560.20 868.54 560.27 C 868.46 550.68 868.46 541.09 868.54 531.49 C 827.72 531.41 786.90 531.46 746.09 531.47 M 499.87 682.63 C 490.02 682.63 480.16 682.66 470.31 682.61 C 470.24 692.30 470.23 702.00 470.31 711.69 C 459.84 712.71 449.28 711.87 438.78 712.18 C 438.80 722.73 438.74 733.28 438.81 743.83 C 428.95 743.89 419.09 743.79 409.23 743.88 C 409.20 755.25 409.39 766.63 409.13 778.00 C 409.42 787.47 409.11 796.95 409.30 806.43 C 419.14 806.35 428.98 806.42 438.82 806.39 C 438.73 816.24 438.81 826.10 438.77 835.96 C 530.64 836.03 622.51 836.03 714.38 835.96 C 714.34 826.15 714.38 816.35 714.35 806.54 C 724.40 806.27 734.45 806.44 744.51 806.40 C 744.54 785.55 744.52 764.70 744.52 743.85 C 734.44 743.84 724.37 743.85 714.30 743.84 C 714.45 733.29 714.31 722.73 714.38 712.17 C 704.39 712.16 694.41 712.12 684.42 712.19 C 684.27 702.62 684.36 693.04 684.37 683.47 C 673.79 683.37 663.21 683.45 652.64 683.43 C 652.65 673.71 652.61 663.99 652.66 654.28 C 646.78 653.76 640.89 654.33 635.01 654.17 C 628.99 654.14 622.98 654.27 616.96 654.17 C 610.32 654.18 603.67 654.28 597.03 654.14 C 584.03 653.41 571.02 654.85 558.03 653.91 C 546.67 654.81 535.30 653.51 523.94 654.23 C 516.09 653.93 508.18 654.73 500.37 653.70 C 499.12 663.26 500.02 672.99 499.87 682.63 Z" />
<path fill="#bef202" opacity="1.00" d=" M 775.27 380.31 C 775.33 370.12 775.16 359.94 775.37 349.76 C 781.58 349.47 787.78 350.60 793.98 349.90 C 800.03 349.66 806.07 350.66 812.13 350.08 C 819.94 349.39 827.77 350.28 835.59 349.79 C 835.72 360.02 835.62 370.26 835.64 380.49 C 845.96 380.50 856.28 380.59 866.60 380.44 C 866.54 400.82 866.62 421.20 866.55 441.58 C 856.49 441.44 846.43 441.55 836.37 441.52 C 836.41 451.57 836.32 461.62 836.42 471.67 C 816.39 471.77 796.36 471.63 776.33 471.75 C 776.47 461.33 776.33 450.91 776.41 440.49 C 766.23 440.44 756.05 440.42 745.88 440.51 C 745.88 420.45 745.86 400.39 745.89 380.33 C 755.68 380.32 765.48 380.36 775.27 380.31 Z" />
<path fill="#bef202" opacity="1.00" d=" M 317.23 351.67 C 337.37 351.66 357.52 351.80 377.66 351.59 C 377.78 361.77 377.37 371.96 377.85 382.12 C 388.13 382.47 398.42 382.19 408.71 382.24 C 408.61 402.61 408.71 422.99 408.66 443.37 C 398.64 443.32 388.63 443.36 378.61 443.34 C 378.64 453.47 378.57 463.61 378.65 473.74 C 358.60 473.75 338.55 473.75 318.51 473.75 C 318.39 473.63 318.15 473.41 318.03 473.30 C 319.07 462.99 318.19 452.59 318.50 442.24 C 308.24 441.51 297.93 442.68 287.68 441.61 C 288.06 438.78 288.31 435.92 288.26 433.06 C 288.16 415.92 288.33 398.77 288.17 381.63 C 297.85 381.58 307.53 381.65 317.22 381.60 C 317.16 371.62 317.13 361.64 317.23 351.67 Z" />
</g>
<g id="#000000ff">
<path fill="#000000" opacity="1.00" d=" M 774.25 319.02 C 794.70 319.00 815.14 318.97 835.59 319.03 C 835.56 329.21 835.52 339.39 835.62 349.58 C 845.87 349.40 856.14 349.57 866.40 349.48 C 866.36 359.48 866.45 369.48 866.35 379.48 C 876.97 379.31 887.60 379.30 898.22 379.48 C 898.17 393.98 898.22 408.49 898.20 423.00 C 897.76 429.79 898.79 436.64 897.69 443.38 C 887.60 443.21 877.51 443.47 867.42 443.23 C 867.42 453.03 867.41 462.83 867.43 472.63 C 857.16 472.66 846.89 472.69 836.62 472.61 C 836.61 482.82 836.66 493.02 836.59 503.23 C 816.19 503.21 795.80 503.20 775.40 503.24 C 775.48 492.59 775.11 481.92 775.61 471.29 C 765.56 471.40 755.51 471.31 745.47 471.34 C 745.52 461.77 745.46 452.20 745.51 442.63 C 735.21 442.60 724.92 442.68 714.62 442.59 C 714.61 421.49 714.68 400.39 714.59 379.29 C 724.50 378.87 734.45 379.75 744.33 378.78 C 744.32 374.85 744.21 370.93 744.22 367.00 C 744.33 360.88 744.19 354.76 744.36 348.64 C 754.34 348.68 764.33 348.73 774.31 348.62 C 774.21 338.75 774.32 328.88 774.25 319.02 M 775.27 380.31 C 765.48 380.36 755.68 380.32 745.89 380.33 C 745.86 400.39 745.88 420.45 745.88 440.51 C 756.05 440.42 766.23 440.44 776.41 440.49 C 776.33 450.91 776.47 461.33 776.33 471.75 C 796.36 471.63 816.39 471.77 836.42 471.67 C 836.32 461.62 836.41 451.57 836.37 441.52 C 846.43 441.55 856.49 441.44 866.55 441.58 C 866.62 421.20 866.54 400.82 866.60 380.44 C 856.28 380.59 845.96 380.50 835.64 380.49 C 835.62 370.26 835.72 360.02 835.59 349.79 C 827.77 350.28 819.94 349.39 812.13 350.08 C 806.07 350.66 800.03 349.66 793.98 349.90 C 787.78 350.60 781.58 349.47 775.37 349.76 C 775.16 359.94 775.33 370.12 775.27 380.31 Z" />
<path fill="#000000" opacity="1.00" d=" M 316.50 320.44 C 336.90 320.40 357.31 320.46 377.72 320.41 C 377.84 330.65 377.52 340.90 377.87 351.13 C 388.14 351.40 398.43 351.17 408.71 351.23 C 408.92 361.30 408.27 371.41 409.08 381.46 C 419.36 381.29 429.65 381.42 439.93 381.38 C 439.92 402.48 440.10 423.57 439.93 444.67 C 429.78 444.66 419.63 444.70 409.48 444.64 C 409.37 454.58 409.48 464.52 409.43 474.46 C 399.18 474.48 388.94 474.44 378.70 474.48 C 378.79 484.54 378.68 494.61 378.76 504.68 C 358.31 504.65 337.87 504.72 317.43 504.65 C 317.32 494.44 317.88 484.20 317.14 474.02 C 316.96 473.80 316.58 473.35 316.39 473.13 C 306.83 473.55 297.25 473.18 287.68 473.36 C 287.63 463.66 287.62 453.96 287.69 444.27 C 277.35 444.15 266.98 444.71 256.67 443.96 C 256.80 422.84 256.70 401.72 256.72 380.60 C 266.64 380.51 276.55 380.61 286.46 380.54 C 286.39 370.58 286.45 360.61 286.42 350.65 C 296.46 350.67 306.49 350.63 316.53 350.68 C 316.46 340.60 316.52 330.52 316.50 320.44 M 317.23 351.67 C 317.13 361.64 317.16 371.62 317.22 381.60 C 307.53 381.65 297.85 381.58 288.17 381.63 C 288.33 398.77 288.16 415.92 288.26 433.06 C 288.31 435.92 288.06 438.78 287.68 441.61 C 297.93 442.68 308.24 441.51 318.50 442.24 C 318.19 452.59 319.07 462.99 318.03 473.30 C 318.15 473.41 318.39 473.63 318.51 473.75 C 338.55 473.75 358.60 473.75 378.65 473.74 C 378.57 463.61 378.64 453.47 378.61 443.34 C 388.63 443.36 398.64 443.32 408.66 443.37 C 408.71 422.99 408.61 402.61 408.71 382.24 C 398.42 382.19 388.13 382.47 377.85 382.12 C 377.37 371.96 377.78 361.77 377.66 351.59 C 357.52 351.80 337.37 351.66 317.23 351.67 Z" />
<path fill="#000000" opacity="1.00" d=" M 529.48 409.32 C 560.48 409.33 591.48 409.27 622.48 409.34 C 622.43 419.35 622.48 429.36 622.45 439.37 C 632.22 439.39 641.98 439.38 651.75 439.37 C 651.65 449.78 651.77 460.19 651.68 470.60 C 642.79 470.50 633.91 470.56 625.02 470.58 C 623.48 470.65 621.98 470.37 620.62 469.68 C 622.02 460.06 620.86 450.26 621.29 440.56 C 591.11 440.42 560.92 440.53 530.74 440.51 C 530.77 450.26 530.75 460.02 530.75 469.78 C 520.57 469.79 510.39 469.70 500.22 469.83 C 500.23 459.41 500.11 448.99 500.29 438.58 C 510.03 438.71 519.78 438.60 529.53 438.64 C 529.46 428.86 529.53 419.09 529.48 409.32 Z" />
<path fill="#000000" opacity="1.00" d=" M 468.30 562.77 C 468.36 531.76 468.15 500.74 468.41 469.73 C 478.76 470.09 489.18 469.15 499.49 470.26 C 499.31 500.43 499.51 530.60 499.39 560.77 C 509.50 560.75 519.61 560.75 529.73 560.77 C 529.73 571.39 529.57 582.01 529.85 592.63 C 560.41 592.34 590.99 592.49 621.56 592.55 C 621.34 582.17 621.51 571.78 621.46 561.39 C 631.56 561.42 641.66 561.30 651.76 561.46 C 652.72 556.01 652.14 550.48 652.22 544.99 C 652.26 539.32 652.38 533.66 652.12 528.00 C 652.49 508.82 652.12 489.62 652.31 470.44 C 662.61 470.60 672.93 470.43 683.24 470.54 C 683.25 501.48 683.22 532.43 683.25 563.38 C 672.98 563.41 662.71 563.38 652.44 563.39 C 652.50 573.10 652.47 582.81 652.46 592.52 C 642.37 592.49 632.29 592.55 622.20 592.49 C 622.35 602.81 622.19 613.14 622.29 623.47 C 591.09 623.59 559.88 623.60 528.67 623.47 C 528.83 614.64 528.54 605.81 528.80 596.98 C 528.76 595.21 530.16 592.33 527.64 591.73 C 518.13 591.70 508.62 591.78 499.11 591.73 C 498.98 582.05 499.71 572.31 498.69 562.67 C 488.56 562.83 478.43 562.66 468.30 562.77 Z" />
<path fill="#000000" opacity="1.00" d=" M 288.26 531.47 C 329.03 531.44 369.79 531.45 410.56 531.47 C 410.50 541.07 410.47 550.67 410.57 560.28 C 420.34 560.18 430.12 560.27 439.89 560.23 C 439.91 570.35 439.83 580.47 439.93 590.59 C 450.52 590.57 461.10 590.61 471.68 590.57 C 471.82 611.87 471.64 633.17 471.78 654.47 C 461.30 654.46 450.82 654.50 440.34 654.45 C 440.37 664.76 440.37 675.07 440.35 685.38 C 378.74 685.41 317.14 685.37 255.53 685.40 C 255.45 675.09 255.50 664.77 255.51 654.46 C 245.36 654.51 235.20 654.42 225.05 654.52 C 224.97 633.20 224.96 611.88 225.05 590.56 C 235.90 590.60 246.76 590.58 257.61 590.57 C 257.51 580.82 257.61 571.07 257.55 561.33 C 267.82 560.91 278.17 561.90 288.40 560.78 C 288.20 551.01 288.43 541.24 288.26 531.47 Z" />
<path fill="#000000" opacity="1.00" d=" M 746.09 531.47 C 786.90 531.46 827.72 531.41 868.54 531.49 C 868.46 541.09 868.46 550.68 868.54 560.27 C 878.24 560.20 887.94 560.25 897.64 560.24 C 897.62 570.32 897.66 580.41 897.62 590.49 C 908.05 590.67 918.49 590.58 928.92 590.55 C 929.06 611.87 929.03 633.20 928.94 654.52 C 919.17 654.41 909.40 654.51 899.63 654.47 C 899.62 664.42 899.74 674.37 899.57 684.32 C 838.31 684.17 777.05 684.41 715.79 684.20 C 715.55 683.95 715.06 683.43 714.81 683.18 C 714.58 673.60 714.78 664.02 714.74 654.44 C 704.05 654.49 693.35 654.51 682.65 654.43 C 682.77 633.46 682.56 612.47 682.76 591.50 C 682.94 591.28 683.32 590.85 683.51 590.63 C 694.16 590.48 704.83 590.66 715.49 590.56 C 715.45 580.80 715.49 571.05 715.46 561.29 C 725.56 561.28 735.66 561.21 745.76 561.33 C 746.57 551.40 746.02 541.42 746.09 531.47 Z" />
<path fill="#000000" opacity="1.00" d=" M 499.87 682.63 C 500.02 672.99 499.12 663.26 500.37 653.70 C 508.18 654.73 516.09 653.93 523.94 654.23 C 535.30 653.51 546.67 654.81 558.03 653.91 C 571.02 654.85 584.03 653.41 597.03 654.14 C 603.67 654.28 610.32 654.18 616.96 654.17 C 622.98 654.27 628.99 654.14 635.01 654.17 C 640.89 654.33 646.78 653.76 652.66 654.28 C 652.61 663.99 652.65 673.71 652.64 683.43 C 663.21 683.45 673.79 683.37 684.37 683.47 C 684.36 693.04 684.27 702.62 684.42 712.19 C 694.41 712.12 704.39 712.16 714.38 712.17 C 714.31 722.73 714.45 733.29 714.30 743.84 C 724.37 743.85 734.44 743.84 744.52 743.85 C 744.52 764.70 744.54 785.55 744.51 806.40 C 734.45 806.44 724.40 806.27 714.35 806.54 C 714.38 816.35 714.34 826.15 714.38 835.96 C 622.51 836.03 530.64 836.03 438.77 835.96 C 438.81 826.10 438.73 816.24 438.82 806.39 C 428.98 806.42 419.14 806.35 409.30 806.43 C 409.11 796.95 409.42 787.47 409.13 778.00 C 409.39 766.63 409.20 755.25 409.23 743.88 C 419.09 743.79 428.95 743.89 438.81 743.83 C 438.74 733.28 438.80 722.73 438.78 712.18 C 449.28 711.87 459.84 712.71 470.31 711.69 C 470.23 702.00 470.24 692.30 470.31 682.61 C 480.16 682.66 490.02 682.63 499.87 682.63 Z" />
</g>
</svg>
