<?xml version="1.0" encoding="UTF-8" ?>
<!DOCTYPE svg PUBLIC "-//W3C//DTD SVG 1.1//EN" "http://www.w3.org/Graphics/SVG/1.1/DTD/svg11.dtd">
<svg width="1154pt" height="1154pt" viewBox="0 0 1154 1154" version="1.1" xmlns="http://www.w3.org/2000/svg">
<g id="#bef202ff">
<path fill="#bef202" opacity="1.00" d=" M 564.51 0.00 L 588.49 0.00 C 632.54 1.14 676.53 6.77 719.25 17.68 C 795.00 36.84 866.69 71.76 928.55 119.47 C 1007.48 180.04 1070.33 261.34 1108.92 353.04 C 1126.22 394.10 1138.71 437.18 1146.07 481.12 C 1150.74 508.68 1153.08 536.58 1154.00 564.51 L 1154.00 588.49 C 1152.86 631.49 1147.56 674.43 1137.07 716.17 C 1118.77 790.53 1085.17 861.01 1039.30 922.30 C 993.62 983.38 935.78 1035.35 870.07 1074.09 C 801.75 1114.57 724.91 1140.59 646.04 1149.88 C 625.95 1152.36 605.73 1153.54 585.51 1154.00 L 564.52 1154.00 C 519.98 1152.74 475.53 1146.92 432.39 1135.72 C 347.16 1113.81 267.24 1071.80 200.63 1014.33 C 148.45 969.42 104.35 915.14 71.19 854.81 C 34.36 788.08 11.12 713.90 3.22 638.10 C 1.25 619.97 0.38 601.74 0.00 583.52 L 0.00 567.48 C 0.53 550.97 1.24 534.45 3.00 518.02 C 10.11 447.40 30.49 378.12 62.84 314.93 C 94.35 253.14 137.20 197.17 188.46 150.45 C 244.61 99.23 310.94 59.21 382.51 33.61 C 440.84 12.62 502.59 1.63 564.51 0.00 M 483.00 259.01 C 482.99 271.67 483.01 284.33 482.99 297.00 C 470.33 297.01 457.67 296.98 445.00 297.01 C 444.99 309.00 445.01 321.00 445.00 332.99 C 432.66 333.01 420.33 332.99 408.00 333.01 C 407.99 345.34 408.02 357.67 407.99 370.00 C 383.33 370.01 358.67 369.99 334.00 370.01 C 333.99 383.67 334.01 397.33 333.99 411.00 C 283.00 411.01 232.00 410.99 181.00 411.01 C 180.98 423.33 181.02 435.66 180.99 447.99 C 169.33 448.01 157.67 447.99 146.01 448.00 C 146.00 506.01 145.98 564.03 146.02 622.04 C 145.97 624.71 145.02 627.28 144.98 629.96 C 145.03 706.31 144.98 782.65 145.01 859.00 C 157.00 859.01 169.00 858.98 181.00 859.01 C 181.01 871.00 180.98 883.00 181.01 895.00 C 444.67 895.00 708.33 895.00 971.99 895.00 C 972.02 883.33 971.98 871.67 972.01 860.00 C 984.33 859.99 996.66 860.01 1008.99 860.00 C 1009.01 722.00 1009.00 584.00 1008.99 446.01 C 997.33 445.99 985.67 446.01 974.00 446.00 C 973.99 434.33 974.01 422.67 974.00 411.01 C 922.00 410.98 870.00 411.01 818.01 410.99 C 817.99 397.33 818.01 383.67 817.99 370.01 C 794.00 369.99 770.00 370.01 746.00 370.00 C 745.99 357.66 746.01 345.33 746.00 333.01 C 733.66 332.98 721.33 333.02 709.00 332.99 C 708.99 321.00 709.01 309.00 709.00 297.01 C 696.33 296.98 683.67 297.02 671.01 296.99 C 670.99 284.33 671.01 271.67 671.00 259.01 C 608.33 259.00 545.67 259.00 483.00 259.01 Z" />
<path fill="#bef202" opacity="1.00" d=" M 523.01 300.00 C 559.67 300.00 596.33 299.99 633.00 300.01 C 633.01 312.34 632.98 324.67 633.01 337.00 C 645.33 337.01 657.66 336.99 669.99 337.00 C 670.02 349.00 669.98 361.00 670.00 372.99 C 694.00 373.01 718.00 372.99 741.99 373.00 C 742.01 385.67 742.00 398.33 742.00 410.99 C 631.67 411.00 521.33 411.00 411.00 411.00 C 411.00 398.33 410.99 385.67 411.01 373.00 C 435.67 372.99 460.33 373.01 485.00 372.99 C 485.01 361.00 484.99 349.00 485.01 337.01 C 497.67 336.98 510.33 337.01 522.99 336.99 C 523.01 324.66 522.98 312.33 523.01 300.00 Z" />
<path fill="#bef202" opacity="1.00" d=" M 184.00 449.01 C 446.00 448.99 708.00 449.00 969.99 449.01 C 970.00 485.34 970.00 521.66 969.99 557.99 C 944.33 558.01 918.67 557.99 893.00 558.01 C 892.98 570.00 893.01 582.00 893.00 593.99 C 868.67 594.01 844.34 593.99 820.01 594.00 C 819.98 606.33 820.01 618.66 819.99 630.99 C 794.66 631.01 769.33 630.99 744.01 631.01 C 743.98 644.00 744.02 657.00 743.99 670.00 C 632.66 670.00 521.33 670.01 410.00 669.99 C 409.99 657.66 410.01 645.34 410.00 633.01 C 386.33 632.98 362.67 633.02 339.01 632.99 C 338.98 620.33 339.01 607.67 338.99 595.01 C 312.66 594.99 286.34 595.01 260.01 595.00 C 259.98 583.33 260.01 571.67 260.00 560.01 C 234.33 559.98 208.67 560.01 183.01 560.00 C 182.97 542.32 183.05 524.65 182.96 506.98 C 182.84 503.61 184.16 500.39 184.04 497.02 C 183.96 481.02 184.02 465.01 184.00 449.01 Z" />
</g>
<g id="#ffffffff">
<path fill="#ffffff" opacity="1.00" d=" M 483.00 259.01 C 545.67 259.00 608.33 259.00 671.00 259.01 C 671.01 271.67 670.99 284.33 671.01 296.99 C 683.67 297.02 696.33 296.98 709.00 297.01 C 709.01 309.00 708.99 321.00 709.00 332.99 C 721.33 333.02 733.66 332.98 746.00 333.01 C 746.01 345.33 745.99 357.66 746.00 370.00 C 770.00 370.01 794.00 369.99 817.99 370.01 C 818.01 383.67 817.99 397.33 818.01 410.99 C 870.00 411.01 922.00 410.98 974.00 411.01 C 974.01 422.67 973.99 434.33 974.00 446.00 C 985.67 446.01 997.33 445.99 1008.99 446.01 C 1009.00 584.00 1009.01 722.00 1008.99 860.00 C 996.66 860.01 984.33 859.99 972.01 860.00 C 971.98 871.67 972.02 883.33 971.99 895.00 C 708.33 895.00 444.67 895.00 181.01 895.00 C 180.98 883.00 181.01 871.00 181.00 859.01 C 169.00 858.98 157.00 859.01 145.01 859.00 C 144.98 782.65 145.03 706.31 144.98 629.96 C 145.02 627.28 145.97 624.71 146.02 622.04 C 145.98 564.03 146.00 506.01 146.01 448.00 C 157.67 447.99 169.33 448.01 180.99 447.99 C 181.02 435.66 180.98 423.33 181.00 411.01 C 232.00 410.99 283.00 411.01 333.99 411.00 C 334.01 397.33 333.99 383.67 334.00 370.01 C 358.67 369.99 383.33 370.01 407.99 370.00 C 408.02 357.67 407.99 345.34 408.00 333.01 C 420.33 332.99 432.66 333.01 445.00 332.99 C 445.01 321.00 444.99 309.00 445.00 297.01 C 457.67 296.98 470.33 297.01 482.99 297.00 C 483.01 284.33 482.99 271.67 483.00 259.01 M 523.01 300.00 C 522.98 312.33 523.01 324.66 522.99 336.99 C 510.33 337.01 497.67 336.98 485.01 337.01 C 484.99 349.00 485.01 361.00 485.00 372.99 C 460.33 373.01 435.67 372.99 411.01 373.00 C 410.99 385.67 411.00 398.33 411.00 411.00 C 521.33 411.00 631.67 411.00 742.00 410.99 C 742.00 398.33 742.01 385.67 741.99 373.00 C 718.00 372.99 694.00 373.01 670.00 372.99 C 669.98 361.00 670.02 349.00 669.99 337.00 C 657.66 336.99 645.33 337.01 633.01 337.00 C 632.98 324.67 633.01 312.34 633.00 300.01 C 596.33 299.99 559.67 300.00 523.01 300.00 M 184.00 449.01 C 184.02 465.01 183.96 481.02 184.04 497.02 C 184.16 500.39 182.84 503.61 182.96 506.98 C 183.05 524.65 182.97 542.32 183.01 560.00 C 208.67 560.01 234.33 559.98 260.00 560.01 C 260.01 571.67 259.98 583.33 260.01 595.00 C 286.34 595.01 312.66 594.99 338.99 595.01 C 339.01 607.67 338.98 620.33 339.01 632.99 C 362.67 633.02 386.33 632.98 410.00 633.01 C 410.01 645.34 409.99 657.66 410.00 669.99 C 521.33 670.01 632.66 670.00 743.99 670.00 C 744.02 657.00 743.98 644.00 744.01 631.01 C 769.33 630.99 794.66 631.01 819.99 630.99 C 820.01 618.66 819.98 606.33 820.01 594.00 C 844.34 593.99 868.67 594.01 893.00 593.99 C 893.01 582.00 892.98 570.00 893.00 558.01 C 918.67 557.99 944.33 558.01 969.99 557.99 C 970.00 521.66 970.00 485.34 969.99 449.01 C 708.00 449.00 446.00 448.99 184.00 449.01 Z" />
</g>
</svg>
