<?xml version="1.0" standalone="no"?>
<!DOCTYPE svg PUBLIC "-//W3C//DTD SVG 20010904//EN"
 "http://www.w3.org/TR/2001/REC-SVG-20010904/DTD/svg10.dtd">
<svg version="1.0" xmlns="http://www.w3.org/2000/svg"
 width="864.000000pt" height="636.000000pt" viewBox="0 0 864.000000 636.000000"
 preserveAspectRatio="xMidYMid meet">
<metadata>
Created by potrace 1.11, written by Peter Selinger 2001-2013
</metadata>
<g transform="translate(0.000000,636.000000) scale(0.100000,-0.100000)"
fill="#000000" stroke="none">
<path d="M3380 6170 l0 -190 -187 -2 -188 -3 -3 -177 -2 -178 -185 0 -185 0 0
-190 0 -190 -370 0 -370 0 0 -205 0 -205 -760 0 -760 0 0 -180 0 -180 -174 0
-175 0 -5 -52 c-3 -29 -8 -954 -12 -2055 l-6 -2003 186 0 186 0 0 -180 0 -180
3945 0 3945 0 0 175 0 175 188 2 187 3 3 2068 2 2067 -175 0 -175 0 0 170 0
170 -780 0 -780 0 0 205 0 205 -365 0 -365 0 0 190 0 190 -180 0 -180 0 -2
178 -3 177 -187 3 -188 2 0 190 0 190 -940 0 -940 0 0 -190z m1500 -400 l0
-180 185 0 185 0 0 -185 0 -185 360 0 360 0 0 -195 0 -195 -1655 0 -1655 0 0
195 0 195 370 0 370 0 0 185 0 185 190 0 190 0 0 180 0 180 550 0 550 0 0
-180z m3370 -1860 l0 -550 -380 0 -380 0 0 -175 0 -175 -370 0 -370 0 0 -185
0 -185 -377 -2 -378 -3 -3 -197 -2 -198 -1670 0 -1670 0 0 190 0 190 -355 0
-355 0 -2 188 -3 187 -392 3 -393 2 0 175 0 175 -385 0 -385 0 0 555 0 555
3935 0 3935 0 0 -550z"/>
</g>
</svg>
