<?xml version="1.0" encoding="UTF-8" ?>
<!DOCTYPE svg PUBLIC "-//W3C//DTD SVG 1.1//EN" "http://www.w3.org/Graphics/SVG/1.1/DTD/svg11.dtd">
<svg width="1154pt" height="1154pt" viewBox="0 0 1154 1154" version="1.1" xmlns="http://www.w3.org/2000/svg">
<g id="#bef202ff">
<path fill="#bef202" opacity="1.00" d=" M 567.44 0.00 L 586.49 0.00 C 666.95 1.44 747.17 19.46 820.10 53.60 C 884.92 83.67 943.94 126.06 993.41 177.60 C 1056.63 243.47 1104.13 324.44 1130.02 412.03 C 1145.27 462.68 1153.03 515.47 1154.00 568.33 L 1154.00 586.56 C 1152.58 667.05 1134.47 747.27 1100.37 820.24 C 1070.43 884.54 1028.51 943.23 977.41 992.42 C 925.89 1042.18 865.00 1082.21 798.89 1109.78 C 731.16 1138.11 657.95 1152.98 584.57 1154.00 L 567.48 1154.00 C 485.66 1152.55 404.10 1133.89 330.19 1098.67 C 231.93 1052.27 147.46 977.38 89.36 885.57 C 47.89 820.25 19.81 746.48 7.48 670.08 C 2.81 641.48 0.48 612.53 0.00 583.56 L 0.00 572.24 C 0.70 476.67 25.44 381.31 71.97 297.79 C 104.80 238.42 148.28 184.98 199.56 140.58 C 256.86 90.98 323.98 52.68 395.99 29.00 C 451.22 10.64 509.28 1.15 567.44 0.00 M 483.00 259.00 C 482.95 271.85 483.09 284.70 482.93 297.54 C 470.46 297.45 457.98 297.52 445.50 297.50 C 445.50 309.33 445.48 321.15 445.52 332.97 C 433.01 333.04 420.51 332.97 408.00 333.00 C 407.99 345.59 408.02 358.17 407.99 370.75 C 383.33 370.74 358.67 370.75 334.00 370.75 C 333.98 384.42 334.02 398.09 333.99 411.75 C 283.24 411.74 232.50 411.74 181.75 411.76 C 181.75 424.01 181.72 436.27 181.77 448.53 C 170.11 448.49 158.44 448.47 146.78 448.54 C 146.02 471.02 146.97 493.53 146.23 516.01 C 146.16 535.69 146.48 555.37 145.99 575.03 C 145.90 594.00 146.26 612.98 145.74 631.94 C 145.67 651.62 145.98 671.30 145.49 690.97 C 145.40 709.97 145.76 728.98 145.24 747.98 C 145.42 784.91 144.79 821.83 145.01 858.76 C 157.27 858.50 169.64 859.78 181.82 858.51 C 181.66 870.67 181.79 882.83 181.75 894.99 C 444.92 895.00 708.08 895.00 971.25 894.99 C 971.25 883.17 971.26 871.34 971.24 859.52 C 983.74 859.47 996.24 859.51 1008.74 859.50 C 1008.76 721.75 1008.75 584.00 1008.75 446.25 C 997.01 446.25 985.27 446.24 973.54 446.26 C 973.44 434.76 973.54 423.25 973.49 411.75 C 921.50 411.75 869.51 411.74 817.52 411.76 C 817.46 398.09 817.53 384.42 817.48 370.75 C 793.41 370.75 769.33 370.75 745.25 370.75 C 745.25 358.16 745.26 345.58 745.25 333.00 C 733.08 332.99 720.92 333.01 708.76 332.99 C 708.65 321.13 708.94 309.26 708.61 297.41 C 696.09 297.63 683.56 297.42 671.03 297.51 C 670.96 284.68 671.02 271.84 671.00 259.00 C 608.33 259.00 545.67 259.00 483.00 259.00 Z" />
<path fill="#bef202" opacity="1.00" d=" M 522.50 299.51 C 559.50 299.50 596.50 299.50 633.50 299.51 C 633.52 311.75 633.47 324.00 633.52 336.25 C 645.76 336.25 658.00 336.25 670.24 336.25 C 670.26 348.42 670.24 360.58 670.25 372.75 C 694.33 372.76 718.41 372.74 742.49 372.76 C 742.52 385.74 742.47 398.72 742.52 411.71 C 632.02 411.81 521.52 411.71 411.01 411.75 C 410.99 398.75 411.00 385.76 411.00 372.76 C 435.67 372.75 460.33 372.75 484.99 372.76 C 485.02 360.59 484.98 348.42 485.01 336.25 C 497.49 336.26 509.98 336.23 522.46 336.26 C 522.55 324.01 522.47 311.76 522.50 299.51 Z" />
<path fill="#bef202" opacity="1.00" d=" M 183.23 448.47 C 445.48 448.54 707.74 448.48 970.00 448.50 C 969.99 485.25 970.02 522.00 969.99 558.75 C 944.57 558.74 919.16 558.74 893.75 558.76 C 893.74 570.50 893.75 582.24 893.75 593.99 C 869.25 594.02 844.75 593.98 820.24 594.01 C 820.25 606.50 820.24 618.98 820.25 631.47 C 794.90 631.61 769.53 631.34 744.18 631.61 C 744.33 644.65 744.22 657.70 744.24 670.75 C 632.83 670.75 521.42 670.74 410.01 670.75 C 409.98 658.17 410.01 645.58 410.00 633.00 C 386.18 633.01 362.37 632.97 338.55 633.03 C 338.43 620.52 338.54 608.01 338.50 595.50 C 312.16 595.49 285.83 595.52 259.50 595.49 C 259.54 583.69 259.42 571.90 259.57 560.10 C 233.99 559.86 208.42 560.06 182.84 560.00 C 183.20 542.65 182.91 525.28 182.99 507.91 C 183.48 488.11 183.19 468.29 183.23 448.47 Z" />
</g>
<g id="#000000ff">
<path fill="#000000" opacity="1.00" d=" M 483.00 259.00 C 545.67 259.00 608.33 259.00 671.00 259.00 C 671.02 271.84 670.96 284.68 671.03 297.51 C 683.56 297.42 696.09 297.63 708.61 297.41 C 708.94 309.26 708.65 321.13 708.76 332.99 C 720.92 333.01 733.08 332.99 745.25 333.00 C 745.26 345.58 745.25 358.16 745.25 370.75 C 769.33 370.75 793.41 370.75 817.48 370.75 C 817.53 384.42 817.46 398.09 817.52 411.76 C 869.51 411.74 921.50 411.75 973.49 411.75 C 973.54 423.25 973.44 434.76 973.54 446.26 C 985.27 446.24 997.01 446.25 1008.75 446.25 C 1008.75 584.00 1008.76 721.75 1008.74 859.50 C 996.24 859.51 983.74 859.47 971.24 859.52 C 971.26 871.34 971.25 883.17 971.25 894.99 C 708.08 895.00 444.92 895.00 181.75 894.99 C 181.79 882.83 181.66 870.67 181.82 858.51 C 169.64 859.78 157.27 858.50 145.01 858.76 C 144.79 821.83 145.42 784.91 145.24 747.98 C 145.76 728.98 145.40 709.97 145.49 690.97 C 145.98 671.30 145.67 651.62 145.74 631.94 C 146.26 612.98 145.90 594.00 145.99 575.03 C 146.48 555.37 146.16 535.69 146.23 516.01 C 146.97 493.53 146.02 471.02 146.78 448.54 C 158.44 448.47 170.11 448.49 181.77 448.53 C 181.72 436.27 181.75 424.01 181.75 411.76 C 232.50 411.74 283.24 411.74 333.99 411.75 C 334.02 398.09 333.98 384.42 334.00 370.75 C 358.67 370.75 383.33 370.74 407.99 370.75 C 408.02 358.17 407.99 345.59 408.00 333.00 C 420.51 332.97 433.01 333.04 445.52 332.97 C 445.48 321.15 445.50 309.33 445.50 297.50 C 457.98 297.52 470.46 297.45 482.93 297.54 C 483.09 284.70 482.95 271.85 483.00 259.00 M 522.50 299.51 C 522.47 311.76 522.55 324.01 522.46 336.26 C 509.98 336.23 497.49 336.26 485.01 336.25 C 484.98 348.42 485.02 360.59 484.99 372.76 C 460.33 372.75 435.67 372.75 411.00 372.76 C 411.00 385.76 410.99 398.75 411.01 411.75 C 521.52 411.71 632.02 411.81 742.52 411.71 C 742.47 398.72 742.52 385.74 742.49 372.76 C 718.41 372.74 694.33 372.76 670.25 372.75 C 670.24 360.58 670.26 348.42 670.24 336.25 C 658.00 336.25 645.76 336.25 633.52 336.25 C 633.47 324.00 633.52 311.75 633.50 299.51 C 596.50 299.50 559.50 299.50 522.50 299.51 M 183.23 448.47 C 183.19 468.29 183.48 488.11 182.99 507.91 C 182.91 525.28 183.20 542.65 182.84 560.00 C 208.42 560.06 233.99 559.86 259.57 560.10 C 259.42 571.90 259.54 583.69 259.50 595.49 C 285.83 595.52 312.16 595.49 338.50 595.50 C 338.54 608.01 338.43 620.52 338.55 633.03 C 362.37 632.97 386.18 633.01 410.00 633.00 C 410.01 645.58 409.98 658.17 410.01 670.75 C 521.42 670.74 632.83 670.75 744.24 670.75 C 744.22 657.70 744.33 644.65 744.18 631.61 C 769.53 631.34 794.90 631.61 820.25 631.47 C 820.24 618.98 820.25 606.50 820.24 594.01 C 844.75 593.98 869.25 594.02 893.75 593.99 C 893.75 582.24 893.74 570.50 893.75 558.76 C 919.16 558.74 944.57 558.74 969.99 558.75 C 970.02 522.00 969.99 485.25 970.00 448.50 C 707.74 448.48 445.48 448.54 183.23 448.47 Z" />
</g>
</svg>
