<?xml version="1.0" encoding="UTF-8" ?>
<!DOCTYPE svg PUBLIC "-//W3C//DTD SVG 1.1//EN" "http://www.w3.org/Graphics/SVG/1.1/DTD/svg11.dtd">
<svg width="1154pt" height="1154pt" viewBox="0 0 1154 1154" version="1.1" xmlns="http://www.w3.org/2000/svg">
<g id="#bef202ff">
<path fill="#bef202" opacity="1.00" d=" M 567.49 0.00 L 586.42 0.00 C 667.42 1.43 748.18 19.69 821.49 54.26 C 930.23 104.93 1022.20 190.59 1080.65 295.34 C 1120.91 366.86 1145.34 447.17 1152.02 528.96 C 1153.16 542.08 1153.59 555.24 1154.00 568.39 L 1154.00 586.43 C 1152.59 667.26 1134.35 747.81 1100.00 821.03 C 1070.09 885.01 1028.31 943.41 977.44 992.39 C 924.09 1043.92 860.69 1085.02 791.86 1112.66 C 726.08 1139.14 655.36 1153.02 584.48 1154.00 L 567.58 1154.00 C 487.05 1152.57 406.74 1134.53 333.77 1100.33 C 236.42 1055.19 152.28 982.16 93.71 892.27 C 50.76 826.77 21.52 752.36 8.33 675.16 C 3.10 644.89 0.49 614.22 0.00 583.52 L 0.00 572.31 C 0.68 481.67 22.89 391.19 64.95 310.86 C 98.62 246.07 144.81 187.86 200.06 140.15 C 257.03 90.94 323.68 52.90 395.17 29.27 C 450.67 10.74 509.02 1.15 567.49 0.00 M 483.00 259.00 C 482.94 271.85 483.12 284.71 482.91 297.55 C 470.44 297.43 457.97 297.53 445.50 297.50 C 445.50 309.32 445.48 321.15 445.52 332.97 C 433.01 333.04 420.51 332.97 408.00 333.00 C 407.99 345.59 408.02 358.17 407.99 370.75 C 383.33 370.74 358.67 370.75 334.01 370.75 C 333.98 384.42 334.02 398.08 333.99 411.75 C 283.24 411.75 232.50 411.74 181.75 411.75 C 181.75 424.01 181.72 436.27 181.77 448.53 C 170.11 448.47 158.45 448.50 146.80 448.51 C 145.99 470.65 146.99 492.83 146.23 514.97 C 146.27 530.99 146.22 547.02 146.26 563.04 C 145.56 585.68 146.44 608.35 145.73 631.00 C 145.77 647.34 145.73 663.69 145.76 680.03 C 145.04 702.34 145.96 724.68 145.23 746.99 C 145.43 784.25 144.79 821.50 145.01 858.76 C 153.68 858.61 162.33 859.19 171.00 859.00 C 174.60 858.80 178.31 859.49 181.81 858.48 C 181.67 870.65 181.78 882.82 181.75 894.99 C 444.92 895.00 708.08 895.00 971.25 894.99 C 971.25 883.17 971.26 871.34 971.24 859.52 C 983.74 859.48 996.24 859.51 1008.74 859.50 C 1008.76 721.75 1008.75 584.00 1008.75 446.25 C 997.00 446.24 985.26 446.25 973.51 446.25 C 973.47 434.75 973.52 423.25 973.49 411.75 C 921.49 411.71 869.48 411.82 817.47 411.70 C 817.52 398.05 817.50 384.40 817.48 370.75 C 793.41 370.75 769.33 370.75 745.25 370.75 C 745.25 358.17 745.26 345.59 745.25 333.01 C 733.08 332.99 720.92 333.01 708.76 333.00 C 708.73 321.16 708.79 309.32 708.73 297.49 C 696.16 297.53 683.60 297.47 671.04 297.52 C 670.95 284.68 671.03 271.84 671.00 259.00 C 608.33 259.00 545.67 259.00 483.00 259.00 Z" />
<path fill="#bef202" opacity="1.00" d=" M 522.51 299.51 C 559.50 299.49 596.50 299.50 633.49 299.50 C 633.52 311.75 633.47 324.00 633.52 336.25 C 645.76 336.25 658.00 336.25 670.24 336.25 C 670.26 348.42 670.23 360.58 670.25 372.75 C 694.33 372.76 718.41 372.74 742.49 372.76 C 742.52 385.75 742.48 398.73 742.51 411.72 C 632.01 411.78 521.51 411.72 411.01 411.75 C 410.99 398.75 411.00 385.75 411.01 372.76 C 435.67 372.75 460.33 372.75 484.99 372.76 C 485.02 360.59 484.98 348.42 485.01 336.25 C 497.50 336.26 509.99 336.25 522.48 336.25 C 522.52 324.00 522.48 311.75 522.51 299.51 Z" />
<path fill="#bef202" opacity="1.00" d=" M 183.26 495.96 C 183.24 480.12 183.24 464.28 183.27 448.44 C 445.51 448.58 707.75 448.46 970.00 448.50 C 969.99 485.25 970.01 522.00 969.99 558.75 C 944.58 558.74 919.17 558.74 893.75 558.75 C 893.74 570.50 893.75 582.24 893.75 593.99 C 869.25 594.02 844.74 593.98 820.24 594.01 C 820.25 606.50 820.24 618.99 820.25 631.48 C 794.92 631.51 769.59 631.50 744.27 631.49 C 744.19 644.58 744.32 657.67 744.20 670.77 C 632.80 670.72 521.41 670.76 410.01 670.75 C 409.98 658.17 410.01 645.58 410.00 633.00 C 386.16 632.98 362.32 633.03 338.49 632.98 C 338.51 620.48 338.50 607.99 338.50 595.50 C 312.16 595.49 285.83 595.52 259.50 595.49 C 259.52 583.67 259.46 571.86 259.53 560.05 C 233.97 559.93 208.41 560.03 182.84 560.00 C 183.34 538.66 182.60 517.30 183.26 495.96 Z" />
</g>
<g id="#000000ff">
<path fill="#000000" opacity="1.00" d=" M 483.00 259.00 C 545.67 259.00 608.33 259.00 671.00 259.00 C 671.03 271.84 670.95 284.68 671.04 297.52 C 683.60 297.47 696.16 297.53 708.73 297.49 C 708.79 309.32 708.73 321.16 708.76 333.00 C 720.92 333.01 733.08 332.99 745.25 333.01 C 745.26 345.59 745.25 358.17 745.25 370.75 C 769.33 370.75 793.41 370.75 817.48 370.75 C 817.50 384.40 817.52 398.05 817.47 411.70 C 869.48 411.82 921.49 411.71 973.49 411.75 C 973.52 423.25 973.47 434.75 973.51 446.25 C 985.26 446.25 997.00 446.24 1008.75 446.25 C 1008.75 584.00 1008.76 721.75 1008.74 859.50 C 996.24 859.51 983.74 859.48 971.24 859.52 C 971.26 871.34 971.25 883.17 971.25 894.99 C 708.08 895.00 444.92 895.00 181.75 894.99 C 181.78 882.82 181.67 870.65 181.81 858.48 C 178.31 859.49 174.60 858.80 171.00 859.00 C 162.33 859.19 153.68 858.61 145.01 858.76 C 144.79 821.50 145.43 784.25 145.23 746.99 C 145.96 724.68 145.04 702.34 145.76 680.03 C 145.73 663.69 145.77 647.34 145.73 631.00 C 146.44 608.35 145.56 585.68 146.26 563.04 C 146.22 547.02 146.27 530.99 146.23 514.97 C 146.99 492.83 145.99 470.65 146.80 448.51 C 158.45 448.50 170.11 448.47 181.77 448.53 C 181.72 436.27 181.75 424.01 181.75 411.75 C 232.50 411.74 283.24 411.75 333.99 411.75 C 334.02 398.08 333.98 384.42 334.01 370.75 C 358.67 370.75 383.33 370.74 407.99 370.75 C 408.02 358.17 407.99 345.59 408.00 333.00 C 420.51 332.97 433.01 333.04 445.52 332.97 C 445.48 321.15 445.50 309.32 445.50 297.50 C 457.97 297.53 470.44 297.43 482.91 297.55 C 483.12 284.71 482.94 271.85 483.00 259.00 M 522.51 299.51 C 522.48 311.75 522.52 324.00 522.48 336.25 C 509.99 336.25 497.50 336.26 485.01 336.25 C 484.98 348.42 485.02 360.59 484.99 372.76 C 460.33 372.75 435.67 372.75 411.01 372.76 C 411.00 385.75 410.99 398.75 411.01 411.75 C 521.51 411.72 632.01 411.78 742.51 411.72 C 742.48 398.73 742.52 385.75 742.49 372.76 C 718.41 372.74 694.33 372.76 670.25 372.75 C 670.23 360.58 670.26 348.42 670.24 336.25 C 658.00 336.25 645.76 336.25 633.52 336.25 C 633.47 324.00 633.52 311.75 633.49 299.50 C 596.50 299.50 559.50 299.49 522.51 299.51 M 183.26 495.96 C 182.60 517.30 183.34 538.66 182.84 560.00 C 208.41 560.03 233.97 559.93 259.53 560.05 C 259.46 571.86 259.52 583.67 259.50 595.49 C 285.83 595.52 312.16 595.49 338.50 595.50 C 338.50 607.99 338.51 620.48 338.49 632.98 C 362.32 633.03 386.16 632.98 410.00 633.00 C 410.01 645.58 409.98 658.17 410.01 670.75 C 521.41 670.76 632.80 670.72 744.20 670.77 C 744.32 657.67 744.19 644.58 744.27 631.49 C 769.59 631.50 794.92 631.51 820.25 631.48 C 820.24 618.99 820.25 606.50 820.24 594.01 C 844.74 593.98 869.25 594.02 893.75 593.99 C 893.75 582.24 893.74 570.50 893.75 558.75 C 919.17 558.74 944.58 558.74 969.99 558.75 C 970.01 522.00 969.99 485.25 970.00 448.50 C 707.75 448.46 445.51 448.58 183.27 448.44 C 183.24 464.28 183.24 480.12 183.26 495.96 Z" />
</g>
</svg>
