<?xml version="1.0" encoding="UTF-8" ?>
<!DOCTYPE svg PUBLIC "-//W3C//DTD SVG 1.1//EN" "http://www.w3.org/Graphics/SVG/1.1/DTD/svg11.dtd">
<svg width="864pt" height="636pt" viewBox="0 0 864 636" version="1.1" xmlns="http://www.w3.org/2000/svg">
<g id="#000000ff">
<path fill="#000000" opacity="1.00" d=" M 338.00 0.00 L 526.00 0.00 C 526.03 12.84 525.94 25.68 526.05 38.53 C 538.62 38.49 551.20 38.47 563.78 38.53 C 563.72 50.35 563.76 62.17 563.76 73.99 C 575.92 74.02 588.08 73.98 600.25 74.01 C 600.26 86.59 600.24 99.17 600.25 111.74 C 624.33 111.76 648.41 111.74 672.49 111.75 C 672.53 125.42 672.46 139.09 672.53 152.77 C 724.42 152.66 776.32 152.89 828.21 152.65 C 828.90 164.16 828.30 175.71 828.51 187.24 C 840.34 187.29 852.17 187.16 864.00 187.31 L 864.00 600.43 C 851.42 600.60 838.83 600.44 826.25 600.51 C 826.24 612.34 826.27 624.17 826.24 636.00 L 36.75 636.00 C 36.79 623.90 36.67 611.79 36.81 599.69 C 24.56 600.56 12.27 599.60 0.00 599.78 L 0.00 439.82 C 1.56 413.92 0.18 387.95 1.01 362.02 C 0.82 326.99 1.43 291.97 1.24 256.94 C 1.97 234.48 0.99 211.98 1.80 189.52 C 13.47 189.47 25.13 189.51 36.79 189.50 C 36.71 177.25 36.76 165.00 36.76 152.76 C 87.50 152.74 138.24 152.74 188.99 152.76 C 189.02 139.09 188.98 125.42 189.01 111.75 C 213.67 111.75 238.33 111.74 262.99 111.76 C 263.02 99.17 262.99 86.59 263.00 74.00 C 275.50 73.99 287.99 74.00 300.49 74.00 C 300.51 62.17 300.49 50.34 300.50 38.51 C 313.00 38.48 325.50 38.52 338.00 38.49 C 338.00 25.66 338.00 12.83 338.00 0.00 M 377.49 77.25 C 364.99 77.25 352.50 77.25 340.01 77.25 C 339.99 89.42 340.01 101.59 339.99 113.75 C 315.33 113.75 290.67 113.75 266.00 113.76 C 266.00 126.75 265.99 139.75 266.01 152.75 C 376.48 152.75 486.96 152.74 597.44 152.76 C 597.56 139.75 597.48 126.75 597.48 113.75 C 573.40 113.76 549.33 113.76 525.25 113.75 C 525.22 101.58 525.29 89.40 525.22 77.23 C 512.98 77.28 500.75 77.23 488.52 77.26 C 488.45 65.00 488.54 52.75 488.48 40.49 C 451.50 40.51 414.51 40.51 377.53 40.49 C 377.46 52.75 377.54 65.00 377.49 77.25 M 38.22 189.49 C 38.30 205.32 38.21 221.15 38.26 236.98 C 37.62 258.31 38.31 279.67 37.87 301.00 C 63.41 301.00 88.95 300.99 114.49 301.01 C 114.52 312.83 114.50 324.66 114.50 336.48 C 140.83 336.52 167.16 336.48 193.50 336.51 C 193.51 349.00 193.49 361.50 193.51 374.00 C 217.34 374.01 241.17 373.99 265.00 374.00 C 265.01 386.58 264.99 399.17 265.01 411.75 C 376.43 411.72 487.85 411.80 599.27 411.72 C 599.21 398.65 599.27 385.58 599.25 372.51 C 624.57 372.49 649.90 372.50 675.23 372.50 C 675.26 360.00 675.24 347.50 675.25 335.01 C 699.75 334.98 724.25 335.01 748.75 334.99 C 748.75 323.25 748.74 311.50 748.76 299.75 C 774.17 299.74 799.58 299.75 824.99 299.75 C 825.00 263.00 825.00 226.25 824.99 189.50 C 562.74 189.49 300.48 189.52 38.22 189.49 Z" />
</g>
</svg>
